<svg xmlns="http://www.w3.org/2000/svg" width="11.154mm" height="6mm" viewBox="0 0 11.154 6"><g style="display:inline;opacity:1" transform="rotate(180 1.889 4.231)scale(.03584)"><rect width="307.821" height="164.022" x="-103.705" y="-234.419" ry="32.723" style="fill:#aaa;fill-opacity:1;stroke:#1b1b1b;stroke-width:3.38744;stroke-miterlimit:4;stroke-dasharray:none;stroke-opacity:1" transform="scale(-1)"/><rect width="277.237" height="135.407" x="-88.413" y="-220.112" ry="22.822" style="display:inline;opacity:1;fill:#2e2e2e;fill-opacity:1;stroke:#f0f0f0;stroke-width:5.5803;stroke-linejoin:round;stroke-miterlimit:4;stroke-dasharray:none;stroke-opacity:1" transform="scale(-1)"/><path d="M-185.96 151.137H85.19v-42.183c0-11.886-7.521-20.657-19.3-20.696l-229.528-.762c-15.296-.05-22.323 9.572-22.323 21.458z" style="display:inline;opacity:1;fill:#1d1d1d;fill-opacity:1;stroke:none;stroke-width:5.35088;stroke-linejoin:round;stroke-miterlimit:4;stroke-dasharray:none;stroke-opacity:1"/><g aria-label="REV" style="font-style:normal;font-weight:400;font-size:81.3075px;line-height:1.25;font-family:sans-serif;display:inline;opacity:1;fill:#f0f0f0;fill-opacity:1;stroke:none;stroke-width:2.03269"><g aria-label="INV" style="font-style:normal;font-weight:400;font-size:84.392px;line-height:1.25;font-family:sans-serif;fill:#f0f0f0;fill-opacity:1;stroke:none;stroke-width:4.28857"><path d="M-13.679-124.475v-55.867h6.33v55.867zM6.322-124.475v-55.867h7.342l34.516 47.006v-47.006h6.33v55.867h-7.342L12.65-171.65v47.175zM84.216-124.475l-22.617-55.867h6.92l19.326 48.694 19.325-48.694h6.92l-22.617 55.867z" style="font-style:normal;font-variant:normal;font-weight:400;font-stretch:normal;font-family:Questrial;-inkscape-font-specification:Questrial;fill:#f0f0f0;fill-opacity:1;stroke-width:4.28857" transform="matrix(-1.0159 0 0 -1.0159 .798 -2.422)"/></g></g></g></svg>