<svg xmlns="http://www.w3.org/2000/svg" width="11.154mm" height="6mm" viewBox="0 0 11.154 6"><g style="display:inline" transform="rotate(180 1.889 4.231)scale(.03584)"><rect width="307.821" height="164.022" x="-103.705" y="-234.419" ry="32.723" style="fill:#aaa;stroke:#1b1b1b;stroke-width:3.38744;stroke-miterlimit:4;stroke-dasharray:none" transform="scale(-1)"/><rect width="277.237" height="135.407" x="-88.413" y="-220.112" ry="22.822" style="display:inline;fill:#2e2e2e;stroke:#f0f0f0;stroke-width:5.5803;stroke-linejoin:round;stroke-miterlimit:4;stroke-dasharray:none" transform="scale(-1)"/><path d="M-185.96 151.137H85.19v-42.183c0-11.886-7.521-20.657-19.3-20.696l-229.528-.762c-15.296-.05-22.323 9.572-22.323 21.458z" style="display:inline;fill:#1d1d1d;stroke:none;stroke-width:5.35088"/><path d="M-13.679-124.475v-55.867h6.33v55.867zm20.001 0v-55.867h7.342l34.516 47.006v-47.006h6.33v55.867h-7.342L12.65-171.65v47.175zm77.894 0-22.617-55.867h6.92l19.326 48.694 19.325-48.694h6.92l-22.617 55.867z" style="fill:#f0f0f0;stroke-width:4.28857" transform="rotate(180 .399 -1.211)scale(1.0159)"/></g></g></g></svg>