<?xml version="1.0" encoding="UTF-8" standalone="no"?>
<svg
   xmlns:dc="http://purl.org/dc/elements/1.1/"
   xmlns:cc="http://creativecommons.org/ns#"
   xmlns:rdf="http://www.w3.org/1999/02/22-rdf-syntax-ns#"
   xmlns:svg="http://www.w3.org/2000/svg"
   xmlns="http://www.w3.org/2000/svg"
   xmlns:sodipodi="http://sodipodi.sourceforge.net/DTD/sodipodi-0.dtd"
   xmlns:inkscape="http://www.inkscape.org/namespaces/inkscape"
   width="9.000001mm"
   height="9mm"
   viewBox="0 0 9.0000006 9.0000001"
   version="1.1"
   id="svg295"
   inkscape:version="1.0.1 (3bc2e813f5, 2020-09-07)"
   sodipodi:docname="dark-sync-switch-on.svg">
  <defs
     id="defs289">
    <mask
       maskUnits="userSpaceOnUse"
       id="mask1345">
      <circle
         style="fill:#666666;fill-opacity:1;stroke-width:0.0850262;stroke-miterlimit:4;stroke-dasharray:none"
         id="circle1347"
         cx="-48.166672"
         cy="-37.583336"
         r="32.085506" />
    </mask>
  </defs>
  <sodipodi:namedview
     id="base"
     pagecolor="#ffffff"
     bordercolor="#666666"
     borderopacity="1.0"
     inkscape:pageopacity="0.0"
     inkscape:pageshadow="2"
     inkscape:zoom="7.9429757"
     inkscape:cx="-6.1783083"
     inkscape:cy="18.164945"
     inkscape:document-units="mm"
     inkscape:current-layer="layer1-5"
     inkscape:document-rotation="0"
     showgrid="true"
     inkscape:snap-bbox="true"
     inkscape:snap-nodes="true"
     inkscape:snap-object-midpoints="true"
     inkscape:snap-center="true"
     inkscape:snap-text-baseline="true"
     inkscape:snap-page="true"
     inkscape:window-width="2400"
     inkscape:window-height="1271"
     inkscape:window-x="-9"
     inkscape:window-y="-9"
     inkscape:window-maximized="1"
     inkscape:snap-grids="true"
     inkscape:snap-to-guides="true"
     inkscape:snap-others="false"
     inkscape:snap-bbox-edge-midpoints="true"
     inkscape:bbox-paths="true"
     inkscape:snap-bbox-midpoints="true"
     inkscape:snap-global="true"
     inkscape:bbox-nodes="true"
     inkscape:snap-midpoints="true"
     inkscape:snap-smooth-nodes="true"
     inkscape:snap-intersection-paths="true"
     inkscape:object-paths="true">
    <inkscape:grid
       type="xygrid"
       id="grid309"
       originx="-7.9025648"
       originy="3.991821"
       units="mm"
       spacingx="0.74999998"
       spacingy="0.74999998" />
  </sodipodi:namedview>
  <metadata
     id="metadata292">
    <rdf:RDF>
      <cc:Work
         rdf:about="">
        <dc:format>image/svg+xml</dc:format>
        <dc:type
           rdf:resource="http://purl.org/dc/dcmitype/StillImage" />
        <dc:title />
      </cc:Work>
    </rdf:RDF>
  </metadata>
  <g
     inkscape:label="Layer 1"
     inkscape:groupmode="layer"
     id="layer1"
     transform="translate(-101.24538,-81.413293)">
    <g
       inkscape:label="Layer 1"
       id="layer1-5"
       transform="matrix(-0.03584035,0,0,-0.03584035,91.543423,90.867488)"
       style="display:inline;opacity:1">
      <ellipse
         style="display:inline;opacity:1;fill:#cf7608;fill-opacity:1;stroke:#1b1b1b;stroke-width:3.87126;stroke-linecap:round;stroke-miterlimit:4;stroke-dasharray:none;stroke-opacity:1"
         id="path856"
         cx="396.2561"
         cy="-138.22954"
         transform="scale(-1)"
         rx="123.62119"
         ry="123.62118" />
      <ellipse
         style="display:inline;opacity:1;fill:#55452a;fill-opacity:1;stroke:#ff8f00;stroke-width:5.50231;stroke-linecap:round;stroke-miterlimit:4;stroke-dasharray:none;stroke-opacity:1"
         id="path856-7"
         cx="396.2561"
         cy="-138.22954"
         transform="scale(-1)"
         rx="104.13033"
         ry="104.13034" />
      <path
         id="path856-7-9"
         style="display:inline;opacity:1;fill:#2b200b;fill-opacity:1;stroke:none;stroke-width:9.69436;stroke-linecap:round;stroke-miterlimit:4;stroke-dasharray:none;stroke-opacity:1"
         d="m -495.53401,148.49026 a 240.43466,239.69216 0 0 0 132.12576,21.37159 240.43466,239.69216 0 0 0 65.49885,-17.56466 99.6689,99.361096 0 0 0 0.37731,-26.71373 99.6689,99.361096 0 0 0 -110.99433,-86.617143 99.6689,99.361096 0 0 0 -87.00759,109.523943 z" />
      <g
         id="g6"
         transform="matrix(-0.60237358,0,0,-0.60237363,-262.37857,308.24949)"
         style="display:inline;opacity:1;fill:#ff8f00;fill-opacity:1">
        <path
           fill="#595651"
           d="m 123.3,265.8 58,-38.8 -21.1,-10.4 c 16.7,-15.8 38.6,-24.6 62,-24.6 21.5,0 42.4,7.7 58.7,21.7 16.1,13.8 26.9,32.9 30.4,53.8 L 331,264.2 C 326.8,238.7 313.6,215.4 293.9,198.5 274,181.4 248.5,172 222.3,172 c -31,0 -60,12.8 -80.9,35.3 l -22.6,-11.2 z"
           id="path2"
           style="fill:#ff8f00;fill-opacity:1" />
        <path
           fill="#595651"
           d="m 321.2,298.7 -58,38.8 21.1,10.4 c -16.7,15.8 -38.6,24.6 -62,24.6 -21.5,0 -42.4,-7.7 -58.7,-21.7 C 147.5,337 136.7,317.9 133.2,297 l -19.7,3.3 c 4.2,25.5 17.4,48.8 37.1,65.7 19.9,17.1 45.4,26.5 71.7,26.5 31,0 60,-12.8 80.9,-35.3 l 22.6,11.2 z"
           id="path4"
           style="fill:#ff8f00;fill-opacity:1" />
      </g>
    </g>
  </g>
</svg>
