<?xml version="1.0" encoding="UTF-8" standalone="no"?>
<svg
   xmlns:dc="http://purl.org/dc/elements/1.1/"
   xmlns:cc="http://creativecommons.org/ns#"
   xmlns:rdf="http://www.w3.org/1999/02/22-rdf-syntax-ns#"
   xmlns:svg="http://www.w3.org/2000/svg"
   xmlns="http://www.w3.org/2000/svg"
   xmlns:sodipodi="http://sodipodi.sourceforge.net/DTD/sodipodi-0.dtd"
   xmlns:inkscape="http://www.inkscape.org/namespaces/inkscape"
   width="60.959999mm"
   height="128.5mm"
   viewBox="0 0 60.960001 128.5"
   version="1.1"
   id="svg8"
   inkscape:version="1.0.1 (3bc2e813f5, 2020-09-07)"
   sodipodi:docname="eugene-light-panel.svg">
  <defs
     id="defs2">
    <mask
       maskUnits="userSpaceOnUse"
       id="mask1345">
      <circle
         style="fill:#666666;fill-opacity:1;stroke-width:0.0850262;stroke-miterlimit:4;stroke-dasharray:none"
         id="circle1347"
         cx="-48.166672"
         cy="-37.583336"
         r="32.085506" />
    </mask>
    <mask
       maskUnits="userSpaceOnUse"
       id="mask1345-9">
      <circle
         style="fill:#666666;fill-opacity:1;stroke-width:0.0850262;stroke-miterlimit:4;stroke-dasharray:none"
         id="circle1347-7"
         cx="-48.166672"
         cy="-37.583336"
         r="32.085506" />
    </mask>
    <mask
       maskUnits="userSpaceOnUse"
       id="mask1345-6">
      <circle
         style="fill:#666666;fill-opacity:1;stroke-width:0.0850262;stroke-miterlimit:4;stroke-dasharray:none"
         id="circle1347-8"
         cx="-48.166672"
         cy="-37.583336"
         r="32.085506" />
    </mask>
  </defs>
  <sodipodi:namedview
     id="base"
     pagecolor="#ffffff"
     bordercolor="#666666"
     borderopacity="1.0"
     inkscape:pageopacity="0.0"
     inkscape:pageshadow="2"
     inkscape:zoom="1.5490358"
     inkscape:cx="119.07361"
     inkscape:cy="242.72697"
     inkscape:document-units="mm"
     inkscape:current-layer="layer1"
     showgrid="false"
     inkscape:window-width="1920"
     inkscape:window-height="1001"
     inkscape:window-x="-9"
     inkscape:window-y="-9"
     inkscape:window-maximized="1"
     inkscape:document-rotation="0"
     inkscape:snap-bbox="true"
     inkscape:snap-page="true"
     inkscape:snap-to-guides="true"
     inkscape:bbox-paths="true"
     inkscape:bbox-nodes="true"
     inkscape:snap-bbox-edge-midpoints="true"
     inkscape:snap-bbox-midpoints="true"
     inkscape:object-paths="false"
     inkscape:snap-intersection-paths="false"
     inkscape:snap-smooth-nodes="false"
     inkscape:snap-center="true"
     inkscape:snap-object-midpoints="true"
     inkscape:snap-text-baseline="true"
     inkscape:snap-nodes="true"
     inkscape:snap-others="true"
     inkscape:snap-grids="true"
     inkscape:showpageshadow="false"
     showborder="false"
     inkscape:object-nodes="true"
     inkscape:snap-midpoints="true"
     inkscape:snap-global="true">
    <inkscape:grid
       type="xygrid"
       id="grid273"
       spacingx="0.26458334"
       spacingy="0.26458334"
       originx="30.480001"
       originy="64.250001"
       dotted="false"
       visible="true"
       enabled="true" />
  </sodipodi:namedview>
  <metadata
     id="metadata5">
    <rdf:RDF>
      <cc:Work
         rdf:about="">
        <dc:format>image/svg+xml</dc:format>
        <dc:type
           rdf:resource="http://purl.org/dc/dcmitype/StillImage" />
        <dc:title />
      </cc:Work>
    </rdf:RDF>
  </metadata>
  <g
     inkscape:label="Layer 1"
     inkscape:groupmode="layer"
     id="layer1"
     transform="translate(0,-168.5)"
     style="display:inline;opacity:1">
    <rect
       style="opacity:1;fill:#f2f2f2;fill-opacity:1;stroke:none;stroke-width:0.471147;stroke-miterlimit:4;stroke-dasharray:none;stroke-opacity:1"
       id="rect910"
       width="60.959999"
       height="128.5"
       x="0"
       y="168.5" />
    <path
       style="fill:#ededed;fill-opacity:1;stroke:#000000;stroke-width:0;stroke-linecap:butt;stroke-linejoin:miter;stroke-miterlimit:4;stroke-dasharray:none;stroke-opacity:1"
       d="M 3.7888845e-8,216.33855 60.959999,262.97153 V 297 H 3.7888845e-8 Z"
       id="path924" />
    <g
       transform="translate(4.4072759,-4.4263115)"
       aria-label="My Module"
       style="font-style:normal;font-variant:normal;font-weight:normal;font-stretch:normal;font-size:4.93889px;line-height:6.61458px;font-family:'Gotham Rounded';-inkscape-font-specification:'Gotham Rounded';font-variant-ligatures:normal;font-variant-caps:normal;font-variant-numeric:normal;font-feature-settings:normal;text-align:center;letter-spacing:0px;word-spacing:0px;writing-mode:lr-tb;text-anchor:middle;display:inline;fill:#000000;fill-opacity:1;stroke:none;stroke-width:0.264583px;stroke-linecap:butt;stroke-linejoin:miter;stroke-opacity:1"
       id="text1229">
      <flowRoot
         xml:space="preserve"
         id="flowRoot909"
         style="font-style:normal;font-weight:normal;font-size:40px;line-height:125%;font-family:sans-serif;letter-spacing:0px;word-spacing:0px;fill:#000000;fill-opacity:1;stroke:none;stroke-width:1px;stroke-linecap:butt;stroke-linejoin:miter;stroke-opacity:1"
         transform="matrix(0.26458333,0,0,0.26458333,-4.4072759,172.92631)"><flowRegion
           id="flowRegion911"><rect
             id="rect913"
             width="173.26733"
             height="52.475246"
             x="32.673267"
             y="6.46136" /></flowRegion><flowPara
           id="flowPara915">ΕὐκλείδηςΕὐκλείδηςstr</flowPara></flowRoot>
    </g>
    <g
       aria-label="Len"
       style="font-style:normal;font-variant:normal;font-weight:normal;font-stretch:normal;font-size:4.23333px;line-height:125%;font-family:'Courier New';-inkscape-font-specification:'Courier New, Normal';font-variant-ligatures:normal;font-variant-caps:normal;font-variant-numeric:normal;font-feature-settings:normal;text-align:start;letter-spacing:0px;word-spacing:0px;writing-mode:lr-tb;text-anchor:start;fill:#ffffe3;fill-opacity:1;stroke:none;stroke-width:0.264583px;stroke-linecap:butt;stroke-linejoin:miter;stroke-opacity:1"
       id="text959"
       transform="translate(-1.5205188,-11.91224)" />
    <rect
       style="display:inline;opacity:1;fill:#000000;fill-opacity:1;stroke:none;stroke-width:0.134493;stroke-miterlimit:4;stroke-dasharray:none;stroke-opacity:1"
       id="rect1106-7"
       width="32.000004"
       height="32.000004"
       x="14.48"
       y="184.13281"
       inkscape:label="display" />
    <flowRoot
       xml:space="preserve"
       id="flowRoot889"
       style="font-style:normal;font-weight:normal;font-size:40px;line-height:125%;font-family:sans-serif;letter-spacing:0px;word-spacing:0px;fill:#000000;fill-opacity:1;stroke:none;stroke-width:1px;stroke-linecap:butt;stroke-linejoin:miter;stroke-opacity:1"><flowRegion
         id="flowRegion891"><rect
           id="rect893"
           width="7.1731195"
           height="265.22571"
           x="154.5513"
           y="35.615662" /></flowRegion><flowPara
         id="flowPara895" /></flowRoot>
    <text
       xml:space="preserve"
       style="font-style:normal;font-weight:normal;font-size:10.5833px;line-height:1.25;font-family:sans-serif;fill:#000000;fill-opacity:1;stroke:none;stroke-width:0.264583"
       x="49.886944"
       y="197.55063"
       id="text139"><tspan
         sodipodi:role="line"
         id="tspan137"
         x="49.886944"
         y="197.55063"
         style="stroke-width:0.264583" /></text>
    <g
       aria-label="OUT"
       id="text91"
       style="font-style:normal;font-variant:normal;font-weight:normal;font-stretch:normal;font-size:2.82222px;line-height:1.25;font-family:Lato;-inkscape-font-specification:Lato;fill:#4d4d4d;fill-opacity:1;stroke:none;stroke-width:0.0944977">
      <path
         d="m 52.060832,185.12501 q 0,0.22718 -0.07197,0.41768 -0.07197,0.18909 -0.2032,0.32597 -0.131233,0.13688 -0.316089,0.21308 -0.183444,0.0748 -0.406399,0.0748 -0.222956,0 -0.4064,-0.0748 -0.183444,-0.0762 -0.314678,-0.21308 -0.131233,-0.13688 -0.203199,-0.32597 -0.07197,-0.1905 -0.07197,-0.41768 0,-0.22719 0.07197,-0.41628 0.07197,-0.1905 0.203199,-0.32738 0.131234,-0.13829 0.314678,-0.21449 0.183444,-0.0762 0.4064,-0.0762 0.222955,0 0.406399,0.0762 0.184856,0.0762 0.316089,0.21449 0.131233,0.13688 0.2032,0.32738 0.07197,0.18909 0.07197,0.41628 z m -0.280811,0 q 0,-0.18627 -0.0508,-0.33444 -0.0508,-0.14816 -0.143934,-0.24976 -0.09313,-0.10301 -0.225777,-0.15805 -0.132645,-0.055 -0.296333,-0.055 -0.162278,0 -0.294922,0.055 -0.132645,0.055 -0.227189,0.15805 -0.09313,0.1016 -0.143933,0.24976 -0.0508,0.14817 -0.0508,0.33444 0,0.18626 0.0508,0.33443 0.0508,0.14675 0.143933,0.24977 0.09454,0.1016 0.227189,0.15663 0.132644,0.0536 0.294922,0.0536 0.163688,0 0.296333,-0.0536 0.132644,-0.055 0.225777,-0.15663 0.09313,-0.10302 0.143934,-0.24977 0.0508,-0.14817 0.0508,-0.33443 z"
         style="font-style:normal;font-variant:normal;font-weight:normal;font-stretch:normal;font-size:2.82222px;font-family:Lato;-inkscape-font-specification:Lato;fill:#4d4d4d;stroke-width:0.0944977"
         id="path891" />
      <path
         d="m 53.22076,185.91805 q 0.125588,0 0.224366,-0.0423 0.09878,-0.0423 0.166511,-0.11854 0.06914,-0.0762 0.104422,-0.18203 0.03669,-0.10583 0.03669,-0.23283 v -1.22908 h 0.272344 v 1.22908 q 0,0.17497 -0.05644,0.32455 -0.05503,0.14958 -0.159456,0.25965 -0.103011,0.10865 -0.252588,0.17074 -0.149578,0.0621 -0.335844,0.0621 -0.186267,0 -0.335845,-0.0621 -0.149577,-0.0621 -0.253999,-0.17074 -0.104423,-0.11007 -0.160867,-0.25965 -0.05503,-0.14958 -0.05503,-0.32455 v -1.22908 h 0.272344 v 1.22767 q 0,0.127 0.03528,0.23283 0.03669,0.10583 0.104422,0.18203 0.06914,0.0762 0.167922,0.11995 0.100189,0.0423 0.225778,0.0423 z"
         style="font-style:normal;font-variant:normal;font-weight:normal;font-stretch:normal;font-size:2.82222px;font-family:Lato;-inkscape-font-specification:Lato;fill:#4d4d4d;stroke-width:0.0944977"
         id="path893" />
      <path
         d="m 55.872234,184.11324 v 0.23001 H 55.21889 v 1.79211 h -0.273755 v -1.79211 h -0.656167 v -0.23001 z"
         style="font-style:normal;font-variant:normal;font-weight:normal;font-stretch:normal;font-size:2.82222px;font-family:Lato;-inkscape-font-specification:Lato;fill:#4d4d4d;stroke-width:0.0944977"
         id="path895" />
    </g>
    <g
       aria-label="CLK"
       id="text91-3-4"
       style="font-style:normal;font-variant:normal;font-weight:normal;font-stretch:normal;font-size:2.82222px;line-height:1.25;font-family:Azonix;-inkscape-font-specification:Azonix;display:inline;opacity:1;fill:#4d4d4d;fill-opacity:1;stroke:none;stroke-width:0.0944978">
      <path
         d="m 6.9617189,185.71837 q 0.022578,0 0.040922,0.0183 l 0.1072443,0.11712 q -0.1241776,0.14393 -0.3019775,0.22437 -0.1763888,0.0804 -0.4261552,0.0804 -0.2187221,0 -0.396522,-0.0748 -0.1777998,-0.0762 -0.3033886,-0.21166 -0.1255888,-0.13688 -0.1947332,-0.32738 -0.069144,-0.1905 -0.069144,-0.4191 0,-0.2286 0.073378,-0.4191 0.074789,-0.1905 0.2088443,-0.32738 0.1340555,-0.13688 0.320322,-0.21167 0.1876776,-0.0762 0.4134552,-0.0762 0.2229554,0 0.383822,0.0691 0.1622776,0.0691 0.2878664,0.18768 l -0.0889,0.12558 q -0.00988,0.0141 -0.022578,0.024 -0.0127,0.008 -0.036689,0.008 -0.018345,0 -0.039511,-0.0127 -0.019756,-0.0141 -0.047978,-0.0339 -0.028222,-0.0198 -0.066322,-0.0423 -0.0381,-0.0226 -0.090311,-0.0423 -0.052211,-0.0198 -0.1213554,-0.0325 -0.069144,-0.0141 -0.1594555,-0.0141 -0.1622776,0 -0.2977442,0.0565 -0.1340554,0.055 -0.231422,0.15804 -0.097367,0.10301 -0.1523999,0.25118 -0.053622,0.14816 -0.053622,0.33161 0,0.18909 0.053622,0.33725 0.055033,0.14817 0.1481665,0.25118 0.094544,0.1016 0.2229554,0.15522 0.128411,0.0536 0.2765776,0.0536 0.090311,0 0.1622776,-0.01 0.071967,-0.0113 0.1326444,-0.0339 0.062089,-0.0226 0.1142999,-0.0564 0.053622,-0.0353 0.1072444,-0.0833 0.023989,-0.0212 0.046567,-0.0212 z"
         style="font-style:normal;font-variant:normal;font-weight:normal;font-stretch:normal;font-size:2.82222px;font-family:Lato;-inkscape-font-specification:Lato;fill:#4d4d4d;stroke-width:0.0944978"
         id="path898" />
      <path
         d="m 7.7434723,185.90605 h 0.8748882 v 0.23001 H 7.4697169 v -2.02212 h 0.2737554 z"
         style="font-style:normal;font-variant:normal;font-weight:normal;font-stretch:normal;font-size:2.82222px;font-family:Lato;-inkscape-font-specification:Lato;fill:#4d4d4d;stroke-width:0.0944978"
         id="path900" />
      <path
         d="m 9.2209043,185.00012 h 0.103011 q 0.053622,0 0.084667,-0.0127 0.032456,-0.0141 0.060678,-0.0466 l 0.6730997,-0.762 q 0.03104,-0.0353 0.05927,-0.0494 0.02963,-0.0155 0.07479,-0.0155 h 0.232833 l -0.7704666,0.87066 q -0.029633,0.0325 -0.056444,0.055 -0.0254,0.0226 -0.055033,0.0367 0.039511,0.0127 0.069144,0.0381 0.029633,0.0254 0.062089,0.0635 l 0.8043326,0.95814 h -0.237067 q -0.02681,0 -0.04516,-0.004 -0.01835,-0.004 -0.03246,-0.0113 -0.0127,-0.007 -0.02399,-0.0183 -0.01129,-0.0113 -0.02258,-0.024 L 9.5031185,185.2755 q -0.015522,-0.0169 -0.029633,-0.0282 -0.0127,-0.0127 -0.031044,-0.0212 -0.016933,-0.008 -0.040922,-0.0113 -0.022578,-0.004 -0.056444,-0.004 H 9.2209043 v 0.92569 H 8.94856 v -2.02212 h 0.2723443 z"
         style="font-style:normal;font-variant:normal;font-weight:normal;font-stretch:normal;font-size:2.82222px;font-family:Lato;-inkscape-font-specification:Lato;fill:#4d4d4d;stroke-width:0.0944978"
         id="path902" />
    </g>
    <g
       aria-label="SYNC"
       id="text91-3-4-5"
       style="font-style:normal;font-weight:normal;font-size:2.82222px;line-height:1.25;font-family:sans-serif;display:inline;opacity:1;fill:#4d4d4d;fill-opacity:1;stroke:none;stroke-width:0.0944978">
      <path
         d="m 5.8461915,202.50345 q 0,0.11988 -0.0565,0.23702 -0.055121,0.11713 -0.1557182,0.19844 -0.110243,0.0882 -0.257693,0.1378 -0.1460719,0.0496 -0.3527775,0.0496 -0.221864,0 -0.3996307,-0.0413 -0.1763888,-0.0413 -0.3596677,-0.12265 v -0.34175 h 0.019292 q 0.1557182,0.12953 0.3596677,0.19981 0.2039495,0.0703 0.3830943,0.0703 0.2535588,0 0.3941186,-0.0951 0.1419379,-0.0951 0.1419379,-0.25356 0,-0.13643 -0.067524,-0.20119 -0.066146,-0.0648 -0.2025714,-0.1006 -0.1033528,-0.0276 -0.2246201,-0.0455 -0.1198892,-0.0179 -0.2549369,-0.0455 -0.2728513,-0.0579 -0.4051429,-0.19706 -0.1309135,-0.14056 -0.1309135,-0.36518 0,-0.25769 0.2177299,-0.42168 0.2177298,-0.16536 0.5525929,-0.16536 0.2163518,0 0.3968747,0.0413 0.1805228,0.0413 0.3197046,0.10197 v 0.32246 h -0.019292 q -0.1171332,-0.0992 -0.3086804,-0.16398 -0.1901691,-0.0661 -0.3899845,-0.0661 -0.2191079,0 -0.3527775,0.091 -0.1322916,0.0909 -0.1322916,0.23427 0,0.12816 0.066146,0.20119 0.066146,0.073 0.2328883,0.11162 0.088194,0.0193 0.2508028,0.0469 0.1626084,0.0276 0.2756074,0.0565 0.2287542,0.0606 0.3445093,0.18327 0.1157551,0.12265 0.1157551,0.34314 z"
         style="font-size:2.82222px;fill:#4d4d4d;stroke-width:0.0944978"
         id="path905" />
      <path
         d="m 7.7368585,201.03721 -0.7220915,1.15204 v 0.89986 H 6.7419157 v -0.87092 l -0.7248476,-1.18098 h 0.3017902 l 0.5608611,0.91778 0.5663733,-0.91778 z"
         style="font-size:2.82222px;fill:#4d4d4d;stroke-width:0.0944978"
         id="path907" />
      <path
         d="M 9.5861844,203.08911 H 9.2485653 L 8.275671,201.25357 v 1.83554 H 8.0207342 v -2.0519 h 0.4230574 l 0.8874559,1.6757 v -1.6757 h 0.2549369 z"
         style="font-size:2.82222px;fill:#4d4d4d;stroke-width:0.0944978"
         id="path909" />
      <path
         d="m 11.71663,202.94028 q -0.07579,0.0331 -0.137804,0.062 -0.06063,0.0289 -0.159852,0.0606 -0.08406,0.0262 -0.183279,0.0441 -0.09784,0.0193 -0.216352,0.0193 -0.223242,0 -0.406521,-0.062 -0.181901,-0.0634 -0.316949,-0.19706 -0.132291,-0.13092 -0.206705,-0.33211 -0.07441,-0.20257 -0.07441,-0.46991 0,-0.25356 0.07166,-0.45337 0.07166,-0.19982 0.206705,-0.33762 0.130914,-0.13367 0.315571,-0.20395 0.186035,-0.0703 0.412033,-0.0703 0.165364,0 0.329351,0.04 0.165364,0.04 0.366558,0.14056 v 0.32384 h -0.02067 q -0.169499,-0.14194 -0.336241,-0.20671 -0.166743,-0.0648 -0.356912,-0.0648 -0.155718,0 -0.281119,0.051 -0.124024,0.0496 -0.221864,0.15572 -0.09508,0.10335 -0.148828,0.26183 -0.05237,0.15709 -0.05237,0.3638 0,0.21635 0.05788,0.37207 0.05926,0.15572 0.151584,0.25356 0.09646,0.10197 0.22462,0.15158 0.129535,0.0482 0.272851,0.0482 0.19706,0 0.369314,-0.0675 0.172255,-0.0675 0.322461,-0.20257 h 0.01929 z"
         style="font-size:2.82222px;fill:#4d4d4d;stroke-width:0.0944978"
         id="path911" />
    </g>
    <g
       aria-label="SHIFT"
       id="text91-3-3"
       style="font-style:normal;font-variant:normal;font-weight:normal;font-stretch:normal;font-size:2.82222px;line-height:1.25;font-family:lato;-inkscape-font-specification:lato;display:inline;opacity:1;fill:#4d4d4d;fill-opacity:1;stroke:none;stroke-width:0.0944978">
      <path
         d="m 46.383232,222.79461 q -0.0127,0.0212 -0.02681,0.0324 -0.01411,0.01 -0.03669,0.01 -0.02399,0 -0.05644,-0.024 -0.03105,-0.024 -0.08043,-0.0522 -0.04798,-0.0296 -0.117122,-0.0536 -0.06773,-0.024 -0.1651,-0.024 -0.09172,0 -0.162277,0.0254 -0.07056,0.024 -0.118534,0.0663 -0.04657,0.0423 -0.07055,0.10019 -0.02399,0.0564 -0.02399,0.12277 0,0.0847 0.04092,0.14111 0.04233,0.055 0.110067,0.0945 0.06914,0.0395 0.155222,0.0691 0.08749,0.0282 0.1778,0.0593 0.09172,0.031 0.1778,0.0705 0.08749,0.0381 0.155222,0.0974 0.06914,0.0593 0.110066,0.14534 0.04233,0.0861 0.04233,0.21167 0,0.13264 -0.04516,0.24976 -0.04516,0.11572 -0.132644,0.20179 -0.08608,0.0861 -0.213078,0.13547 -0.125589,0.0494 -0.286455,0.0494 -0.196145,0 -0.358422,-0.0706 -0.160867,-0.072 -0.275167,-0.19332 l 0.07902,-0.12982 q 0.01129,-0.0155 0.02681,-0.0254 0.01693,-0.0113 0.03669,-0.0113 0.02963,0 0.06773,0.0325 0.0381,0.031 0.09454,0.0691 0.05786,0.0381 0.138289,0.0706 0.08184,0.031 0.198966,0.031 0.09737,0 0.173567,-0.0268 0.0762,-0.0268 0.128411,-0.0748 0.05362,-0.0494 0.08184,-0.11712 0.02822,-0.0677 0.02822,-0.15099 0,-0.0917 -0.04233,-0.14958 -0.04092,-0.0593 -0.108655,-0.0988 -0.06773,-0.0395 -0.155222,-0.0663 -0.08608,-0.0282 -0.1778,-0.0564 -0.09031,-0.0296 -0.1778,-0.0677 -0.08608,-0.0381 -0.153811,-0.0988 -0.06773,-0.0607 -0.110067,-0.15099 -0.04092,-0.0917 -0.04092,-0.22578 0,-0.10724 0.04092,-0.20743 0.04233,-0.10019 0.121356,-0.1778 0.07902,-0.0776 0.194733,-0.12418 0.117122,-0.0466 0.268111,-0.0466 0.169333,0 0.309033,0.0536 0.1397,0.0536 0.244122,0.15523 z"
         style="font-style:normal;font-variant:normal;font-weight:normal;font-stretch:normal;font-size:2.82222px;font-family:lato;-inkscape-font-specification:lato;fill:#4d4d4d;stroke-width:0.0944978"
         id="path923" />
      <path
         d="m 48.48296,224.50064 h -0.275166 v -0.92004 h -1.089377 v 0.92004 H 46.84325 v -2.02212 h 0.275167 v 0.9017 h 1.089377 v -0.9017 h 0.275166 z"
         style="font-style:normal;font-variant:normal;font-weight:normal;font-stretch:normal;font-size:2.82222px;font-family:lato;-inkscape-font-specification:lato;fill:#4d4d4d;stroke-width:0.0944978"
         id="path925" />
      <path
         d="m 49.3014,224.50064 h -0.273755 v -2.02212 H 49.3014 Z"
         style="font-style:normal;font-variant:normal;font-weight:normal;font-stretch:normal;font-size:2.82222px;font-family:lato;-inkscape-font-specification:lato;fill:#4d4d4d;stroke-width:0.0944978"
         id="path927" />
      <path
         d="m 51.089274,222.47852 v 0.22296 h -0.970843 v 0.70696 h 0.829732 v 0.22296 h -0.829732 v 0.86924 h -0.275167 v -2.02212 z"
         style="font-style:normal;font-variant:normal;font-weight:normal;font-stretch:normal;font-size:2.82222px;font-family:lato;-inkscape-font-specification:lato;fill:#4d4d4d;stroke-width:0.0944978"
         id="path929" />
      <path
         d="m 52.817884,222.47852 v 0.23001 H 52.16454 v 1.79211 h -0.273755 v -1.79211 h -0.656166 v -0.23001 z"
         style="font-style:normal;font-variant:normal;font-weight:normal;font-stretch:normal;font-size:2.82222px;font-family:lato;-inkscape-font-specification:lato;fill:#4d4d4d;stroke-width:0.0944978"
         id="path931" />
    </g>
    <g
       aria-label="HIT"
       id="text91-3-3-0"
       style="font-style:normal;font-variant:normal;font-weight:normal;font-stretch:normal;font-size:2.82222px;line-height:1.25;font-family:lato;-inkscape-font-specification:lato;display:inline;opacity:1;fill:#4d4d4d;fill-opacity:1;stroke:none;stroke-width:0.0944978">
      <path
         d="m 29.931082,224.50064 h -0.275166 v -0.92004 h -1.089377 v 0.92004 h -0.275167 v -2.02212 h 0.275167 v 0.9017 h 1.089377 v -0.9017 h 0.275166 z"
         style="font-style:normal;font-variant:normal;font-weight:normal;font-stretch:normal;font-size:2.82222px;font-family:lato;-inkscape-font-specification:lato;fill:#4d4d4d;stroke-width:0.0944978"
         id="path934" />
      <path
         d="m 30.749522,224.50064 h -0.273755 v -2.02212 h 0.273755 z"
         style="font-style:normal;font-variant:normal;font-weight:normal;font-stretch:normal;font-size:2.82222px;font-family:lato;-inkscape-font-specification:lato;fill:#4d4d4d;stroke-width:0.0944978"
         id="path936" />
      <path
         d="m 32.66863,222.47852 v 0.23001 h -0.653344 v 1.79211 H 31.74153 v -1.79211 h -0.656166 v -0.23001 z"
         style="font-style:normal;font-variant:normal;font-weight:normal;font-stretch:normal;font-size:2.82222px;font-family:lato;-inkscape-font-specification:lato;fill:#4d4d4d;stroke-width:0.0944978"
         id="path938" />
    </g>
    <g
       aria-label="LENGTH"
       id="text91-3-3-0-3"
       style="font-style:normal;font-variant:normal;font-weight:normal;font-stretch:normal;font-size:2.82222px;line-height:1.25;font-family:lato;-inkscape-font-specification:lato;display:inline;opacity:1;fill:#4d4d4d;fill-opacity:1;stroke:none;stroke-width:0.0944978">
      <path
         d="M 5.6098828,224.27063 H 6.484771 v 0.23001 H 5.3361274 v -2.02212 h 0.2737554 z"
         style="font-style:normal;font-variant:normal;font-weight:normal;font-stretch:normal;font-size:2.82222px;font-family:lato;-inkscape-font-specification:lato;fill:#4d4d4d;stroke-width:0.0944978"
         id="path941" />
      <path
         d="m 8.0327586,222.47852 v 0.22296 H 7.0619149 v 0.67168 h 0.7859883 v 0.21449 H 7.0619149 v 0.69004 h 0.9708437 v 0.22295 H 6.7867484 v -2.02212 z"
         style="font-style:normal;font-variant:normal;font-weight:normal;font-stretch:normal;font-size:2.82222px;font-family:lato;-inkscape-font-specification:lato;fill:#4d4d4d;stroke-width:0.0944978"
         id="path943" />
      <path
         d="m 8.5675676,222.47852 q 0.036689,0 0.053622,0.01 0.018344,0.008 0.040922,0.0367 l 1.1712213,1.524 q -0.00423,-0.0367 -0.00564,-0.0706 -0.00141,-0.0353 -0.00141,-0.0677 v -1.43228 h 0.2398881 v 2.02212 H 9.9278777 q -0.032455,0 -0.055033,-0.0113 -0.021167,-0.0113 -0.042333,-0.0381 l -1.1698102,-1.52259 q 0.00282,0.0353 0.00423,0.0691 0.00141,0.0339 0.00141,0.0621 v 1.44074 H 8.4264566 v -2.02212 h 0.141111 z"
         style="font-style:normal;font-variant:normal;font-weight:normal;font-stretch:normal;font-size:2.82222px;font-family:lato;-inkscape-font-specification:lato;fill:#4d4d4d;stroke-width:0.0944978"
         id="path945" />
      <path
         d="m 11.46175,224.30167 q 0.08184,0 0.149578,-0.007 0.06914,-0.008 0.129822,-0.024 0.06068,-0.0155 0.1143,-0.0367 0.05362,-0.0226 0.107245,-0.0508 v -0.44591 h -0.313267 q -0.02681,0 -0.04374,-0.0155 -0.01552,-0.0155 -0.01552,-0.0381 v -0.15522 h 0.620889 v 0.77611 q -0.0762,0.055 -0.159456,0.096 -0.08184,0.0409 -0.176388,0.0692 -0.09313,0.0268 -0.200378,0.0395 -0.107244,0.0141 -0.232833,0.0141 -0.220133,0 -0.403578,-0.0748 -0.183444,-0.0762 -0.316088,-0.21167 -0.132645,-0.13687 -0.207433,-0.32737 -0.07338,-0.1905 -0.07338,-0.4191 0,-0.23143 0.07197,-0.42193 0.07338,-0.1905 0.207434,-0.32596 0.135466,-0.13688 0.325966,-0.21167 0.191911,-0.0748 0.428978,-0.0748 0.119944,0 0.222955,0.0183 0.103011,0.0169 0.1905,0.0508 0.0889,0.0324 0.163689,0.0804 0.07479,0.0466 0.139699,0.10583 l -0.07761,0.12418 q -0.02399,0.0381 -0.06209,0.0381 -0.02258,0 -0.04939,-0.0155 -0.03528,-0.0198 -0.07902,-0.048 -0.04374,-0.0282 -0.107245,-0.0536 -0.06209,-0.0268 -0.148166,-0.0452 -0.08467,-0.0183 -0.201789,-0.0183 -0.170744,0 -0.309033,0.0564 -0.138289,0.055 -0.235656,0.15946 -0.09737,0.10301 -0.149577,0.25118 -0.05221,0.14675 -0.05221,0.3302 0,0.19191 0.05362,0.3429 0.05503,0.14957 0.153811,0.254 0.09878,0.10442 0.234244,0.15945 0.135467,0.055 0.299155,0.055 z"
         style="font-style:normal;font-variant:normal;font-weight:normal;font-stretch:normal;font-size:2.82222px;font-family:lato;-inkscape-font-specification:lato;fill:#4d4d4d;stroke-width:0.0944978"
         id="path947" />
      <path
         d="m 14.008802,222.47852 v 0.23001 h -0.653344 v 1.79211 h -0.273755 v -1.79211 h -0.656166 v -0.23001 z"
         style="font-style:normal;font-variant:normal;font-weight:normal;font-stretch:normal;font-size:2.82222px;font-family:lato;-inkscape-font-specification:lato;fill:#4d4d4d;stroke-width:0.0944978"
         id="path949" />
      <path
         d="M 15.936373,224.50064 H 15.661207 V 223.5806 H 14.57183 v 0.92004 h -0.275167 v -2.02212 h 0.275167 v 0.9017 h 1.089377 v -0.9017 h 0.275166 z"
         style="font-style:normal;font-variant:normal;font-weight:normal;font-stretch:normal;font-size:2.82222px;font-family:lato;-inkscape-font-specification:lato;fill:#4d4d4d;stroke-width:0.0944978"
         id="path951" />
    </g>
    <g
       aria-label="CV"
       id="text91-3-3-1"
       style="font-style:normal;font-variant:normal;font-weight:normal;font-stretch:normal;font-size:2.82222px;line-height:1.25;font-family:lato;-inkscape-font-specification:lato;display:inline;opacity:1;fill:#4d4d4d;fill-opacity:1;stroke:none;stroke-width:0.0944978">
      <path
         d="m 30.099646,244.23177 q 0.02258,0 0.04092,0.0183 l 0.107244,0.11712 q -0.124178,0.14393 -0.301978,0.22436 -0.176388,0.0804 -0.426155,0.0804 -0.218722,0 -0.396522,-0.0748 -0.1778,-0.0762 -0.303388,-0.21167 -0.125589,-0.13688 -0.194734,-0.32738 -0.06914,-0.1905 -0.06914,-0.41909 0,-0.2286 0.07338,-0.4191 0.07479,-0.1905 0.208844,-0.32738 0.134056,-0.13688 0.320322,-0.21167 0.187678,-0.0762 0.413455,-0.0762 0.222956,0 0.383822,0.0692 0.162278,0.0691 0.287867,0.18767 l -0.0889,0.12559 q -0.0099,0.0141 -0.02258,0.024 -0.0127,0.008 -0.03669,0.008 -0.01834,0 -0.03951,-0.0127 -0.01976,-0.0141 -0.04798,-0.0339 -0.02822,-0.0198 -0.06632,-0.0423 -0.0381,-0.0226 -0.09031,-0.0423 -0.05221,-0.0197 -0.121355,-0.0324 -0.06914,-0.0141 -0.159456,-0.0141 -0.162277,0 -0.297744,0.0564 -0.134056,0.055 -0.231422,0.15805 -0.09737,0.10301 -0.1524,0.25117 -0.05362,0.14817 -0.05362,0.33162 0,0.18908 0.05362,0.33725 0.05503,0.14817 0.148167,0.25118 0.09454,0.1016 0.222955,0.15522 0.128411,0.0536 0.276578,0.0536 0.09031,0 0.162277,-0.01 0.07197,-0.0113 0.132645,-0.0339 0.06209,-0.0226 0.114299,-0.0565 0.05362,-0.0353 0.107245,-0.0832 0.02399,-0.0212 0.04657,-0.0212 z"
         style="font-style:normal;font-variant:normal;font-weight:normal;font-stretch:normal;font-size:2.82222px;font-family:lato;-inkscape-font-specification:lato;fill:#4d4d4d;stroke-width:0.0944978"
         id="path954" />
      <path
         d="m 30.3734,242.62734 h 0.218722 q 0.03669,0 0.05927,0.0183 0.02258,0.0183 0.03387,0.0466 l 0.571499,1.42663 q 0.01976,0.048 0.03528,0.10442 0.01693,0.0565 0.03245,0.11713 0.0127,-0.0607 0.02681,-0.11713 0.01552,-0.0564 0.03528,-0.10442 l 0.568678,-1.42663 q 0.0099,-0.024 0.03387,-0.0437 0.02399,-0.0212 0.05927,-0.0212 h 0.220133 l -0.824088,2.02212 h -0.246945 z"
         style="font-style:normal;font-variant:normal;font-weight:normal;font-stretch:normal;font-size:2.82222px;font-family:lato;-inkscape-font-specification:lato;fill:#4d4d4d;stroke-width:0.0944978"
         id="path956" />
    </g>
    <g
       aria-label="INV"
       id="text91-3-3-1-2"
       style="font-style:normal;font-variant:normal;font-weight:normal;font-stretch:normal;font-size:2.82222px;line-height:1.25;font-family:lato;-inkscape-font-specification:lato;display:inline;opacity:1;fill:#4d4d4d;fill-opacity:1;stroke:none;stroke-width:0.0944978"
       transform="translate(0,1.0583333)">
      <path
         d="m 49.615377,289.32358 h -0.273756 v -2.02212 h 0.273756 z"
         style="font-style:normal;font-variant:normal;font-weight:normal;font-stretch:normal;font-size:2.82222px;font-family:lato;-inkscape-font-specification:lato;fill:#4d4d4d;stroke-width:0.0944978"
         id="path959" />
      <path
         d="m 50.298352,287.30146 q 0.03669,0 0.05362,0.01 0.01834,0.008 0.04092,0.0367 l 1.171221,1.524 q -0.0042,-0.0367 -0.0056,-0.0706 -0.0014,-0.0353 -0.0014,-0.0677 v -1.43227 h 0.239888 v 2.02212 h -0.138288 q -0.03246,0 -0.05503,-0.0113 -0.02117,-0.0113 -0.04233,-0.0381 l -1.16981,-1.52259 q 0.0028,0.0353 0.0042,0.0691 0.0014,0.0339 0.0014,0.0621 v 1.44075 h -0.239888 v -2.02212 h 0.141111 z"
         style="font-style:normal;font-variant:normal;font-weight:normal;font-stretch:normal;font-size:2.82222px;font-family:lato;-inkscape-font-specification:lato;fill:#4d4d4d;stroke-width:0.0944978"
         id="path961" />
      <path
         d="m 52.056591,287.30146 h 0.218722 q 0.03669,0 0.05927,0.0183 0.02258,0.0183 0.03387,0.0466 l 0.5715,1.42663 q 0.01976,0.048 0.03528,0.10442 0.01693,0.0564 0.03246,0.11712 0.0127,-0.0607 0.02681,-0.11712 0.01552,-0.0564 0.03528,-0.10442 l 0.568677,-1.42663 q 0.0099,-0.024 0.03387,-0.0438 0.02399,-0.0212 0.05927,-0.0212 h 0.220134 l -0.824089,2.02212 h -0.246944 z"
         style="font-style:normal;font-variant:normal;font-weight:normal;font-stretch:normal;font-size:2.82222px;font-family:lato;-inkscape-font-specification:lato;fill:#4d4d4d;stroke-width:0.0944978"
         id="path963" />
    </g>
    <g
       aria-label="REV"
       id="text91-3-3-1-2-1"
       style="font-style:normal;font-variant:normal;font-weight:normal;font-stretch:normal;font-size:2.82222px;line-height:1.25;font-family:lato;-inkscape-font-specification:lato;display:inline;opacity:1;fill:#4d4d4d;fill-opacity:1;stroke:none;stroke-width:0.0944978"
       transform="translate(0,1.0583333)">
      <path
         d="m 7.0407433,288.47973 v 0.84385 H 6.768399 v -2.02212 h 0.5714996 q 0.191911,0 0.3316109,0.0395 0.1396999,0.0381 0.2300109,0.11148 0.091722,0.0734 0.1354666,0.1778 0.043744,0.10301 0.043744,0.23142 0,0.10724 -0.033867,0.20038 -0.033867,0.0931 -0.098778,0.16792 -0.0635,0.0734 -0.1566332,0.12559 -0.091722,0.0522 -0.2088443,0.079 0.0508,0.0296 0.090311,0.0861 l 0.589844,0.80292 h -0.242711 q -0.074789,0 -0.1100665,-0.0579 l -0.524933,-0.72249 q -0.023989,-0.0339 -0.052211,-0.048 -0.028222,-0.0155 -0.084667,-0.0155 z m 0,-0.19896 h 0.2864553 q 0.1199444,0 0.2102554,-0.0282 0.091722,-0.0296 0.1523999,-0.0818 0.062089,-0.0536 0.093133,-0.127 0.031044,-0.0734 0.031044,-0.16228 0,-0.18062 -0.1199444,-0.27234 -0.1185332,-0.0917 -0.3541886,-0.0917 H 7.0407433 Z"
         style="font-style:normal;font-variant:normal;font-weight:normal;font-stretch:normal;font-size:2.82222px;font-family:lato;-inkscape-font-specification:lato;fill:#4d4d4d;stroke-width:0.0944978"
         id="path966" />
      <path
         d="m 9.8036942,287.30146 v 0.22295 H 8.8328504 v 0.67169 h 0.7859883 v 0.21449 H 8.8328504 v 0.69003 h 0.9708438 v 0.22296 H 8.557684 v -2.02212 z"
         style="font-style:normal;font-variant:normal;font-weight:normal;font-stretch:normal;font-size:2.82222px;font-family:lato;-inkscape-font-specification:lato;fill:#4d4d4d;stroke-width:0.0944978"
         id="path968" />
      <path
         d="M 9.9631479,287.30146 H 10.18187 q 0.03669,0 0.05927,0.0183 0.02258,0.0183 0.03387,0.0466 l 0.5715,1.42663 q 0.01975,0.048 0.03528,0.10442 0.01693,0.0564 0.03246,0.11712 0.0127,-0.0607 0.02681,-0.11712 0.01552,-0.0564 0.03528,-0.10442 l 0.568677,-1.42663 q 0.0099,-0.024 0.03387,-0.0438 0.02399,-0.0212 0.05927,-0.0212 h 0.220134 l -0.824089,2.02212 h -0.246944 z"
         style="font-style:normal;font-variant:normal;font-weight:normal;font-stretch:normal;font-size:2.82222px;font-family:lato;-inkscape-font-specification:lato;fill:#4d4d4d;stroke-width:0.0944978"
         id="path970" />
    </g>
  </g>
  <g
     inkscape:groupmode="layer"
     id="layer2"
     inkscape:label="components"
     style="display:none;opacity:0.794788"
     sodipodi:insensitive="true">
    <circle
       style="fill:#ff0000;fill-opacity:1;stroke:none;stroke-width:0.302023;stroke-miterlimit:4;stroke-dasharray:none;stroke-opacity:1"
       id="path1082"
       cx="10.63625"
       cy="64.919472"
       r="7.2680302"
       inkscape:label="length_knob" />
    <circle
       style="fill:#ff0000;fill-opacity:1;stroke:none;stroke-width:0.318144;stroke-miterlimit:4;stroke-dasharray:none;stroke-opacity:1"
       id="path1082-3"
       cx="30.480001"
       cy="64.919472"
       r="7.2680302"
       inkscape:label="hits_knob" />
    <ellipse
       style="fill:#ff0000;fill-opacity:1;stroke:none;stroke-width:0.256649;stroke-miterlimit:4;stroke-dasharray:none;stroke-opacity:1"
       id="path1082-2"
       cx="9.3133335"
       cy="111.61043"
       inkscape:label="reverse_knob"
       rx="5.4667501"
       ry="5.6418333" />
    <ellipse
       style="fill:#ff0000;fill-opacity:1;stroke:none;stroke-width:0.209244;stroke-miterlimit:4;stroke-dasharray:none;stroke-opacity:1"
       id="path1082-7"
       cx="51.62825"
       cy="111.61043"
       inkscape:label="invert_knob"
       rx="5.3100858"
       ry="5.3285041" />
    <circle
       style="fill:#00ff00;fill-opacity:1;stroke:none;stroke-width:0.212039;stroke-miterlimit:4;stroke-dasharray:none;stroke-opacity:1"
       id="path1082-1"
       cx="14.340418"
       cy="97.322922"
       r="4.8440595"
       inkscape:label="length_cv" />
    <circle
       style="fill:#00ff00;fill-opacity:1;stroke:none;stroke-width:0.206667;stroke-miterlimit:4;stroke-dasharray:none;stroke-opacity:1"
       id="path1082-3-0"
       cx="30.480001"
       cy="97.322922"
       r="4.8440614"
       inkscape:label="hits_cv" />
    <circle
       style="fill:#00ff00;fill-opacity:1;stroke:none;stroke-width:0.201295;stroke-miterlimit:4;stroke-dasharray:none;stroke-opacity:1"
       id="path1082-2-0"
       cx="21.219584"
       cy="111.61043"
       r="4.8440623"
       inkscape:label="reverse_cv" />
    <circle
       style="fill:#00ff00;fill-opacity:1;stroke:none;stroke-width:0.206667;stroke-miterlimit:4;stroke-dasharray:none;stroke-opacity:1"
       id="path1082-7-9"
       cx="39.740417"
       cy="111.61043"
       r="4.8440623"
       inkscape:label="invert_cv" />
    <circle
       style="fill:#0000ff;fill-opacity:1;stroke:none;stroke-width:0.212039;stroke-miterlimit:4;stroke-dasharray:none;stroke-opacity:1"
       id="path1082-1-4"
       cx="52.969585"
       cy="23.239584"
       r="4.8440628"
       inkscape:label="beat" />
    <circle
       style="display:inline;opacity:0.94;fill:#00ff00;fill-opacity:1;stroke:none;stroke-width:0.212039;stroke-miterlimit:4;stroke-dasharray:none;stroke-opacity:1"
       id="path1082-1-6"
       cx="7.990417"
       cy="23.239584"
       r="4.8440604"
       inkscape:label="clock" />
    <circle
       style="display:inline;opacity:0.94;fill:#00ff00;fill-opacity:1;stroke:none;stroke-width:0.212039;stroke-miterlimit:4;stroke-dasharray:none;stroke-opacity:1"
       id="path1082-1-6-7"
       cx="7.990417"
       cy="40.437496"
       r="4.8440619"
       inkscape:label="sync" />
    <circle
       style="display:inline;opacity:0.94;fill:#ff0000;fill-opacity:1;stroke:none;stroke-width:0.302023;stroke-miterlimit:4;stroke-dasharray:none;stroke-opacity:1"
       id="path1082-6"
       cx="49.000835"
       cy="64.919472"
       r="7.2680302"
       inkscape:label="shift_knob" />
    <circle
       style="display:inline;opacity:0.94;fill:#00ff00;fill-opacity:1;stroke:none;stroke-width:0.201295;stroke-miterlimit:4;stroke-dasharray:none;stroke-opacity:1"
       id="path1082-2-0-0"
       cx="46.619587"
       cy="97.322922"
       r="4.8440595"
       inkscape:label="shift_cv" />
    <circle
       style="display:inline;opacity:0.94;fill:#ff0000;fill-opacity:1;stroke:none;stroke-width:0.23441;stroke-miterlimit:4;stroke-dasharray:none;stroke-opacity:1"
       id="path1082-79"
       cx="14.340418"
       cy="83.300003"
       r="5.6409655"
       inkscape:label="length_cv_knob" />
    <circle
       style="display:inline;opacity:0.94;fill:#ff0000;fill-opacity:1;stroke:none;stroke-width:0.246922;stroke-miterlimit:4;stroke-dasharray:none;stroke-opacity:1"
       id="path1082-3-3"
       cx="30.480001"
       cy="83.300003"
       r="5.6409645"
       inkscape:label="hits_cv_knob" />
    <circle
       style="display:inline;opacity:0.94;fill:#ff0000;fill-opacity:1;stroke:none;stroke-width:0.23441;stroke-miterlimit:4;stroke-dasharray:none;stroke-opacity:1"
       id="path1082-6-8"
       cx="46.619587"
       cy="83.300003"
       r="5.6409659"
       inkscape:label="shift_cv_knob" />
    <rect
       style="display:inline;fill:#ffff00;fill-opacity:1;stroke:none;stroke-width:0.134493;stroke-miterlimit:4;stroke-dasharray:none;stroke-opacity:1"
       id="rect1106"
       width="32"
       height="32"
       x="14.480001"
       y="15.632812"
       inkscape:label="display" />
  </g>
</svg>
