<svg xmlns="http://www.w3.org/2000/svg" width="11.154mm" height="6mm" viewBox="0 0 11.154 6"><g style="display:inline;opacity:1" transform="rotate(180 1.889 4.231)scale(.03584)"><rect width="307.821" height="164.022" x="-103.705" y="-234.419" ry="32.723" style="fill:#cf7608;fill-opacity:1;stroke:#2f2a22;stroke-width:3.38744;stroke-miterlimit:4;stroke-dasharray:none;stroke-opacity:1" transform="scale(-1)"/><rect width="277.237" height="135.407" x="-88.413" y="-220.112" ry="22.822" style="display:inline;opacity:1;fill:#f0d6ab;fill-opacity:1;stroke:#ff8f00;stroke-width:5.5803;stroke-linejoin:round;stroke-miterlimit:4;stroke-dasharray:none;stroke-opacity:1" transform="scale(-1)"/><path d="M-185.685 151.427H85.466v-42.183c0-11.886-7.521-20.657-19.3-20.696l-229.528-.762c-15.296-.05-22.323 9.572-22.323 21.458z" style="display:inline;opacity:1;fill:#e4bd6e;fill-opacity:1;stroke:none;stroke-width:5.35088;stroke-linejoin:round;stroke-miterlimit:4;stroke-dasharray:none;stroke-opacity:1"/><g aria-label="INV" style="font-style:normal;font-weight:400;font-size:86.4411px;line-height:1.25;font-family:sans-serif;display:inline;opacity:1;fill:#8a4b00;fill-opacity:1;stroke:none;stroke-width:2.16104"><path d="M-15.23-123.797v-57.224h6.483v57.224zM5.256-123.797v-57.224h7.52l35.355 48.148v-48.148h6.483v57.224h-7.52l-35.354-48.32v48.32zM85.042-123.797 61.875-181.02h7.088l19.796 49.877 19.795-49.877h7.088l-23.167 57.224z" style="font-style:normal;font-variant:normal;font-weight:400;font-stretch:normal;font-family:Questrial;-inkscape-font-specification:Questrial;fill:#8a4b00;fill-opacity:1;stroke-width:2.16104" transform="rotate(-180 .048 -.49)"/></g></g></svg>