<svg xmlns="http://www.w3.org/2000/svg" width="11.154mm" height="6mm" viewBox="0 0 11.154 6"><g style="display:inline;opacity:1" transform="rotate(180 1.889 4.231)scale(.03584)"><rect width="307.821" height="164.022" x="-103.705" y="-234.419" ry="32.723" style="fill:#aaa;fill-opacity:1;stroke:#1b1b1b;stroke-width:3.38744;stroke-miterlimit:4;stroke-dasharray:none;stroke-opacity:1" transform="scale(-1)"/><rect width="277.237" height="135.407" x="-88.413" y="-220.112" ry="22.822" style="display:inline;opacity:1;fill:#f7f7f7;fill-opacity:1;stroke:#f0f0f0;stroke-width:5.5803;stroke-linejoin:round;stroke-miterlimit:4;stroke-dasharray:none;stroke-opacity:1" transform="scale(-1)"/><path d="M-185.96 151.137H85.19v-42.183c0-11.886-7.521-20.657-19.3-20.696l-229.528-.762c-15.296-.05-22.323 9.572-22.323 21.458z" style="display:inline;opacity:1;fill:#d9d9d9;fill-opacity:1;stroke:none;stroke-width:5.35088;stroke-linejoin:round;stroke-miterlimit:4;stroke-dasharray:none;stroke-opacity:1"/><g aria-label="REV" style="font-style:normal;font-weight:400;font-size:81.3075px;line-height:1.25;font-family:sans-serif;fill:#4d4d4d;fill-opacity:1;stroke:none;stroke-width:2.03269"><path d="M-23.825-125.496v-53.825H1.95q8.293 0 13.172 4.553 4.96 4.553 4.96 12.277 0 5.204-2.033 8.294-1.952 3.09-4.96 4.716-3.008 1.544-6.017 2.276l14.148 21.71h-7.237L.974-146.149h-18.7v20.652zm6.098-26.425H.893q2.927 0 5.935-.894 3.009-.894 5.041-3.171 2.114-2.358 2.114-6.505 0-5.122-3.496-8.05-3.496-3.008-9.269-3.008h-18.945ZM30.57-125.496v-53.825h39.597v5.854H36.668v18.05H66.59v5.936H36.67v18.131h33.498v5.854zM95.453-125.496l-21.79-53.825h6.667l18.62 46.914 18.619-46.914h6.667l-21.79 53.825z" style="font-style:normal;font-variant:normal;font-weight:400;font-stretch:normal;font-family:Questrial;-inkscape-font-specification:Questrial;fill:#4d4d4d;fill-opacity:1;stroke-width:2.03269" transform="matrix(-1.0159 0 0 -1.0159 .798 -2.422)"/></g></g></svg>