<svg xmlns="http://www.w3.org/2000/svg" width="9mm" height="9mm" viewBox="0 0 9 9"><g style="display:inline;opacity:1" transform="rotate(180 -4.851 4.727)scale(.03584)"><circle cx="396.256" cy="-138.23" r="123.621" style="display:inline;opacity:1;fill:#cf7608;fill-opacity:1;stroke:#1b1b1b;stroke-width:3.87126;stroke-linecap:round;stroke-miterlimit:4;stroke-dasharray:none;stroke-opacity:1" transform="scale(-1)"/><circle cx="396.256" cy="-138.23" r="104.13" style="display:inline;opacity:1;fill:#f0d6ab;fill-opacity:1;stroke:#ff8f00;stroke-width:5.50231;stroke-linecap:round;stroke-miterlimit:4;stroke-dasharray:none;stroke-opacity:1" transform="scale(-1)"/><path d="M-495.534 148.49a240.435 239.692 0 0 0 132.126 21.372 240.435 239.692 0 0 0 65.499-17.565 99.669 99.361 0 0 0 .377-26.714 99.669 99.361 0 0 0-110.994-86.617 99.669 99.361 0 0 0-87.008 109.524z" style="display:inline;opacity:1;fill:#e4bd6e;fill-opacity:1;stroke:none;stroke-width:9.69436;stroke-linecap:round;stroke-miterlimit:4;stroke-dasharray:none;stroke-opacity:1"/><g fill="#595651" style="display:inline;opacity:1;fill:#8a4b00;fill-opacity:1"><path d="m123.3 265.8 58-38.8-21.1-10.4c16.7-15.8 38.6-24.6 62-24.6 21.5 0 42.4 7.7 58.7 21.7 16.1 13.8 26.9 32.9 30.4 53.8l19.7-3.3c-4.2-25.5-17.4-48.8-37.1-65.7-19.9-17.1-45.4-26.5-71.6-26.5-31 0-60 12.8-80.9 35.3l-22.6-11.2zM321.2 298.7l-58 38.8 21.1 10.4c-16.7 15.8-38.6 24.6-62 24.6-21.5 0-42.4-7.7-58.7-21.7-16.1-13.8-26.9-32.9-30.4-53.8l-19.7 3.3c4.2 25.5 17.4 48.8 37.1 65.7 19.9 17.1 45.4 26.5 71.7 26.5 31 0 60-12.8 80.9-35.3l22.6 11.2z" style="fill:#8a4b00;fill-opacity:1" transform="matrix(-.60237 0 0 -.60237 -262.379 308.25)"/></g></g></svg>