<?xml version="1.0" encoding="UTF-8" standalone="no"?>
<svg
   xmlns:dc="http://purl.org/dc/elements/1.1/"
   xmlns:cc="http://creativecommons.org/ns#"
   xmlns:rdf="http://www.w3.org/1999/02/22-rdf-syntax-ns#"
   xmlns:svg="http://www.w3.org/2000/svg"
   xmlns="http://www.w3.org/2000/svg"
   xmlns:xlink="http://www.w3.org/1999/xlink"
   xmlns:sodipodi="http://sodipodi.sourceforge.net/DTD/sodipodi-0.dtd"
   xmlns:inkscape="http://www.inkscape.org/namespaces/inkscape"
   width="81.279999mm"
   height="128.5mm"
   viewBox="0 0 81.280001 128.5"
   version="1.1"
   id="svg8"
   inkscape:version="1.0.1 (3bc2e813f5, 2020-09-07)"
   sodipodi:docname="polygene-dark-panel.svg">
  <defs
     id="defs2">
    <inkscape:path-effect
       effect="fillet_chamfer"
       id="path-effect3402"
       is_visible="true"
       lpeversion="1"
       satellites_param="F,0,0,1,0,0,0,1 @ F,0,1,1,0,2.6458341,0,1 @ F,0,0,1,0,2.6458341,0,1 @ F,0,0,1,0,0,0,1"
       unit="px"
       method="auto"
       mode="F"
       radius="0"
       chamfer_steps="1"
       flexible="false"
       use_knot_distance="true"
       apply_no_radius="true"
       apply_with_radius="true"
       only_selected="false"
       hide_knots="false" />
    <inkscape:path-effect
       effect="fillet_chamfer"
       id="path-effect3398"
       is_visible="true"
       lpeversion="1"
       satellites_param="F,0,0,1,0,0,0,1 @ F,0,0,1,0,2.6458335,0,1 @ F,0,0,1,0,0,0,1"
       unit="px"
       method="auto"
       mode="F"
       radius="0"
       chamfer_steps="1"
       flexible="false"
       use_knot_distance="true"
       apply_no_radius="true"
       apply_with_radius="true"
       only_selected="false"
       hide_knots="false" />
    <inkscape:path-effect
       effect="fillet_chamfer"
       id="path-effect3379"
       is_visible="true"
       lpeversion="1"
       satellites_param="F,0,0,1,0,0,0,1 @ F,0,0,1,0,2.6458335,0,1 @ F,0,0,1,0,0,0,1"
       unit="px"
       method="auto"
       mode="F"
       radius="0"
       chamfer_steps="1"
       flexible="false"
       use_knot_distance="true"
       apply_no_radius="true"
       apply_with_radius="true"
       only_selected="false"
       hide_knots="false" />
    <inkscape:path-effect
       effect="fillet_chamfer"
       id="path-effect3375"
       is_visible="true"
       lpeversion="1"
       satellites_param="F,0,0,1,0,0,0,1 @ F,0,0,1,0,2.6478863,0,1 @ F,0,0,1,0,0,0,1"
       unit="px"
       method="auto"
       mode="F"
       radius="0"
       chamfer_steps="1"
       flexible="false"
       use_knot_distance="true"
       apply_no_radius="true"
       apply_with_radius="true"
       only_selected="false"
       hide_knots="false" />
    <inkscape:path-effect
       effect="fillet_chamfer"
       id="path-effect3356"
       is_visible="true"
       lpeversion="1"
       satellites_param="F,0,0,1,0,0,0,1 @ F,0,0,1,0,1.7492654,0,1 @ F,0,0,1,0,0,0,1"
       unit="px"
       method="auto"
       mode="F"
       radius="0"
       chamfer_steps="1"
       flexible="false"
       use_knot_distance="true"
       apply_no_radius="true"
       apply_with_radius="true"
       only_selected="false"
       hide_knots="false" />
    <inkscape:path-effect
       effect="fillet_chamfer"
       id="path-effect3337"
       is_visible="true"
       lpeversion="1"
       satellites_param="F,0,0,1,0,0,0,1 @ F,0,0,1,0,1.7492654,0,1 @ F,0,0,1,0,0,0,1"
       unit="px"
       method="auto"
       mode="F"
       radius="0"
       chamfer_steps="1"
       flexible="false"
       use_knot_distance="true"
       apply_no_radius="true"
       apply_with_radius="true"
       only_selected="false"
       hide_knots="false" />
    <marker
       style="overflow:visible"
       id="marker3288"
       refX="0"
       refY="0"
       orient="auto"
       inkscape:stockid="Arrow1Lstart"
       inkscape:isstock="true">
      <path
         transform="matrix(0.8,0,0,0.8,10,0)"
         style="fill:#ffffff;fill-opacity:1;fill-rule:evenodd;stroke:#ffffff;stroke-width:1pt;stroke-opacity:1"
         d="M 0,0 5,-5 -12.5,0 5,5 Z"
         id="path3286" />
    </marker>
    <marker
       style="overflow:visible"
       id="marker3272"
       refX="0"
       refY="0"
       orient="auto"
       inkscape:stockid="Arrow1Lstart"
       inkscape:isstock="true">
      <path
         transform="matrix(0.8,0,0,0.8,10,0)"
         style="fill-rule:evenodd;stroke:#000000;stroke-width:1pt"
         d="M 0,0 5,-5 -12.5,0 5,5 Z"
         id="path3270" />
    </marker>
    <marker
       style="overflow:visible"
       id="Arrow1Lstart"
       refX="0"
       refY="0"
       orient="auto"
       inkscape:stockid="Arrow1Lstart"
       inkscape:isstock="true">
      <path
         transform="matrix(0.8,0,0,0.8,10,0)"
         style="fill-rule:evenodd;stroke:#000000;stroke-width:1pt"
         d="M 0,0 5,-5 -12.5,0 5,5 Z"
         id="path3261" />
    </marker>
    <inkscape:path-effect
       effect="fillet_chamfer"
       id="path-effect3259"
       is_visible="true"
       lpeversion="1"
       satellites_param="F,0,0,1,0,0,0,1 @ F,0,0,1,0,2.6478863,0,1 @ F,0,0,1,0,0,0,1"
       unit="px"
       method="auto"
       mode="F"
       radius="0"
       chamfer_steps="1"
       flexible="false"
       use_knot_distance="true"
       apply_no_radius="true"
       apply_with_radius="true"
       only_selected="false"
       hide_knots="false" />
    <inkscape:path-effect
       effect="fillet_chamfer"
       id="path-effect998"
       is_visible="true"
       lpeversion="1"
       satellites_param="F,0,0,1,0,0,0,1 @ F,0,0,1,0,1.0967435,0,1 @ F,0,0,1,0,1.3276369,0,1 @ F,0,0,1,0,1.5008069,0,1 @ F,0,0,1,0,1.0390202,0,1 @ F,0,0,1,0,0,0,1"
       unit="px"
       method="auto"
       mode="F"
       radius="0"
       chamfer_steps="1"
       flexible="false"
       use_knot_distance="true"
       apply_no_radius="true"
       apply_with_radius="true"
       only_selected="false"
       hide_knots="false" />
    <inkscape:perspective
       sodipodi:type="inkscape:persp3d"
       inkscape:vp_x="0 : 64.25 : 1"
       inkscape:vp_y="0 : 1000 : 0"
       inkscape:vp_z="60.960003 : 64.25 : 1"
       inkscape:persp3d-origin="30.48 : 42.833333 : 1"
       id="perspective964" />
    <linearGradient
       inkscape:collect="always"
       id="linearGradient991">
      <stop
         style="stop-color:#121212;stop-opacity:1"
         offset="0"
         id="stop987" />
      <stop
         style="stop-color:#242424;stop-opacity:1"
         offset="1"
         id="stop989" />
    </linearGradient>
    <mask
       maskUnits="userSpaceOnUse"
       id="mask1345">
      <circle
         style="fill:#666666;fill-opacity:1;stroke-width:0.0850262;stroke-miterlimit:4;stroke-dasharray:none"
         id="circle1347"
         cx="-48.166672"
         cy="-37.583336"
         r="32.085506" />
    </mask>
    <mask
       maskUnits="userSpaceOnUse"
       id="mask1345-9">
      <circle
         style="fill:#666666;fill-opacity:1;stroke-width:0.0850262;stroke-miterlimit:4;stroke-dasharray:none"
         id="circle1347-7"
         cx="-48.166672"
         cy="-37.583336"
         r="32.085506" />
    </mask>
    <mask
       maskUnits="userSpaceOnUse"
       id="mask1345-6">
      <circle
         style="fill:#666666;fill-opacity:1;stroke-width:0.0850262;stroke-miterlimit:4;stroke-dasharray:none"
         id="circle1347-8"
         cx="-48.166672"
         cy="-37.583336"
         r="32.085506" />
    </mask>
    <linearGradient
       inkscape:collect="always"
       xlink:href="#linearGradient991"
       id="linearGradient993"
       gradientUnits="userSpaceOnUse"
       x1="30.572811"
       y1="284.63696"
       x2="30.572811"
       y2="171.23396"
       gradientTransform="scale(1.3333333,1)" />
  </defs>
  <sodipodi:namedview
     id="base"
     pagecolor="#ffffff"
     bordercolor="#666666"
     borderopacity="1.0"
     inkscape:pageopacity="0.0"
     inkscape:pageshadow="2"
     inkscape:zoom="4.613529"
     inkscape:cx="153.63853"
     inkscape:cy="43.363075"
     inkscape:document-units="mm"
     inkscape:current-layer="g1184"
     showgrid="true"
     inkscape:window-width="1920"
     inkscape:window-height="1138"
     inkscape:window-x="-6"
     inkscape:window-y="-6"
     inkscape:window-maximized="1"
     inkscape:document-rotation="0"
     inkscape:snap-bbox="false"
     inkscape:snap-page="true"
     inkscape:snap-to-guides="true"
     inkscape:bbox-paths="true"
     inkscape:bbox-nodes="true"
     inkscape:snap-bbox-edge-midpoints="true"
     inkscape:snap-bbox-midpoints="true"
     inkscape:object-paths="true"
     inkscape:snap-intersection-paths="true"
     inkscape:snap-smooth-nodes="true"
     inkscape:snap-center="true"
     inkscape:snap-object-midpoints="true"
     inkscape:snap-text-baseline="true"
     inkscape:snap-nodes="true"
     inkscape:snap-others="true"
     inkscape:snap-grids="false"
     inkscape:showpageshadow="false"
     showborder="false"
     inkscape:object-nodes="true"
     inkscape:snap-midpoints="true"
     inkscape:snap-global="true"
     showguides="true">
    <inkscape:grid
       type="xygrid"
       id="grid273"
       spacingx="1.5"
       spacingy="1.5"
       originx="30.480001"
       originy="64.250001"
       dotted="false"
       visible="true"
       enabled="true"
       units="mm" />
    <sodipodi:guide
       position="0,128.50001"
       orientation="0,307.2"
       id="guide521" />
    <sodipodi:guide
       position="81.280003,128.50001"
       orientation="485.66929,0"
       id="guide523" />
    <sodipodi:guide
       position="81.280003,0"
       orientation="0,-307.2"
       id="guide525" />
    <sodipodi:guide
       position="0,0"
       orientation="-485.66929,0"
       id="guide527" />
  </sodipodi:namedview>
  <metadata
     id="metadata5">
    <rdf:RDF>
      <cc:Work
         rdf:about="">
        <dc:format>image/svg+xml</dc:format>
        <dc:type
           rdf:resource="http://purl.org/dc/dcmitype/StillImage" />
        <dc:title />
      </cc:Work>
    </rdf:RDF>
  </metadata>
  <g
     inkscape:label="Layer 1"
     inkscape:groupmode="layer"
     id="layer1"
     transform="translate(0,-168.5)"
     style="display:inline;opacity:1">
    <rect
       style="opacity:1;fill:url(#linearGradient993);fill-opacity:1;stroke:none;stroke-width:0.544034;stroke-miterlimit:4;stroke-dasharray:none;stroke-opacity:1"
       id="rect910"
       width="81.279999"
       height="128.5"
       x="-3.9968029e-15"
       y="168.5" />
    <rect
       style="fill:#0a0a0a;fill-opacity:0.447155;stroke:#585858;stroke-width:0.201;stroke-miterlimit:4;stroke-dasharray:none;stroke-opacity:1"
       id="rect994"
       width="10.583333"
       height="14.845271"
       x="66.992516"
       y="182.35576"
       ry="1.8122104" />
    <g
       transform="translate(4.4072759,-4.4263115)"
       aria-label="My Module"
       style="font-style:normal;font-variant:normal;font-weight:normal;font-stretch:normal;font-size:4.93889px;line-height:6.61458px;font-family:'Gotham Rounded';-inkscape-font-specification:'Gotham Rounded';font-variant-ligatures:normal;font-variant-caps:normal;font-variant-numeric:normal;font-feature-settings:normal;text-align:center;letter-spacing:0px;word-spacing:0px;writing-mode:lr-tb;text-anchor:middle;display:inline;fill:#000000;fill-opacity:1;stroke:none;stroke-width:0.264583px;stroke-linecap:butt;stroke-linejoin:miter;stroke-opacity:1"
       id="text1229">
      <flowRoot
         xml:space="preserve"
         id="flowRoot909"
         style="font-style:normal;font-weight:normal;font-size:40px;line-height:125%;font-family:sans-serif;letter-spacing:0px;word-spacing:0px;fill:#000000;fill-opacity:1;stroke:none;stroke-width:1px;stroke-linecap:butt;stroke-linejoin:miter;stroke-opacity:1"
         transform="matrix(0.26458333,0,0,0.26458333,-4.4072759,172.92631)"><flowRegion
           id="flowRegion911"><rect
             id="rect913"
             width="173.26733"
             height="52.475246"
             x="32.673267"
             y="6.46136" /></flowRegion><flowPara
           id="flowPara915">ΕὐκλείδηςΕὐκλείδηςstr</flowPara></flowRoot>
    </g>
    <g
       aria-label="Len"
       style="font-style:normal;font-variant:normal;font-weight:normal;font-stretch:normal;font-size:4.23333px;line-height:125%;font-family:'Courier New';-inkscape-font-specification:'Courier New, Normal';font-variant-ligatures:normal;font-variant-caps:normal;font-variant-numeric:normal;font-feature-settings:normal;text-align:start;letter-spacing:0px;word-spacing:0px;writing-mode:lr-tb;text-anchor:start;fill:#ffffe3;fill-opacity:1;stroke:none;stroke-width:0.264583px;stroke-linecap:butt;stroke-linejoin:miter;stroke-opacity:1"
       id="text959"
       transform="translate(-1.5205188,-11.91224)" />
    <flowRoot
       xml:space="preserve"
       id="flowRoot889"
       style="font-style:normal;font-weight:normal;font-size:40px;line-height:125%;font-family:sans-serif;letter-spacing:0px;word-spacing:0px;fill:#000000;fill-opacity:1;stroke:none;stroke-width:1px;stroke-linecap:butt;stroke-linejoin:miter;stroke-opacity:1"><flowRegion
         id="flowRegion891"><rect
           id="rect893"
           width="7.1731195"
           height="265.22571"
           x="154.5513"
           y="35.615662" /></flowRegion><flowPara
         id="flowPara895" /></flowRoot>
    <text
       xml:space="preserve"
       style="font-style:normal;font-weight:normal;font-size:10.5833px;line-height:1.25;font-family:sans-serif;fill:#000000;fill-opacity:1;stroke:none;stroke-width:0.264583"
       x="49.886944"
       y="197.55063"
       id="text139"><tspan
         sodipodi:role="line"
         id="tspan137"
         x="49.886944"
         y="197.55063"
         style="stroke-width:0.264583" /></text>
    <rect
       style="display:inline;opacity:1;fill:#000000;fill-opacity:1;stroke:none;stroke-width:0.212368;stroke-miterlimit:4;stroke-dasharray:none;stroke-opacity:1"
       id="rect1106-7"
       width="50.529167"
       height="50.52914"
       x="14.483461"
       y="182.97946"
       inkscape:label="display"
       ry="3.6000891" />
    <g
       id="g46"
       transform="matrix(0.02290654,0,0,0.02290654,30.92765,284.72973)"
       style="fill:#e0e0e0;fill-opacity:1">
      <g
         id="g14"
         style="fill:#e0e0e0;fill-opacity:1">
        <path
           fill="#010202"
           d="m 183.539,374.201 c 0,22.771 -17.751,34.428 -42.675,34.428 H 88.148 c -4.124,0 -5.2,-1.973 -5.2,-5.201 V 295.666 c 0,-3.229 1.076,-5.201 5.2,-5.201 h 50.206 c 29.227,0 41.778,15.6 41.778,32.455 0,18.109 -11.476,23.848 -13.089,24.564 1.434,0.539 16.496,7.352 16.496,26.717 z m -28.51,-2.689 c 0,-8.428 -6.276,-10.938 -14.882,-10.938 h -4.124 c -4.124,0 -5.2,-1.973 -5.2,-5.199 v -13.627 c 0,-3.229 1.076,-5.201 5.2,-5.201 h 2.331 c 10.399,0 14.882,-3.766 14.882,-10.758 0,-8.068 -5.559,-10.041 -14.882,-10.041 H 111.1 v 67.418 h 30.123 c 8.785,0 13.806,-3.586 13.806,-11.654 z"
           id="path2-9"
           style="fill:#e0e0e0;fill-opacity:1" />
        <path
           fill="#010202"
           d="m 291.12,408.629 h -21.158 c -4.303,0 -6.455,-1.613 -8.965,-5.379 l -19.365,-28.869 c -1.614,-2.152 -1.972,-4.123 -1.972,-9.145 v -14.344 c 0,-3.229 1.076,-5.201 5.2,-5.201 h 3.586 c 8.786,0 17.034,-6.096 17.034,-14.523 0,-9.324 -7.172,-15.24 -16.497,-15.24 h -23.848 v 87.5 c 0,4.125 -1.972,5.201 -5.2,5.201 h -17.751 c -3.228,0 -5.021,-1.076 -5.021,-5.201 V 296.023 c 0,-3.227 0.896,-5.199 5.021,-5.199 h 45.185 c 19.544,0 28.151,3.945 35.682,11.477 6.634,6.455 10.4,16.674 10.4,28.15 0,18.826 -13.807,31.916 -24.924,35.682 l 25.282,36.758 c 1.614,2.509 0.718,5.738 -2.689,5.738 z"
           id="path4-3"
           style="fill:#e0e0e0;fill-opacity:1" />
        <path
           fill="#010202"
           d="m 398.342,388.725 v 14.703 c 0,3.229 -1.076,5.201 -5.2,5.201 h -80.329 c -4.125,0 -5.2,-1.973 -5.2,-5.201 V 295.846 c 0,-3.229 1.076,-5.201 5.2,-5.201 h 77.281 c 4.124,0 5.2,1.973 5.2,5.201 v 14.881 c 0,3.229 -1.076,5.201 -5.2,5.201 h -54.15 v 19.543 h 48.054 c 4.124,0 5.2,1.973 5.2,5.201 v 13.986 c 0,3.227 -1.076,5.199 -5.2,5.199 h -48.054 v 23.668 h 57.199 c 4.123,0 5.199,1.973 5.199,5.2 z"
           id="path6-0"
           style="fill:#e0e0e0;fill-opacity:1" />
        <path
           fill="#010202"
           d="m 501.798,388.725 v 14.703 c 0,3.229 -1.074,5.201 -5.199,5.201 h -80.328 c -4.125,0 -5.201,-1.973 -5.201,-5.201 V 295.846 c 0,-3.229 1.076,-5.201 5.201,-5.201 h 77.279 c 4.125,0 5.201,1.973 5.201,5.201 v 14.881 c 0,3.229 -1.076,5.201 -5.201,5.201 H 439.4 v 19.543 h 48.055 c 4.125,0 5.199,1.973 5.199,5.201 v 13.986 c 0,3.227 -1.074,5.199 -5.199,5.199 H 439.4 v 23.668 h 57.199 c 4.125,0 5.199,1.973 5.199,5.2 z"
           id="path8-5"
           style="fill:#e0e0e0;fill-opacity:1" />
        <path
           fill="#010202"
           d="m 608.126,330.988 v 37.297 c 0,28.15 -26.896,40.344 -48.234,40.344 h -40.164 c -4.123,0 -5.199,-1.973 -5.199,-5.201 V 295.846 c 0,-3.229 1.076,-5.201 5.199,-5.201 h 40.164 c 21.337,0 48.234,12.373 48.234,40.343 z m -48.234,-15.42 h -17.213 v 68.137 h 17.213 c 11.834,0 20.084,-6.455 20.084,-17.932 V 333.5 c 0,-11.297 -8.25,-17.932 -20.084,-17.932 z"
           id="path10-6"
           style="fill:#e0e0e0;fill-opacity:1" />
        <path
           fill="#010202"
           d="m 709.608,373.664 c 0,25.461 -20.082,37.654 -47.695,37.654 -22.412,0 -48.232,-12.91 -48.232,-38.014 0,-4.123 1.076,-5.02 5.199,-5.02 h 17.393 c 4.125,0 6.098,0.537 6.455,5.02 0.18,2.332 1.076,4.662 3.408,7.352 3.586,4.305 10.938,5.918 17.57,5.918 9.684,0 17.572,-2.152 17.572,-12.193 0,-10.041 -15.957,-10.221 -31.199,-15.063 -18.109,-5.736 -34.785,-12.908 -34.785,-35.682 0,-23.309 21.158,-34.785 43.572,-35.682 22.771,0 47.695,10.4 47.695,34.068 0,4.303 -1.076,5.021 -5.201,5.021 h -17.57 c -3.408,0 -3.945,-2.512 -4.842,-4.842 -0.717,-1.793 -1.613,-3.229 -3.766,-5.379 -3.406,-3.229 -9.861,-4.842 -15.24,-4.842 -5.918,0 -15.779,2.33 -15.779,10.4 0,10.938 26.357,14.881 33.529,17.75 12.911,3.948 31.916,9.147 31.916,33.534 z"
           id="path12-4"
           style="fill:#e0e0e0;fill-opacity:1" />
      </g>
      <g
         id="g44"
         style="fill:#e0e0e0;fill-opacity:1">
        <path
           fill="#010202"
           d="m 360.43,231.572 c 11.117,-3.766 24.924,-16.854 24.924,-35.682 0,-11.476 -3.766,-21.696 -10.4,-28.151 -7.531,-7.53 -16.138,-11.476 -35.682,-11.476 h -45.185 c -4.124,0 -5.021,1.973 -5.021,5.2 0.021,13.438 0.286,27.036 -0.12,40.454 -0.432,14.229 1.521,28.476 -2.078,42.76 -1.829,7.254 -0.415,15.805 -0.229,23.764 0.033,1.417 1.059,3.755 1.947,4.018 3.107,0.922 6.467,1.115 9.805,1.609 h 13.447 c 3.228,0 5.2,-1.076 5.2,-5.2 v -87.501 h 23.848 c 9.324,0 16.497,5.916 16.497,15.24 0,8.428 -8.249,14.523 -17.034,14.523 h -3.586 c -4.124,0 -5.2,1.973 -5.2,5.201 v 14.344 c 0,5.021 0.358,6.993 1.972,9.145 l 19.365,28.868 c 2.51,3.766 4.662,5.38 8.965,5.38 h 21.158 c 3.407,0 4.303,-3.229 2.689,-5.738 z"
           id="path16"
           style="fill:#e0e0e0;fill-opacity:1" />
        <path
           fill="#010202"
           d="m 461.375,161.642 c -1.613,-3.766 -3.406,-5.559 -7.352,-5.559 H 436.81 c -3.945,0 -5.917,1.793 -7.352,5.559 l -39.806,107.404 c -0.896,2.152 -0.896,5.021 3.048,5.021 h 18.827 c 3.944,0 5.379,-1.076 6.813,-5.38 l 5.021,-14.165 h 43.93 l 5.021,14.165 c 1.434,4.304 2.868,5.38 6.813,5.38 h 18.827 c 3.944,0 3.944,-2.869 3.048,-5.021 z m -29.406,67.778 13.448,-39.627 13.448,39.627 z"
           id="path18"
           style="fill:#e0e0e0;fill-opacity:1" />
        <path
           fill="#010202"
           d="m 579.357,231.572 c 11.116,-3.766 24.923,-16.854 24.923,-35.682 0,-11.476 -3.765,-21.696 -10.399,-28.151 -7.531,-7.53 -16.138,-11.476 -35.682,-11.476 h -45.186 c -4.124,0 -5.021,1.973 -5.021,5.2 v 107.404 c 0,4.124 1.793,5.2 5.021,5.2 h 17.751 c 3.228,0 5.2,-1.076 5.2,-5.2 v -87.501 h 23.848 c 9.324,0 16.496,5.916 16.496,15.24 0,8.428 -8.248,14.523 -17.034,14.523 h -3.586 c -4.124,0 -5.199,1.973 -5.199,5.201 v 14.344 c 0,5.021 0.358,6.993 1.972,9.145 l 19.365,28.868 c 2.511,3.766 4.662,5.38 8.966,5.38 h 21.157 c 3.407,0 4.304,-3.229 2.69,-5.738 z"
           id="path20"
           style="fill:#e0e0e0;fill-opacity:1" />
        <path
           fill="#010202"
           d="m 703.972,248.964 h -57.199 v -23.668 h 48.055 c 4.124,0 5.199,-1.973 5.199,-5.2 v -13.985 c 0,-3.229 -1.075,-5.2 -5.199,-5.2 h -48.055 v -19.544 h 54.15 c 4.124,0 5.2,-1.973 5.2,-5.2 v -14.883 c 0,-3.228 -1.076,-5.2 -5.2,-5.2 h -77.28 c -4.124,0 -5.2,1.973 -5.2,5.2 v 107.584 c 0,3.228 1.076,5.2 5.2,5.2 h 80.329 c 4.124,0 5.199,-1.973 5.199,-5.2 v -14.703 c 0,-3.228 -1.075,-5.201 -5.199,-5.201 z"
           id="path22"
           style="fill:#e0e0e0;fill-opacity:1" />
        <path
           fill="#010202"
           d="m 97.568,160.792 c -0.03,-1.302 -1.328,-3.382 -2.313,-3.67 -2.904,-0.854 -5.947,-0.991 -9.292,-1.459 0,39.8 0,78.901 0,118.478 3.219,-0.484 6.141,-0.91 9.224,-1.37 0,-2.235 0,-3.938 0,-5.642 0,-21.706 -0.053,-43.411 0.044,-65.113 0.02,-4.655 -1.21,-9.73 2.165,-13.672 0.353,-0.411 0.263,-1.488 0.265,-2.26 0.018,-8.433 0.114,-16.868 -0.093,-25.292 z"
           id="path24"
           style="fill:#e0e0e0;fill-opacity:1" />
        <path
           fill="#010202"
           d="m 216.441,156.355 c -3.602,0.814 -6.766,1.531 -10.329,2.34 0,30.414 -0.017,60.23 0.084,90.047 0.004,0.898 1.281,1.795 2.618,3.557 0,5.577 0,12.404 0,19.395 1.811,0.41 3.379,0.768 5.296,1.207 0,-9.167 -0.033,-18.049 0.029,-26.932 0.011,-1.48 0.381,-2.975 0.693,-4.431 0.486,-2.308 1.525,-4.585 1.536,-6.88 0.113,-24.363 0.073,-48.726 0.073,-73.087 0,-1.529 0,-3.062 0,-5.216 z"
           id="path26"
           style="fill:#e0e0e0;fill-opacity:1" />
        <path
           fill="#010202"
           d="m 175.354,157.898 c -1.892,-0.336 -3.438,-0.605 -5.235,-0.928 0,9.147 0.027,17.879 -0.029,26.612 -0.01,1.495 -0.309,3.007 -0.61,4.466 -0.507,2.457 -1.603,4.877 -1.616,7.314 -0.122,24.207 -0.077,48.413 -0.077,72.615 0,1.65 0,3.3 0,5.502 3.758,-0.914 6.934,-1.689 10.14,-2.469 0,-30.962 0,-61.514 0,-92.088 -0.862,0.075 -1.529,0.131 -2.573,0.223 0,-7.255 0,-14.226 0,-21.247 z"
           id="path28"
           style="fill:#e0e0e0;fill-opacity:1" />
        <path
           fill="#010202"
           d="m 197.449,167.49 c 0,-1.627 0,-3.258 0,-5.5 -2.866,1.565 -5.082,3.068 -7.45,3.988 -2.639,1.027 -3.311,2.92 -3.283,6.212 0.136,15.794 0.064,31.587 0.064,47.378 0,15.784 0,31.567 0,48.173 2.529,-1.313 4.438,-2.49 6.447,-3.292 3.362,-1.338 4.345,-3.879 4.318,-8.309 -0.185,-29.545 -0.096,-59.097 -0.096,-88.65 z"
           id="path30"
           style="fill:#e0e0e0;fill-opacity:1" />
        <path
           fill="#010202"
           d="m 226.429,155.646 c 0,20.717 0,40.753 0,61.335 0.731,-1.126 1.173,-1.813 2.241,-3.458 0,20.865 0,40.473 0,60.109 2.279,0 4.222,0 6.61,0 0,-6.396 -0.295,-12.464 0.051,-18.479 1.173,-20.323 -1.813,-40.665 1.893,-61.144 2.142,-11.857 0.389,-24.796 0.389,-37.717 -3.956,-0.23 -7.534,-0.437 -11.184,-0.646 z"
           id="path32"
           style="fill:#e0e0e0;fill-opacity:1" />
        <path
           fill="#010202"
           d="m 155.517,155.611 c -2.434,0.203 -4.385,0.369 -6.569,0.551 0,2.521 0,4.53 0,6.545 0,12.339 0.345,24.697 -0.1,37.006 -0.439,12.084 0.602,24.021 -1.758,36.346 -2.238,11.662 -0.48,24.495 -0.48,37.334 3.866,0.258 7.443,0.498 11.214,0.75 0,-20.682 0,-40.74 0,-61.633 -0.771,1.313 -1.192,2.032 -2.307,3.937 0,-21.106 0,-40.817 0,-60.836 z"
           id="path34"
           style="fill:#e0e0e0;fill-opacity:1" />
        <path
           fill="#010202"
           d="m 279.406,250.04 c -3.522,0.352 -1.824,-3.011 -1.829,-4.464 -0.116,-26.536 -0.083,-53.07 -0.083,-79.609 0,-1.674 0,-3.352 0,-5.629 -1.672,0.622 -2.61,1.079 -3.586,1.308 -4.154,0.979 -5.306,3.839 -5.253,9.153 0.263,27.778 0.158,55.567 0.051,83.353 -0.007,1.864 -0.949,3.795 -1.662,5.567 -0.883,2.194 -1.316,4.117 1.002,5.239 3.825,1.839 7.675,3.603 11.912,5.583 0,-6.775 0.02,-12.697 -0.027,-18.619 -0.003,-0.657 -0.384,-1.895 -0.525,-1.882 z"
           id="path36"
           style="fill:#e0e0e0;fill-opacity:1" />
        <path
           fill="#010202"
           d="m 104.351,159.222 c 0,7.381 0,13.776 0,20.387 0.723,0 1.39,0 2.616,0 0,30.167 0,59.775 0,89.676 1.385,-0.506 2.318,-0.945 3.286,-1.182 4.099,-0.994 5.379,-3.719 5.324,-9.112 -0.279,-27.676 -0.164,-55.36 -0.051,-83.041 0.006,-2.009 1.327,-3.966 1.624,-6.038 0.224,-1.527 0.189,-4.281 -0.429,-4.633 -3.908,-2.256 -8.011,-3.997 -12.37,-6.057 z"
           id="path38"
           style="fill:#e0e0e0;fill-opacity:1" />
        <path
           fill="#010202"
           d="m 135.194,246.042 c 0,-28.524 0,-57.378 0,-86.296 -7.343,2.109 -7.389,2.18 -7.389,10.563 0,26.888 0.012,53.769 -0.031,80.653 -0.002,1.629 -0.077,3.596 -0.781,4.83 -3.217,5.646 -2.225,10.486 2.854,12.561 2.476,1.006 4.988,1.862 8.026,2.982 0,-8.015 0.067,-15.457 -0.105,-22.891 -0.018,-0.741 -1.489,-1.431 -2.574,-2.402 z"
           id="path40"
           style="fill:#e0e0e0;fill-opacity:1" />
        <path
           fill="#010202"
           d="m 254.321,161.357 c -2.467,-1.007 -4.977,-1.857 -7.981,-2.966 0,7.915 -0.066,15.214 0.085,22.505 0.02,0.857 1.22,1.676 2.464,3.27 0,27.689 0,56.595 0,85.897 7.534,-2.323 7.534,-2.323 7.534,-10.71 0,-26.887 -0.012,-53.773 0.034,-80.66 0.004,-1.621 0.113,-3.578 0.818,-4.795 3.241,-5.586 2.201,-10.433 -2.954,-12.541 z"
           id="path42"
           style="fill:#e0e0e0;fill-opacity:1" />
      </g>
    </g>
    <path
       style="fill:none;stroke:#737373;stroke-width:0.228415;stroke-linecap:butt;stroke-linejoin:miter;stroke-miterlimit:4;stroke-dasharray:none;stroke-opacity:1"
       d="M 32.953127,256.60633 H 7.9904172 a 2.6458318,2.6458318 135.00004 0 0 -2.6458335,2.64583"
       id="path3377"
       inkscape:original-d="M 32.953127,256.60633 H 5.3445837 v 2.64583"
       inkscape:path-effect="#path-effect3379" />
    <path
       style="display:inline;fill:none;stroke:#737373;stroke-width:0.242821;stroke-linecap:butt;stroke-linejoin:miter;stroke-miterlimit:4;stroke-dasharray:none;stroke-opacity:1"
       d="m 44.129434,256.62499 h 29.018925 a 2.6265133,2.6265133 44.576977 0 1 2.645834,2.60705"
       id="path3377-7"
       inkscape:original-d="m 44.129434,256.62499 h 31.664759 v 2.60705"
       inkscape:path-effect="#path-effect3398" />
    <path
       style="fill:none;stroke:#737373;stroke-width:0.23724;stroke-linecap:butt;stroke-linejoin:miter;stroke-miterlimit:4;stroke-dasharray:none;stroke-opacity:1"
       d="m 5.3445833,269.83542 a 2.6458321,2.6458321 44.999956 0 0 2.6458341,2.64583 H 73.433517 a 2.6458321,2.6458321 135.00004 0 0 2.645834,-2.64583"
       id="path3400"
       inkscape:path-effect="#path-effect3402"
       inkscape:original-d="m 5.3445833,269.83542 v 2.64583 H 76.079351 v -2.64583" />
    <g
       aria-label="CLK"
       id="text1179"
       style="font-style:normal;font-weight:normal;font-size:2.97427px;line-height:1.25;font-family:sans-serif;fill:#f5f5f5;fill-opacity:1;stroke:none;stroke-width:0.0743569">
      <path
         d="m 4.897813,185.49541 q -0.2944528,0 -0.5086002,-0.13384 -0.2141475,-0.13682 -0.330144,-0.36583 -0.1130223,-0.22902 -0.1130223,-0.5086 0,-0.27959 0.1130223,-0.5086 0.1159965,-0.22902 0.330144,-0.36287 0.2141474,-0.13681 0.5086002,-0.13681 0.2230702,0 0.4015264,0.0803 0.1784562,0.0773 0.3033756,0.21415 0.1249193,0.13682 0.187379,0.31825 H 5.5551267 q -0.074357,-0.18143 -0.2349674,-0.28851 -0.1606106,-0.10707 -0.4045007,-0.10707 -0.2379416,0 -0.407475,0.10707 -0.1665592,0.1041 -0.252813,0.28256 -0.086254,0.17845 -0.086254,0.40153 0,0.22009 0.086254,0.40152 0.086254,0.17846 0.252813,0.28553 0.1695334,0.1041 0.407475,0.1041 0.2438901,0 0.4045007,-0.10707 0.1606106,-0.10708 0.2349674,-0.28851 H 5.790094 q -0.06246,0.17846 -0.187379,0.31825 -0.1249194,0.13682 -0.3033756,0.21712 -0.1784562,0.0773 -0.4015264,0.0773 z"
         style="font-style:normal;font-variant:normal;font-weight:normal;font-stretch:normal;font-family:Questrial;-inkscape-font-specification:Questrial;fill:#f5f5f5;fill-opacity:1;stroke-width:0.0743569"
         id="path1289" />
      <path
         d="m 6.1232081,185.47162 v -1.96897 h 0.2230703 v 1.75482 h 1.0737115 v 0.21415 z"
         style="font-style:normal;font-variant:normal;font-weight:normal;font-stretch:normal;font-family:Questrial;-inkscape-font-specification:Questrial;fill:#f5f5f5;fill-opacity:1;stroke-width:0.0743569"
         id="path1291" />
      <path
         d="m 7.7084914,185.47162 v -1.96897 h 0.2230703 v 1.02613 l 1.0945314,-1.02613 h 0.3152726 l -0.8387442,0.79116 0.8863325,1.17781 H 9.1093726 l -0.7703359,-1.02612 -0.407475,0.3807 v 0.64542 z"
         style="font-style:normal;font-variant:normal;font-weight:normal;font-stretch:normal;font-family:Questrial;-inkscape-font-specification:Questrial;fill:#f5f5f5;fill-opacity:1;stroke-width:0.0743569"
         id="path1293" />
    </g>
    <g
       aria-label="SYNC"
       id="text1179-8"
       style="font-style:normal;font-weight:normal;font-size:2.97426px;line-height:1.25;font-family:sans-serif;display:inline;opacity:1;fill:#f5f5f5;fill-opacity:1;stroke:none;stroke-width:0.0743569">
      <path
         d="m 3.6545766,202.5875 q -0.2914774,0 -0.4729073,-0.0773 -0.1814299,-0.0803 -0.2736319,-0.2201 -0.089228,-0.13979 -0.1040991,-0.31527 h 0.2319922 q 0.00892,0.14277 0.095176,0.23199 0.086254,0.0863 0.2260437,0.1279 0.1427645,0.0416 0.3122973,0.0416 0.2498379,0 0.3955766,-0.0863 0.1457388,-0.0892 0.1457388,-0.26173 0,-0.1041 -0.074357,-0.16656 -0.071382,-0.0654 -0.1933269,-0.10707 -0.1189704,-0.0416 -0.2617349,-0.0744 -0.1427645,-0.0357 -0.2885032,-0.0744 -0.1427645,-0.0387 -0.2647092,-0.0982 -0.1189704,-0.0595 -0.1933269,-0.15168 -0.071382,-0.0952 -0.071382,-0.24092 0,-0.24091 0.1844041,-0.3926 0.1873784,-0.15169 0.5561866,-0.15169 0.2617349,0 0.4312677,0.0803 0.1695329,0.0773 0.2528121,0.20522 0.086254,0.12789 0.095176,0.27661 h -0.229017 q -0.017845,-0.14872 -0.148713,-0.24984 -0.1308674,-0.1041 -0.4015251,-0.1041 -0.1665585,0 -0.2706577,0.0327 -0.1040991,0.0327 -0.16061,0.0863 -0.053537,0.0506 -0.074356,0.10707 -0.017846,0.0565 -0.017846,0.10708 0,0.0982 0.071382,0.16061 0.074356,0.0595 0.1933269,0.10112 0.1219447,0.0387 0.2676834,0.0714 0.1457387,0.0327 0.2885032,0.0744 0.1457388,0.0387 0.2647092,0.10112 0.1219446,0.0595 0.1933269,0.15467 0.074357,0.0952 0.074357,0.24389 0,0.27363 -0.2081982,0.42234 -0.2081982,0.14574 -0.571058,0.14574 z"
         style="font-style:normal;font-variant:normal;font-weight:normal;font-stretch:normal;font-family:Questrial;-inkscape-font-specification:Questrial;fill:#f5f5f5;fill-opacity:1;stroke-width:0.0743569"
         id="path1303" />
      <path
         d="m 5.3350314,202.56371 v -0.77926 l -0.8268443,-1.1897 h 0.2706577 l 0.6662343,0.95771 0.6662342,-0.95771 H 6.381971 l -0.82387,1.1897 v 0.77926 z"
         style="font-style:normal;font-variant:normal;font-weight:normal;font-stretch:normal;font-family:Questrial;-inkscape-font-specification:Questrial;fill:#f5f5f5;fill-opacity:1;stroke-width:0.0743569"
         id="path1305" />
      <path
         d="m 6.6318078,202.56371 v -1.96896 h 0.2587606 l 1.2164724,1.65666 v -1.65666 h 0.2230695 v 1.96896 H 8.0713497 l -1.2164724,-1.66262 v 1.66262 z"
         style="font-style:normal;font-variant:normal;font-weight:normal;font-stretch:normal;font-family:Questrial;-inkscape-font-specification:Questrial;fill:#f5f5f5;fill-opacity:1;stroke-width:0.0743569"
         id="path1307" />
      <path
         d="m 9.6387845,202.5875 q -0.2944517,0 -0.5085985,-0.13384 -0.2141467,-0.13682 -0.3301428,-0.36584 -0.1130219,-0.22901 -0.1130219,-0.50859 0,-0.27959 0.1130219,-0.5086 0.1159961,-0.22902 0.3301428,-0.36286 0.2141468,-0.13682 0.5085985,-0.13682 0.2230695,0 0.4015255,0.0803 0.178455,0.0773 0.303374,0.21414 0.124919,0.13682 0.187379,0.31825 h -0.234967 q -0.07436,-0.18143 -0.234967,-0.2885 -0.1606096,-0.10708 -0.4044989,-0.10708 -0.2379408,0 -0.4074737,0.10708 -0.1665585,0.10409 -0.2528121,0.28255 -0.086253,0.17846 -0.086253,0.40153 0,0.22009 0.086253,0.40152 0.086254,0.17846 0.2528121,0.28553 0.1695329,0.1041 0.4074737,0.1041 0.2438893,0 0.4044989,-0.10707 0.16061,-0.10708 0.234967,-0.28851 h 0.234967 q -0.06246,0.17846 -0.187379,0.31825 -0.124919,0.13681 -0.303374,0.21712 -0.178456,0.0773 -0.4015255,0.0773 z"
         style="font-style:normal;font-variant:normal;font-weight:normal;font-stretch:normal;font-family:Questrial;-inkscape-font-specification:Questrial;fill:#f5f5f5;fill-opacity:1;stroke-width:0.0743569"
         id="path1309" />
    </g>
    <g
       aria-label="OUT"
       id="text1179-8-0"
       style="font-style:normal;font-weight:normal;font-size:2.97426px;line-height:1.25;font-family:sans-serif;display:inline;opacity:1;fill:#f5f5f5;fill-opacity:1;stroke:none;stroke-width:0.0743569"
       transform="translate(17.991672)">
      <path
         d="m 52.360724,185.99813 q -0.223069,0 -0.407474,-0.0773 -0.184404,-0.0773 -0.318245,-0.21712 -0.130868,-0.13979 -0.20225,-0.32122 -0.07138,-0.18441 -0.07138,-0.39261 0,-0.21117 0.07138,-0.3926 0.07138,-0.18143 0.20225,-0.32122 0.133841,-0.13979 0.318245,-0.21712 0.184405,-0.0773 0.407474,-0.0773 0.22307,0 0.407474,0.0773 0.184404,0.0773 0.315271,0.21712 0.133842,0.13979 0.205224,0.32122 0.07138,0.18143 0.07138,0.3926 0,0.2082 -0.07138,0.39261 -0.07138,0.18143 -0.205224,0.32122 -0.130867,0.13979 -0.315271,0.21712 -0.184404,0.0773 -0.407474,0.0773 z m 0,-0.21712 q 0.240915,0 0.413422,-0.1041 0.175482,-0.10707 0.267684,-0.28553 0.09518,-0.18143 0.09518,-0.40153 0,-0.22306 -0.09518,-0.40152 -0.0922,-0.17846 -0.267684,-0.28256 -0.172507,-0.10707 -0.413422,-0.10707 -0.237941,0 -0.413422,0.10707 -0.175481,0.1041 -0.270658,0.28256 -0.0922,0.17846 -0.0922,0.40152 0,0.2201 0.0922,0.40153 0.09518,0.17846 0.270658,0.28553 0.175481,0.1041 0.413422,0.1041 z"
         style="font-style:normal;font-variant:normal;font-weight:normal;font-stretch:normal;font-family:Questrial;-inkscape-font-specification:Questrial;fill:#f5f5f5;fill-opacity:1;stroke-width:0.0743569"
         id="path1296" />
      <path
         d="m 54.528954,185.99813 q -0.243889,0 -0.434242,-0.10707 -0.187378,-0.11005 -0.294452,-0.30635 -0.107073,-0.1963 -0.107073,-0.45804 v -1.1213 h 0.223069 v 1.12725 q 0,0.22902 0.08625,0.37178 0.08923,0.14277 0.229018,0.21117 0.142764,0.0654 0.297426,0.0654 0.157636,0 0.297426,-0.0654 0.13979,-0.0684 0.229018,-0.21117 0.08923,-0.14276 0.08923,-0.37178 v -1.12725 h 0.223069 v 1.1213 q 0,0.25876 -0.107073,0.45506 -0.107073,0.1963 -0.297426,0.30635 -0.187378,0.11005 -0.434242,0.11005 z"
         style="font-style:normal;font-variant:normal;font-weight:normal;font-stretch:normal;font-family:Questrial;-inkscape-font-specification:Questrial;fill:#f5f5f5;fill-opacity:1;stroke-width:0.0743569"
         id="path1298" />
      <path
         d="m 56.313509,185.97433 v -1.75778 h -0.687054 v -0.21118 h 1.597177 v 0.21118 h -0.687054 v 1.75778 z"
         style="font-style:normal;font-variant:normal;font-weight:normal;font-stretch:normal;font-family:Questrial;-inkscape-font-specification:Questrial;fill:#f5f5f5;fill-opacity:1;stroke-width:0.0743569"
         id="path1300" />
    </g>
    <g
       aria-label="SHIFT"
       id="text1179-8-0-9"
       style="font-style:normal;font-weight:normal;font-size:2.97426px;line-height:1.25;font-family:sans-serif;display:inline;opacity:1;fill:#f5f5f5;fill-opacity:1;stroke:none;stroke-width:0.0743569"
       transform="translate(0,15.875004)">
      <path
         d="m 47.232012,222.69584 q -0.291477,0 -0.472907,-0.0773 -0.18143,-0.0803 -0.273632,-0.2201 -0.08923,-0.13979 -0.104099,-0.31527 h 0.231992 q 0.0089,0.14276 0.09518,0.23199 0.08625,0.0863 0.226043,0.12789 0.142765,0.0416 0.312298,0.0416 0.249838,0 0.395576,-0.0862 0.145739,-0.0892 0.145739,-0.26173 0,-0.1041 -0.07436,-0.16656 -0.07138,-0.0654 -0.193327,-0.10708 -0.118971,-0.0416 -0.261735,-0.0744 -0.142765,-0.0357 -0.288504,-0.0744 -0.142764,-0.0387 -0.264709,-0.0981 -0.11897,-0.0595 -0.193327,-0.15169 -0.07138,-0.0952 -0.07138,-0.24091 0,-0.24092 0.184404,-0.3926 0.187379,-0.15169 0.556187,-0.15169 0.261735,0 0.431268,0.0803 0.169532,0.0773 0.252812,0.20523 0.08625,0.12789 0.09518,0.2766 h -0.229018 q -0.01785,-0.14871 -0.148713,-0.24983 -0.130867,-0.1041 -0.401525,-0.1041 -0.166559,0 -0.270658,0.0327 -0.104099,0.0327 -0.16061,0.0863 -0.05354,0.0506 -0.07436,0.10707 -0.01785,0.0565 -0.01785,0.10707 0,0.0982 0.07138,0.16061 0.07436,0.0595 0.193327,0.10113 0.121945,0.0387 0.267684,0.0714 0.145738,0.0327 0.288503,0.0744 0.145739,0.0387 0.264709,0.10112 0.121945,0.0595 0.193327,0.15466 0.07436,0.0952 0.07436,0.24389 0,0.27364 -0.208199,0.42235 -0.208198,0.14574 -0.571058,0.14574 z"
         style="font-style:normal;font-variant:normal;font-weight:normal;font-stretch:normal;font-family:Questrial;-inkscape-font-specification:Questrial;fill:#f5f5f5;fill-opacity:1;stroke-width:0.0743569"
         id="path1332" />
      <path
         d="m 48.356282,222.67204 v -1.96896 h 0.22307 v 0.87444 h 1.14509 v -0.87444 h 0.223069 v 1.96896 h -0.223069 v -0.8774 h -1.14509 v 0.8774 z"
         style="font-style:normal;font-variant:normal;font-weight:normal;font-stretch:normal;font-family:Questrial;-inkscape-font-specification:Questrial;fill:#f5f5f5;fill-opacity:1;stroke-width:0.0743569"
         id="path1334" />
      <path
         d="m 50.429337,222.67204 v -1.96896 h 0.22307 v 1.96896 z"
         style="font-style:normal;font-variant:normal;font-weight:normal;font-stretch:normal;font-family:Questrial;-inkscape-font-specification:Questrial;fill:#f5f5f5;fill-opacity:1;stroke-width:0.0743569"
         id="path1336" />
      <path
         d="m 51.134235,222.67204 v -1.96896 h 1.421696 v 0.21415 h -1.198626 v 0.68408 h 1.067759 v 0.21712 h -1.067759 v 0.85361 z"
         style="font-style:normal;font-variant:normal;font-weight:normal;font-stretch:normal;font-family:Questrial;-inkscape-font-specification:Questrial;fill:#f5f5f5;fill-opacity:1;stroke-width:0.0743569"
         id="path1338" />
      <path
         d="m 53.356003,222.67204 v -1.75778 h -0.687055 v -0.21118 h 1.597178 v 0.21118 h -0.687054 v 1.75778 z"
         style="font-style:normal;font-variant:normal;font-weight:normal;font-stretch:normal;font-family:Questrial;-inkscape-font-specification:Questrial;fill:#f5f5f5;fill-opacity:1;stroke-width:0.0743569"
         id="path1340" />
    </g>
    <g
       aria-label="LENGTH"
       id="text1179-8-0-9-7-2"
       style="font-style:normal;font-weight:normal;font-size:2.97426px;line-height:1.25;font-family:sans-serif;display:inline;opacity:1;fill:#f5f5f5;fill-opacity:1;stroke:none;stroke-width:0.0743569"
       transform="translate(0,15.875004)">
      <path
         d="m 5.1651061,222.67204 v -1.96896 h 0.2230695 v 1.75482 h 1.0737079 v 0.21414 z"
         style="font-style:normal;font-variant:normal;font-weight:normal;font-stretch:normal;font-family:Questrial;-inkscape-font-specification:Questrial;fill:#f5f5f5;fill-opacity:1;stroke-width:0.0743569"
         id="path1312" />
      <path
         d="m 6.7503839,222.67204 v -1.96896 h 1.4484646 v 0.21415 H 6.9734534 v 0.66029 h 1.0945277 v 0.21712 H 6.9734534 v 0.66326 h 1.2253951 v 0.21414 z"
         style="font-style:normal;font-variant:normal;font-weight:normal;font-stretch:normal;font-family:Questrial;-inkscape-font-specification:Questrial;fill:#f5f5f5;fill-opacity:1;stroke-width:0.0743569"
         id="path1314" />
      <path
         d="m 8.5587332,222.67204 v -1.96896 h 0.2587607 l 1.2164721,1.65667 v -1.65667 h 0.22307 v 1.96896 H 9.9982751 l -1.2164724,-1.66261 v 1.66261 z"
         style="font-style:normal;font-variant:normal;font-weight:normal;font-stretch:normal;font-family:Questrial;-inkscape-font-specification:Questrial;fill:#f5f5f5;fill-opacity:1;stroke-width:0.0743569"
         id="path1316" />
      <path
         d="m 11.577607,222.69584 q -0.3004,0 -0.517521,-0.13384 -0.214147,-0.13682 -0.330143,-0.36584 -0.115996,-0.22902 -0.115996,-0.5086 0,-0.27958 0.11897,-0.5086 0.118971,-0.22901 0.336091,-0.36286 0.220096,-0.13681 0.514547,-0.13681 0.318246,0 0.550239,0.15763 0.234966,0.15467 0.345014,0.40153 h -0.24389 q -0.08923,-0.15764 -0.249837,-0.24984 -0.157636,-0.0922 -0.38368,-0.0922 -0.237941,0 -0.410448,0.10707 -0.172507,0.1041 -0.264709,0.28256 -0.08923,0.17845 -0.08923,0.40152 0,0.2201 0.08923,0.40153 0.08923,0.17845 0.258761,0.28553 0.172507,0.1041 0.410448,0.1041 0.178455,0 0.336091,-0.0773 0.16061,-0.0773 0.258761,-0.22307 0.101124,-0.14574 0.101124,-0.35097 h -0.719771 v -0.20225 h 0.924995 v 1.04694 h -0.205224 v -0.34799 q -0.06246,0.0952 -0.16061,0.18143 -0.09815,0.0833 -0.23794,0.13682 -0.136816,0.0535 -0.315272,0.0535 z"
         style="font-style:normal;font-variant:normal;font-weight:normal;font-stretch:normal;font-family:Questrial;-inkscape-font-specification:Questrial;fill:#f5f5f5;fill-opacity:1;stroke-width:0.0743569"
         id="path1318" />
      <path
         d="m 13.323492,222.67204 v -1.75778 h -0.687054 v -0.21118 h 1.597177 v 0.21118 h -0.687054 v 1.75778 z"
         style="font-style:normal;font-variant:normal;font-weight:normal;font-stretch:normal;font-family:Questrial;-inkscape-font-specification:Questrial;fill:#f5f5f5;fill-opacity:1;stroke-width:0.0743569"
         id="path1320" />
      <path
         d="m 14.516166,222.67204 v -1.96896 h 0.223069 v 0.87444 h 1.145091 v -0.87444 h 0.223069 v 1.96896 h -0.223069 v -0.8774 h -1.145091 v 0.8774 z"
         style="font-style:normal;font-variant:normal;font-weight:normal;font-stretch:normal;font-family:Questrial;-inkscape-font-specification:Questrial;fill:#f5f5f5;fill-opacity:1;stroke-width:0.0743569"
         id="path1322" />
    </g>
    <g
       aria-label="CV"
       id="text1179-8-0-9-7-2-4"
       style="font-style:normal;font-weight:normal;font-size:2.97426px;line-height:1.25;font-family:sans-serif;display:inline;opacity:1;fill:#f5f5f5;fill-opacity:1;stroke:none;stroke-width:0.0743569"
       transform="translate(8.4666671,13.229169)">
      <path
         d="m 29.534188,244.31229 q -0.294452,0 -0.508598,-0.13384 -0.214147,-0.13682 -0.330143,-0.36583 -0.113022,-0.22902 -0.113022,-0.5086 0,-0.27958 0.113022,-0.5086 0.115996,-0.22902 0.330143,-0.36286 0.214146,-0.13682 0.508598,-0.13682 0.22307,0 0.401525,0.0803 0.178456,0.0773 0.303375,0.21415 0.124919,0.13681 0.187378,0.31824 H 30.1915 q -0.07436,-0.18143 -0.234967,-0.2885 -0.16061,-0.10708 -0.404499,-0.10708 -0.237941,0 -0.407474,0.10708 -0.166559,0.1041 -0.252812,0.28255 -0.08625,0.17846 -0.08625,0.40153 0,0.22009 0.08625,0.40152 0.08625,0.17846 0.252812,0.28553 0.169533,0.1041 0.407474,0.1041 0.243889,0 0.404499,-0.10707 0.16061,-0.10708 0.234967,-0.28851 h 0.234966 q -0.06246,0.17846 -0.187378,0.31825 -0.124919,0.13682 -0.303375,0.21712 -0.178455,0.0773 -0.401525,0.0773 z"
         style="font-style:normal;font-variant:normal;font-weight:normal;font-stretch:normal;font-family:Questrial;-inkscape-font-specification:Questrial;fill:#f5f5f5;fill-opacity:1;stroke-width:0.0743569"
         id="path1343" />
      <path
         d="m 31.324689,244.2885 -0.797102,-1.96896 h 0.243889 l 0.681106,1.71615 0.681105,-1.71615 h 0.24389 l -0.797102,1.96896 z"
         style="font-style:normal;font-variant:normal;font-weight:normal;font-stretch:normal;font-family:Questrial;-inkscape-font-specification:Questrial;fill:#f5f5f5;fill-opacity:1;stroke-width:0.0743569"
         id="path1345" />
    </g>
    <g
       id="g1184"
       transform="matrix(0.05415888,0,0,0.05415888,19.041222,171.03813)"
       style="fill:#e5e5e5;fill-opacity:1">
      <path
         d="m -29.31099,54.914 c 5.899,0 10.438005,4.54 10.438005,10.436 0,5.454 -4.539005,9.983 -10.438005,9.983 -5.444995,0 -9.982995,-4.53 -9.982995,-9.983 0,-5.897 4.538,-10.436 9.982995,-10.436 z"
         id="path2"
         style="fill:#e5e5e5;fill-opacity:1" />
      <path
         d="m -29.31099,75.083 c 5.899,0 10.438005,4.542 10.438005,10.438 0,5.448 -4.539005,9.983 -10.438005,9.983 -5.444995,0 -9.982995,-4.535 -9.982995,-9.983 0,-5.896 4.538,-10.438 9.982995,-10.438 z"
         id="path4"
         style="fill:#e5e5e5;fill-opacity:1" />
      <path
         d="m -29.31099,95.255 c 5.899,0 10.438005,4.536 10.438005,10.439 0,5.442 -4.539005,9.983 -10.438005,9.983 -5.444995,0 -9.982995,-4.541 -9.982995,-9.983 0,-5.902 4.538,-10.439 9.982995,-10.439 z"
         id="path6"
         style="fill:#e5e5e5;fill-opacity:1" />
      <path
         d="m -29.31099,115.424 c 5.899,0 10.438005,4.537 10.438005,10.441 0,5.445 -4.539005,9.982 -10.438005,9.982 -5.444995,0 -9.982995,-4.537 -9.982995,-9.982 0,-5.904 4.538,-10.441 9.982995,-10.441 z"
         id="path8"
         style="fill:#e5e5e5;fill-opacity:1" />
      <path
         d="m -29.31099,135.594 c 5.899,0 10.438005,4.543 10.438005,10.438 0,5.453 -4.539005,9.984 -10.438005,9.984 -5.444995,0 -9.982995,-4.531 -9.982995,-9.984 0,-5.895 4.538,-10.438 9.982995,-10.438 z"
         id="path10"
         style="fill:#e5e5e5;fill-opacity:1" />
      <path
         d="m -9.1409857,54.914 c 5.899,0 10.4390003,4.54 10.4390003,10.436 0,5.454 -4.5400003,9.983 -10.4390003,9.983 -5.4439993,0 -9.9829993,-4.53 -9.9829993,-9.983 0,-5.897 4.539,-10.436 9.9829993,-10.436 z"
         id="path12"
         style="fill:#e5e5e5;fill-opacity:1" />
      <path
         d="m -9.1409857,95.255 c 5.899,0 10.4390003,4.536 10.4390003,10.439 0,5.442 -4.5400003,9.983 -10.4390003,9.983 -5.4439993,0 -9.9829993,-4.541 -9.9829993,-9.983 0,-5.902 4.539,-10.439 9.9829993,-10.439 z"
         id="path14"
         style="fill:#e5e5e5;fill-opacity:1" />
      <path
         d="m 11.03101,54.914 c 5.899995,0 10.437995,4.54 10.437995,10.436 0,5.454 -4.539,9.983 -10.437995,9.983 -5.4470004,0 -9.9829954,-4.53 -9.9829954,-9.983 -10e-4,-5.897 4.535995,-10.436 9.9829954,-10.436 z"
         id="path18-3"
         style="fill:#e5e5e5;fill-opacity:1" />
      <path
         d="m 11.03101,95.255 c 5.899995,0 10.437995,4.536 10.437995,10.439 0,5.442 -4.539,9.983 -10.437995,9.983 -5.4470004,0 -9.9829954,-4.541 -9.9829954,-9.983 -10e-4,-5.902 4.535995,-10.439 9.9829954,-10.439 z"
         id="path20-0"
         style="fill:#e5e5e5;fill-opacity:1" />
      <path
         d="m 31.2,54.914 c 5.899995,0 10.43999,4.54 10.43999,10.436 0,5.454 -4.539995,9.983 -10.43999,9.983 -5.447,0 -9.982995,-4.53 -9.982995,-9.983 0,-5.897 4.535995,-10.436 9.982995,-10.436 z"
         id="path24-2"
         style="fill:#e5e5e5;fill-opacity:1" />
      <path
         d="m 31.2,95.255 c 5.899995,0 10.43999,4.536 10.43999,10.439 0,5.442 -4.539995,9.983 -10.43999,9.983 -5.447,0 -9.982995,-4.541 -9.982995,-9.983 0,-5.902 4.535995,-10.439 9.982995,-10.439 z"
         id="path26-1"
         style="fill:#e5e5e5;fill-opacity:1" />
      <path
         d="m 50.74127,76.970175 c 5.899995,0 10.43999,4.542995 10.43999,10.437995 0,5.452995 -4.539995,9.983995 -10.43999,9.983995 -5.447,0 -9.982995,-4.531 -9.982995,-9.983995 0,-5.895 4.535995,-10.437995 9.982995,-10.437995 z"
         id="path28-7"
         style="fill:#e5e5e5;fill-opacity:1" />
      <path
         d="m 51.372985,54.914 c 5.899,0 10.437995,4.54 10.437995,10.436 0,5.454 -4.538995,9.983 -10.437995,9.983 -5.446995,0 -9.983995,-4.53 -9.983995,-9.983 0,-5.897 4.537,-10.436 9.983995,-10.436 z"
         id="path30-0"
         style="fill:#e5e5e5;fill-opacity:1" />
      <path
         d="m 51.372985,96.511445 c 5.899,0 10.437995,4.542995 10.437995,10.437995 0,5.453 -4.538995,9.984 -10.437995,9.984 -5.446995,0 -9.983995,-4.531 -9.983995,-9.984 0,-5.895 4.537,-10.437995 9.983995,-10.437995 z"
         id="path32-8"
         style="fill:#e5e5e5;fill-opacity:1" />
      <path
         d="m 101.47724,54.914 c 5.9,0 10.44,4.54 10.44,10.436 0,5.454 -4.54,9.983 -10.44,9.983 -5.443995,0 -9.983995,-4.53 -9.983995,-9.983 0,-5.897 4.539,-10.436 9.983995,-10.436 z"
         id="path34-0"
         style="fill:#e5e5e5;fill-opacity:1" />
      <path
         d="m 81.93597,75.083 c 5.9,0 10.439995,4.542 10.439995,10.438 0,5.448 -4.539995,9.983 -10.439995,9.983 -5.443995,0 -9.983995,-4.535 -9.983995,-9.983 0,-5.896 4.539,-10.438 9.983995,-10.438 z"
         id="path36-2"
         style="fill:#e5e5e5;fill-opacity:1" />
      <path
         d="m 81.93597,95.255 c 5.9,0 10.439995,4.536 10.439995,10.439 0,5.442 -4.539995,9.983 -10.439995,9.983 -5.443995,0 -9.983995,-4.541 -9.983995,-9.983 0,-5.902 4.539,-10.439 9.983995,-10.439 z"
         id="path38-1"
         style="fill:#e5e5e5;fill-opacity:1" />
      <path
         d="m 81.93597,115.424 c 5.9,0 10.439995,4.537 10.439995,10.441 0,5.445 -4.539995,9.982 -10.439995,9.982 -5.443995,0 -9.983995,-4.537 -9.983995,-9.982 0,-5.904 4.539,-10.441 9.983995,-10.441 z"
         id="path40-2"
         style="fill:#e5e5e5;fill-opacity:1" />
      <path
         d="m 102.10596,135.594 c 5.9,0 10.438,4.543 10.438,10.438 0,5.453 -4.539,9.984 -10.438,9.984 -5.444995,0 -9.982995,-4.531 -9.982995,-9.984 0,-5.895 4.539,-10.438 9.982995,-10.438 z"
         id="path42-8"
         style="fill:#e5e5e5;fill-opacity:1" />
      <path
         d="m 122.27696,135.594 c 5.9,0 10.439,4.543 10.439,10.438 0,5.453 -4.54,9.984 -10.439,9.984 -5.446,0 -9.983,-4.531 -9.983,-9.984 0,-5.895 4.537,-10.438 9.983,-10.438 z"
         id="path44"
         style="fill:#e5e5e5;fill-opacity:1" />
      <path
         d="m 142.44796,135.594 c 5.899,0 10.438,4.543 10.438,10.438 0,5.453 -4.539,9.984 -10.438,9.984 -5.448,0 -9.983,-4.531 -9.983,-9.984 0,-5.895 4.536,-10.438 9.983,-10.438 z"
         id="path46"
         style="fill:#e5e5e5;fill-opacity:1" />
      <path
         d="m 143.07768,54.914 c 5.899,0 10.439,4.54 10.439,10.436 0,5.454 -4.54,9.983 -10.439,9.983 -5.446,0 -9.983,-4.53 -9.983,-9.983 -0.001,-5.897 4.536,-10.436 9.983,-10.436 z"
         id="path48"
         style="fill:#e5e5e5;fill-opacity:1" />
      <path
         d="m 162.61896,75.083 c 5.899,0 10.439,4.542 10.439,10.438 0,5.448 -4.54,9.983 -10.439,9.983 -5.446,0 -9.983,-4.535 -9.983,-9.983 -0.001,-5.896 4.536,-10.438 9.983,-10.438 z"
         id="path50"
         style="fill:#e5e5e5;fill-opacity:1" />
      <path
         d="m 162.61896,95.255 c 5.899,0 10.439,4.536 10.439,10.439 0,5.442 -4.54,9.983 -10.439,9.983 -5.446,0 -9.983,-4.541 -9.983,-9.983 -0.001,-5.902 4.536,-10.439 9.983,-10.439 z"
         id="path52"
         style="fill:#e5e5e5;fill-opacity:1" />
      <path
         d="m 162.61896,115.424 c 5.899,0 10.439,4.537 10.439,10.441 0,5.445 -4.54,9.982 -10.439,9.982 -5.446,0 -9.983,-4.537 -9.983,-9.982 -0.001,-5.904 4.536,-10.441 9.983,-10.441 z"
         id="path54"
         style="fill:#e5e5e5;fill-opacity:1" />
      <path
         d="m 378.82312,75.083 c 5.9,0 10.439,4.542 10.439,10.438 0,5.448 -4.539,9.983 -10.439,9.983 -5.445,0 -9.984,-4.535 -9.984,-9.983 0,-5.896 4.538,-10.438 9.984,-10.438 z"
         id="path56"
         style="fill:#e5e5e5;fill-opacity:1" />
      <path
         d="m 378.82312,95.255 c 5.9,0 10.439,4.536 10.439,10.439 0,5.442 -4.539,9.983 -10.439,9.983 -5.445,0 -9.984,-4.541 -9.984,-9.983 0,-5.902 4.538,-10.439 9.984,-10.439 z"
         id="path58"
         style="fill:#e5e5e5;fill-opacity:1" />
      <path
         d="m 378.82312,115.424 c 5.9,0 10.439,4.537 10.439,10.441 0,5.445 -4.539,9.982 -10.439,9.982 -5.445,0 -9.984,-4.537 -9.984,-9.982 0,-5.904 4.538,-10.441 9.984,-10.441 z"
         id="path60"
         style="fill:#e5e5e5;fill-opacity:1" />
      <path
         d="m 398.99312,54.914 c 5.9,0 10.439,4.54 10.439,10.436 0,5.454 -4.54,9.983 -10.439,9.983 -5.443,0 -9.983,-4.53 -9.983,-9.983 0,-5.897 4.54,-10.436 9.983,-10.436 z"
         id="path62"
         style="fill:#e5e5e5;fill-opacity:1" />
      <path
         d="m 398.99312,135.594 c 5.9,0 10.439,4.543 10.439,10.438 0,5.453 -4.54,9.984 -10.439,9.984 -5.443,0 -9.983,-4.531 -9.983,-9.984 0,-5.895 4.54,-10.438 9.983,-10.438 z"
         id="path64"
         style="fill:#e5e5e5;fill-opacity:1" />
      <path
         d="m 419.16512,54.914 c 5.9,0 10.438,4.54 10.438,10.436 0,5.454 -4.539,9.983 -10.438,9.983 -5.446,0 -9.983,-4.53 -9.983,-9.983 -10e-4,-5.897 4.536,-10.436 9.983,-10.436 z"
         id="path66"
         style="fill:#e5e5e5;fill-opacity:1" />
      <path
         d="m 419.16512,135.594 c 5.9,0 10.438,4.543 10.438,10.438 0,5.453 -4.539,9.984 -10.438,9.984 -5.446,0 -9.983,-4.531 -9.983,-9.984 -10e-4,-5.895 4.536,-10.438 9.983,-10.438 z"
         id="path68"
         style="fill:#e5e5e5;fill-opacity:1" />
      <path
         d="m 439.33512,54.914 c 5.899,0 10.439,4.54 10.439,10.436 0,5.454 -4.54,9.983 -10.439,9.983 -5.447,0 -9.983,-4.53 -9.983,-9.983 0,-5.897 4.536,-10.436 9.983,-10.436 z"
         id="path70"
         style="fill:#e5e5e5;fill-opacity:1" />
      <path
         d="m 439.33512,95.255 c 5.899,0 10.439,4.536 10.439,10.439 0,5.442 -4.54,9.983 -10.439,9.983 -5.447,0 -9.983,-4.541 -9.983,-9.983 0,-5.902 4.536,-10.439 9.983,-10.439 z"
         id="path72"
         style="fill:#e5e5e5;fill-opacity:1" />
      <path
         d="m 439.33512,135.594 c 5.899,0 10.439,4.543 10.439,10.438 0,5.453 -4.54,9.984 -10.439,9.984 -5.447,0 -9.983,-4.531 -9.983,-9.984 0,-5.895 4.536,-10.438 9.983,-10.438 z"
         id="path74"
         style="fill:#e5e5e5;fill-opacity:1" />
      <path
         d="m 459.50712,54.914 c 5.899,0 10.438,4.54 10.438,10.436 0,5.454 -4.539,9.983 -10.438,9.983 -5.447,0 -9.983,-4.53 -9.983,-9.983 -10e-4,-5.897 4.536,-10.436 9.983,-10.436 z"
         id="path76"
         style="fill:#e5e5e5;fill-opacity:1" />
      <path
         d="m 459.50712,95.255 c 5.899,0 10.438,4.536 10.438,10.439 0,5.442 -4.539,9.983 -10.438,9.983 -5.447,0 -9.983,-4.541 -9.983,-9.983 -10e-4,-5.902 4.536,-10.439 9.983,-10.439 z"
         id="path78"
         style="fill:#e5e5e5;fill-opacity:1" />
      <path
         d="m 459.50712,115.424 c 5.899,0 10.438,4.537 10.438,10.441 0,5.445 -4.539,9.982 -10.438,9.982 -5.447,0 -9.983,-4.537 -9.983,-9.982 -10e-4,-5.904 4.536,-10.441 9.983,-10.441 z"
         id="path80"
         style="fill:#e5e5e5;fill-opacity:1" />
      <path
         d="m 459.50712,135.594 c 5.899,0 10.438,4.543 10.438,10.438 0,5.453 -4.539,9.984 -10.438,9.984 -5.447,0 -9.983,-4.531 -9.983,-9.984 -10e-4,-5.895 4.536,-10.438 9.983,-10.438 z"
         id="path82"
         style="fill:#e5e5e5;fill-opacity:1" />
      <path
         d="m 490.07012,54.914 c 5.9,0 10.439,4.54 10.439,10.436 0,5.454 -4.539,9.983 -10.439,9.983 -5.445,0 -9.985,-4.53 -9.985,-9.983 0,-5.897 4.54,-10.436 9.985,-10.436 z"
         id="path84"
         style="fill:#e5e5e5;fill-opacity:1" />
      <path
         d="m 490.07012,75.083 c 5.9,0 10.439,4.542 10.439,10.438 0,5.448 -4.539,9.983 -10.439,9.983 -5.445,0 -9.985,-4.535 -9.985,-9.983 0,-5.896 4.54,-10.438 9.985,-10.438 z"
         id="path86"
         style="fill:#e5e5e5;fill-opacity:1" />
      <path
         d="m 490.07012,95.255 c 5.9,0 10.439,4.536 10.439,10.439 0,5.442 -4.539,9.983 -10.439,9.983 -5.445,0 -9.985,-4.541 -9.985,-9.983 0,-5.902 4.54,-10.439 9.985,-10.439 z"
         id="path88"
         style="fill:#e5e5e5;fill-opacity:1" />
      <path
         d="m 490.07012,115.424 c 5.9,0 10.439,4.537 10.439,10.441 0,5.445 -4.539,9.982 -10.439,9.982 -5.445,0 -9.985,-4.537 -9.985,-9.982 0,-5.904 4.54,-10.441 9.985,-10.441 z"
         id="path90"
         style="fill:#e5e5e5;fill-opacity:1" />
      <path
         d="m 490.07012,135.594 c 5.9,0 10.439,4.543 10.439,10.438 0,5.453 -4.539,9.984 -10.439,9.984 -5.445,0 -9.985,-4.531 -9.985,-9.984 0,-5.895 4.54,-10.438 9.985,-10.438 z"
         id="path92"
         style="fill:#e5e5e5;fill-opacity:1" />
      <path
         d="m 510.24112,54.914 c 5.898,0 10.438,4.54 10.438,10.436 0,5.454 -4.54,9.983 -10.438,9.983 -5.447,0 -9.983,-4.53 -9.983,-9.983 0,-5.897 4.536,-10.436 9.983,-10.436 z"
         id="path94"
         style="fill:#e5e5e5;fill-opacity:1" />
      <path
         d="m 510.24112,95.255 c 5.898,0 10.438,4.536 10.438,10.439 0,5.442 -4.54,9.983 -10.438,9.983 -5.447,0 -9.983,-4.541 -9.983,-9.983 0,-5.902 4.536,-10.439 9.983,-10.439 z"
         id="path96"
         style="fill:#e5e5e5;fill-opacity:1" />
      <path
         d="m 510.24112,135.594 c 5.898,0 10.438,4.543 10.438,10.438 0,5.453 -4.54,9.984 -10.438,9.984 -5.447,0 -9.983,-4.531 -9.983,-9.984 0,-5.895 4.536,-10.438 9.983,-10.438 z"
         id="path98"
         style="fill:#e5e5e5;fill-opacity:1" />
      <path
         d="m 530.41112,54.914 c 5.899,0 10.439,4.54 10.439,10.436 0,5.454 -4.54,9.983 -10.439,9.983 -5.447,0 -9.982,-4.53 -9.982,-9.983 0,-5.897 4.535,-10.436 9.982,-10.436 z"
         id="path100"
         style="fill:#e5e5e5;fill-opacity:1" />
      <path
         d="m 530.41112,95.255 c 5.899,0 10.439,4.536 10.439,10.439 0,5.442 -4.54,9.983 -10.439,9.983 -5.447,0 -9.982,-4.541 -9.982,-9.983 0,-5.902 4.535,-10.439 9.982,-10.439 z"
         id="path102"
         style="fill:#e5e5e5;fill-opacity:1" />
      <path
         d="m 530.41112,135.594 c 5.899,0 10.439,4.543 10.439,10.438 0,5.453 -4.54,9.984 -10.439,9.984 -5.447,0 -9.982,-4.531 -9.982,-9.984 0,-5.895 4.535,-10.438 9.982,-10.438 z"
         id="path104"
         style="fill:#e5e5e5;fill-opacity:1" />
      <path
         d="m 550.58212,54.914 c 5.899,0 10.438,4.54 10.438,10.436 0,5.454 -4.539,9.983 -10.438,9.983 -5.447,0 -9.983,-4.53 -9.983,-9.983 0,-5.897 4.536,-10.436 9.983,-10.436 z"
         id="path106"
         style="fill:#e5e5e5;fill-opacity:1" />
      <path
         d="m 550.58212,95.255 c 5.899,0 10.438,4.536 10.438,10.439 0,5.442 -4.539,9.983 -10.438,9.983 -5.447,0 -9.983,-4.541 -9.983,-9.983 0,-5.902 4.536,-10.439 9.983,-10.439 z"
         id="path108"
         style="fill:#e5e5e5;fill-opacity:1" />
      <path
         d="m 550.52812,135.594 c 5.899,0 10.439,4.543 10.439,10.438 0,5.453 -4.54,9.984 -10.439,9.984 -5.446,0 -9.982,-4.531 -9.982,-9.984 0,-5.895 4.536,-10.438 9.982,-10.438 z"
         id="path110"
         style="fill:#e5e5e5;fill-opacity:1" />
      <path
         d="m 570.75612,54.914 c 5.896,0 10.436,4.54 10.436,10.436 0,5.454 -4.54,9.983 -10.436,9.983 -5.45,0 -9.986,-4.53 -9.986,-9.983 -10e-4,-5.897 4.536,-10.436 9.986,-10.436 z"
         id="path112"
         style="fill:#e5e5e5;fill-opacity:1" />
      <path
         d="m 570.75612,135.594 c 5.896,0 10.436,4.543 10.436,10.438 0,5.453 -4.54,9.984 -10.436,9.984 -5.45,0 -9.986,-4.531 -9.986,-9.984 -10e-4,-5.895 4.536,-10.438 9.986,-10.438 z"
         id="path114"
         style="fill:#e5e5e5;fill-opacity:1" />
      <path
         d="m 601.31312,54.914 c 5.899,0 10.442,4.54 10.442,10.436 0,5.454 -4.543,9.983 -10.442,9.983 -5.442,0 -9.982,-4.53 -9.982,-9.983 0,-5.897 4.54,-10.436 9.982,-10.436 z"
         id="path116"
         style="fill:#e5e5e5;fill-opacity:1" />
      <path
         d="m 601.31312,75.083 c 5.899,0 10.442,4.542 10.442,10.438 0,5.448 -4.543,9.983 -10.442,9.983 -5.442,0 -9.982,-4.535 -9.982,-9.983 0,-5.896 4.54,-10.438 9.982,-10.438 z"
         id="path118"
         style="fill:#e5e5e5;fill-opacity:1" />
      <path
         d="m 601.31312,95.255 c 5.899,0 10.442,4.536 10.442,10.439 0,5.442 -4.543,9.983 -10.442,9.983 -5.442,0 -9.982,-4.541 -9.982,-9.983 0,-5.902 4.54,-10.439 9.982,-10.439 z"
         id="path120"
         style="fill:#e5e5e5;fill-opacity:1" />
      <path
         d="m 601.31312,115.424 c 5.899,0 10.442,4.537 10.442,10.441 0,5.445 -4.543,9.982 -10.442,9.982 -5.442,0 -9.982,-4.537 -9.982,-9.982 0,-5.904 4.54,-10.441 9.982,-10.441 z"
         id="path122"
         style="fill:#e5e5e5;fill-opacity:1" />
      <path
         d="m 601.31312,135.594 c 5.899,0 10.442,4.543 10.442,10.438 0,5.453 -4.543,9.984 -10.442,9.984 -5.442,0 -9.982,-4.531 -9.982,-9.984 0,-5.895 4.54,-10.438 9.982,-10.438 z"
         id="path124"
         style="fill:#e5e5e5;fill-opacity:1" />
      <path
         d="m 621.48612,75.083 c 5.9,0 10.44,4.542 10.44,10.438 0,5.448 -4.54,9.983 -10.44,9.983 -5.449,0 -9.985,-4.535 -9.985,-9.983 0,-5.896 4.536,-10.438 9.985,-10.438 z"
         id="path126"
         style="fill:#e5e5e5;fill-opacity:1" />
      <path
         d="m 641.65912,95.255 c 5.898,0 10.435,4.536 10.435,10.439 0,5.442 -4.536,9.983 -10.435,9.983 -5.447,0 -9.987,-4.541 -9.987,-9.983 0,-5.902 4.54,-10.439 9.987,-10.439 z"
         id="path128"
         style="fill:#e5e5e5;fill-opacity:1" />
      <path
         d="m 661.82812,115.424 c 5.902,0 10.438,4.537 10.438,10.441 0,5.445 -4.536,9.982 -10.438,9.982 -5.447,0 -9.983,-4.537 -9.983,-9.982 0,-5.904 4.536,-10.441 9.983,-10.441 z"
         id="path130"
         style="fill:#e5e5e5;fill-opacity:1" />
      <path
         d="m 681.99612,54.914 c 5.903,0 10.438,4.54 10.438,10.436 0,5.454 -4.535,9.983 -10.438,9.983 -5.439,0 -9.983,-4.53 -9.983,-9.983 0,-5.897 4.544,-10.436 9.983,-10.436 z"
         id="path132"
         style="fill:#e5e5e5;fill-opacity:1" />
      <path
         d="m 681.99612,75.083 c 5.903,0 10.438,4.542 10.438,10.438 0,5.448 -4.535,9.983 -10.438,9.983 -5.439,0 -9.983,-4.535 -9.983,-9.983 0,-5.896 4.544,-10.438 9.983,-10.438 z"
         id="path134"
         style="fill:#e5e5e5;fill-opacity:1" />
      <path
         d="m 681.99612,95.255 c 5.903,0 10.438,4.536 10.438,10.439 0,5.442 -4.535,9.983 -10.438,9.983 -5.439,0 -9.983,-4.541 -9.983,-9.983 0,-5.902 4.544,-10.439 9.983,-10.439 z"
         id="path136"
         style="fill:#e5e5e5;fill-opacity:1" />
      <path
         d="m 681.99612,115.424 c 5.903,0 10.438,4.537 10.438,10.441 0,5.445 -4.535,9.982 -10.438,9.982 -5.439,0 -9.983,-4.537 -9.983,-9.982 0,-5.904 4.544,-10.441 9.983,-10.441 z"
         id="path138"
         style="fill:#e5e5e5;fill-opacity:1" />
      <path
         d="m 681.99612,135.594 c 5.903,0 10.438,4.543 10.438,10.438 0,5.453 -4.535,9.984 -10.438,9.984 -5.439,0 -9.983,-4.531 -9.983,-9.984 0,-5.895 4.544,-10.438 9.983,-10.438 z"
         id="path140"
         style="fill:#e5e5e5;fill-opacity:1" />
      <path
         d="m 712.56012,54.914 c 5.903,0 10.439,4.54 10.439,10.436 0,5.454 -4.536,9.983 -10.439,9.983 -5.446,0 -9.982,-4.53 -9.982,-9.983 -10e-4,-5.897 4.535,-10.436 9.982,-10.436 z"
         id="path142"
         style="fill:#e5e5e5;fill-opacity:1" />
      <path
         d="m 712.56012,75.083 c 5.903,0 10.439,4.542 10.439,10.438 0,5.448 -4.536,9.983 -10.439,9.983 -5.446,0 -9.982,-4.535 -9.982,-9.983 -10e-4,-5.896 4.535,-10.438 9.982,-10.438 z"
         id="path144"
         style="fill:#e5e5e5;fill-opacity:1" />
      <path
         d="m 712.56012,95.255 c 5.903,0 10.439,4.536 10.439,10.439 0,5.442 -4.536,9.983 -10.439,9.983 -5.446,0 -9.982,-4.541 -9.982,-9.983 -10e-4,-5.902 4.535,-10.439 9.982,-10.439 z"
         id="path146"
         style="fill:#e5e5e5;fill-opacity:1" />
      <path
         d="m 712.56012,115.424 c 5.903,0 10.439,4.537 10.439,10.441 0,5.445 -4.536,9.982 -10.439,9.982 -5.446,0 -9.982,-4.537 -9.982,-9.982 -10e-4,-5.904 4.535,-10.441 9.982,-10.441 z"
         id="path148"
         style="fill:#e5e5e5;fill-opacity:1" />
      <path
         d="m 712.56012,135.594 c 5.903,0 10.439,4.543 10.439,10.438 0,5.453 -4.536,9.984 -10.439,9.984 -5.446,0 -9.982,-4.531 -9.982,-9.984 -10e-4,-5.895 4.535,-10.438 9.982,-10.438 z"
         id="path150"
         style="fill:#e5e5e5;fill-opacity:1" />
      <path
         d="m 732.73512,54.914 c 5.897,0 10.434,4.54 10.434,10.436 0,5.454 -4.536,9.983 -10.434,9.983 -5.445,0 -9.988,-4.53 -9.988,-9.983 0,-5.897 4.543,-10.436 9.988,-10.436 z"
         id="path152"
         style="fill:#e5e5e5;fill-opacity:1" />
      <path
         d="m 732.73512,95.255 c 5.897,0 10.434,4.536 10.434,10.439 0,5.442 -4.536,9.983 -10.434,9.983 -5.445,0 -9.988,-4.541 -9.988,-9.983 0,-5.902 4.543,-10.439 9.988,-10.439 z"
         id="path154"
         style="fill:#e5e5e5;fill-opacity:1" />
      <path
         d="m 732.73512,135.594 c 5.897,0 10.434,4.543 10.434,10.438 0,5.453 -4.536,9.984 -10.434,9.984 -5.445,0 -9.988,-4.531 -9.988,-9.984 0,-5.895 4.543,-10.438 9.988,-10.438 z"
         id="path156"
         style="fill:#e5e5e5;fill-opacity:1" />
      <path
         d="m 752.90412,54.914 c 5.899,0 10.436,4.54 10.436,10.436 0,5.454 -4.536,9.983 -10.436,9.983 -5.45,0 -9.986,-4.53 -9.986,-9.983 0,-5.897 4.536,-10.436 9.986,-10.436 z"
         id="path158"
         style="fill:#e5e5e5;fill-opacity:1" />
      <path
         d="m 752.90412,95.255 c 5.899,0 10.436,4.536 10.436,10.439 0,5.442 -4.536,9.983 -10.436,9.983 -5.45,0 -9.986,-4.541 -9.986,-9.983 0,-5.902 4.536,-10.439 9.986,-10.439 z"
         id="path160"
         style="fill:#e5e5e5;fill-opacity:1" />
      <path
         d="m 752.90412,135.594 c 5.899,0 10.436,4.543 10.436,10.438 0,5.453 -4.536,9.984 -10.436,9.984 -5.45,0 -9.986,-4.531 -9.986,-9.984 0,-5.895 4.536,-10.438 9.986,-10.438 z"
         id="path162"
         style="fill:#e5e5e5;fill-opacity:1" />
      <path
         d="m 773.07312,54.914 c 5.903,0 10.437,4.54 10.437,10.436 0,5.454 -4.533,9.983 -10.437,9.983 -5.442,0 -9.985,-4.53 -9.985,-9.983 0,-5.897 4.543,-10.436 9.985,-10.436 z"
         id="path164"
         style="fill:#e5e5e5;fill-opacity:1" />
      <path
         d="m 773.07312,95.255 c 5.903,0 10.437,4.536 10.437,10.439 0,5.442 -4.533,9.983 -10.437,9.983 -5.442,0 -9.985,-4.541 -9.985,-9.983 0,-5.902 4.543,-10.439 9.985,-10.439 z"
         id="path166"
         style="fill:#e5e5e5;fill-opacity:1" />
      <path
         d="m 773.07312,135.594 c 5.903,0 10.437,4.543 10.437,10.438 0,5.453 -4.533,9.984 -10.437,9.984 -5.442,0 -9.985,-4.531 -9.985,-9.984 0,-5.895 4.543,-10.438 9.985,-10.438 z"
         id="path168"
         style="fill:#e5e5e5;fill-opacity:1" />
      <path
         d="m 793.24412,54.914 c 5.896,0 10.438,4.54 10.438,10.436 0,5.454 -4.543,9.983 -10.438,9.983 -5.447,0 -9.983,-4.53 -9.983,-9.983 0,-5.897 4.536,-10.436 9.983,-10.436 z"
         id="path170"
         style="fill:#e5e5e5;fill-opacity:1" />
      <path
         d="m 793.24412,135.594 c 5.896,0 10.438,4.543 10.438,10.438 0,5.453 -4.543,9.984 -10.438,9.984 -5.447,0 -9.983,-4.531 -9.983,-9.984 0,-5.895 4.536,-10.438 9.983,-10.438 z"
         id="path172"
         style="fill:#e5e5e5;fill-opacity:1" />
      <path
         d="m 123.82339,54.317384 c 5.9,0 10.44,4.54 10.44,10.436 0,5.454 -4.54,9.983 -10.44,9.983 -5.444,0 -9.984,-4.53 -9.984,-9.983 0,-5.897 4.539,-10.436 9.984,-10.436 z"
         id="path34-0-0"
         style="display:inline;opacity:1;fill:#e5e5e5;fill-opacity:1;stroke-width:1" />
      <path
         d="m 193.17896,54.914 c 5.899,0 10.442,4.54 10.442,10.436 0,5.454 -4.543,9.983 -10.442,9.983 -5.442,0 -9.982,-4.53 -9.982,-9.983 0,-5.897 4.54,-10.436 9.982,-10.436 z"
         id="path116-9"
         style="display:inline;opacity:1;fill:#e5e5e5;fill-opacity:1;stroke-width:1" />
      <path
         d="m 193.17896,75.083 c 5.899,0 10.442,4.542 10.442,10.438 0,5.448 -4.543,9.983 -10.442,9.983 -5.442,0 -9.982,-4.535 -9.982,-9.983 0,-5.896 4.54,-10.438 9.982,-10.438 z"
         id="path118-1"
         style="display:inline;opacity:1;fill:#e5e5e5;fill-opacity:1;stroke-width:1" />
      <path
         d="m 193.17896,95.255 c 5.899,0 10.442,4.536 10.442,10.439 0,5.442 -4.543,9.983 -10.442,9.983 -5.442,0 -9.982,-4.541 -9.982,-9.983 0,-5.902 4.54,-10.439 9.982,-10.439 z"
         id="path120-2"
         style="display:inline;opacity:1;fill:#e5e5e5;fill-opacity:1;stroke-width:1" />
      <path
         d="m 193.17896,115.424 c 5.899,0 10.442,4.537 10.442,10.441 0,5.445 -4.543,9.982 -10.442,9.982 -5.442,0 -9.982,-4.537 -9.982,-9.982 0,-5.904 4.54,-10.441 9.982,-10.441 z"
         id="path122-2"
         style="display:inline;opacity:1;fill:#e5e5e5;fill-opacity:1;stroke-width:1" />
      <path
         d="m 193.17896,135.594 c 5.899,0 10.442,4.543 10.442,10.438 0,5.453 -4.543,9.984 -10.442,9.984 -5.442,0 -9.982,-4.531 -9.982,-9.984 0,-5.895 4.54,-10.438 9.982,-10.438 z"
         id="path124-1"
         style="display:inline;opacity:1;fill:#e5e5e5;fill-opacity:1;stroke-width:1" />
      <path
         d="m 213.60395,135.594 c 5.9,0 10.438,4.543 10.438,10.438 0,5.453 -4.539,9.984 -10.438,9.984 -5.44499,0 -9.98299,-4.531 -9.98299,-9.984 0,-5.895 4.539,-10.438 9.98299,-10.438 z"
         id="path42-8-0"
         style="display:inline;opacity:1;fill:#e5e5e5;fill-opacity:1;stroke-width:1" />
      <path
         d="m 233.77494,135.594 c 5.9,0 10.439,4.543 10.439,10.438 0,5.453 -4.54,9.984 -10.439,9.984 -5.44599,0 -9.98299,-4.531 -9.98299,-9.984 0,-5.895 4.537,-10.438 9.98299,-10.438 z"
         id="path44-7"
         style="display:inline;opacity:1;fill:#e5e5e5;fill-opacity:1;stroke-width:1" />
      <path
         d="m 253.94593,135.594 c 5.899,0 10.438,4.543 10.438,10.438 0,5.453 -4.539,9.984 -10.438,9.984 -5.44799,0 -9.98299,-4.531 -9.98299,-9.984 0,-5.895 4.536,-10.438 9.98299,-10.438 z"
         id="path46-6"
         style="display:inline;opacity:1;fill:#e5e5e5;fill-opacity:1;stroke-width:1" />
      <path
         d="m 270.56268,56.109024 c 5.9,0 10.439,4.54 10.439,10.436 0,5.454 -4.54,9.983 -10.439,9.983 -5.443,0 -9.983,-4.53 -9.983,-9.983 0,-5.897 4.54,-10.436 9.983,-10.436 z"
         id="path62-6"
         style="display:inline;opacity:1;fill:#e5e5e5;fill-opacity:1;stroke-width:1" />
      <path
         d="m 290.70052,75.578047 c 5.9,0 10.44,4.54 10.44,10.435995 0,5.453995 -4.54,9.982995 -10.44,9.982995 -5.444,0 -9.984,-4.53 -9.984,-9.982995 0,-5.896995 4.539,-10.435995 9.984,-10.435995 z"
         id="path34-0-1"
         style="display:inline;opacity:1;fill:#e5e5e5;fill-opacity:1;stroke-width:1" />
      <path
         d="m 331.75717,74.490495 c 5.899,0 10.439,4.54 10.439,10.435995 0,5.453995 -4.54,9.982995 -10.439,9.982995 -5.44599,0 -9.98299,-4.53 -9.98299,-9.982995 -10e-4,-5.896995 4.536,-10.435995 9.98299,-10.435995 z"
         id="path48-3"
         style="display:inline;opacity:1;fill:#e5e5e5;fill-opacity:1;stroke-width:1" />
      <path
         d="m 312.21588,94.659485 c 5.899,0 10.439,4.542 10.439,10.437995 0,5.448 -4.54,9.983 -10.439,9.983 -5.44599,0 -9.98299,-4.535 -9.98299,-9.983 -10e-4,-5.895995 4.536,-10.437995 9.98299,-10.437995 z"
         id="path50-6"
         style="display:inline;opacity:1;fill:#e5e5e5;fill-opacity:1;stroke-width:1" />
      <path
         d="m 351.58545,54.352605 c 5.9,0 10.44,4.54 10.44,10.435995 0,5.454 -4.54,9.982995 -10.44,9.982995 -5.44399,0 -9.984,-4.529995 -9.984,-9.982995 0,-5.896995 4.53901,-10.435995 9.984,-10.435995 z"
         id="path34-0-0-8"
         style="display:inline;opacity:1;fill:#e5e5e5;fill-opacity:1;stroke-width:1" />
      <path
         d="m 312.21588,115.08048 c 5.899,0 10.439,4.542 10.439,10.438 0,5.448 -4.54,9.983 -10.439,9.983 -5.44599,0 -9.98299,-4.535 -9.98299,-9.983 -10e-4,-5.896 4.536,-10.438 9.98299,-10.438 z"
         id="path50-6-7"
         style="display:inline;opacity:1;fill:#e5e5e5;fill-opacity:1;stroke-width:1" />
      <path
         d="m 312.21588,135.50148 c 5.899,0 10.439,4.542 10.439,10.43799 0,5.448 -4.54,9.983 -10.439,9.983 -5.44599,0 -9.98299,-4.535 -9.98299,-9.983 -10e-4,-5.89599 4.536,-10.43799 9.98299,-10.43799 z"
         id="path50-6-3"
         style="display:inline;opacity:1;fill:#e5e5e5;fill-opacity:1;stroke-width:1" />
    </g>
    <g
       aria-label="HITS"
       id="text1057"
       style="font-style:normal;font-weight:normal;font-size:3.04118px;line-height:1.25;font-family:sans-serif;display:inline;opacity:1;fill:#f5f5f5;fill-opacity:1;stroke:none;stroke-width:0.0760299"
       transform="translate(-0.096663,15.386097)">
      <path
         d="m 27.538528,223.20528 v -2.01326 h 0.228089 v 0.8941 h 1.170854 v -0.8941 h 0.228088 v 2.01326 h -0.228088 v -0.89715 h -1.170854 v 0.89715 z"
         style="font-style:normal;font-variant:normal;font-weight:normal;font-stretch:normal;font-family:Questrial;-inkscape-font-specification:Questrial;fill:#f5f5f5;fill-opacity:1;stroke-width:0.0760299"
         id="path1059" />
      <path
         d="m 29.658226,223.20528 v -2.01326 h 0.228089 v 2.01326 z"
         style="font-style:normal;font-variant:normal;font-weight:normal;font-stretch:normal;font-family:Questrial;-inkscape-font-specification:Questrial;fill:#f5f5f5;fill-opacity:1;stroke-width:0.0760299"
         id="path1061" />
      <path
         d="m 30.877738,223.20528 v -1.79734 h -0.702513 v -0.21592 h 1.633114 v 0.21592 h -0.702513 v 1.79734 z"
         style="font-style:normal;font-variant:normal;font-weight:normal;font-stretch:normal;font-family:Questrial;-inkscape-font-specification:Questrial;fill:#f5f5f5;fill-opacity:1;stroke-width:0.0760299"
         id="path1063" />
      <path
         d="m 32.818006,223.22961 q -0.298035,0 -0.483547,-0.0791 -0.185512,-0.0821 -0.279789,-0.22505 -0.09124,-0.14294 -0.106441,-0.32237 h 0.237212 q 0.0091,0.14598 0.09732,0.23721 0.08819,0.0882 0.231129,0.13078 0.145977,0.0426 0.319324,0.0426 0.255459,0 0.404477,-0.0882 0.149018,-0.0912 0.149018,-0.26763 0,-0.10644 -0.07603,-0.1703 -0.07299,-0.0669 -0.197676,-0.10948 -0.121647,-0.0426 -0.267624,-0.076 -0.145977,-0.0365 -0.294994,-0.076 -0.145977,-0.0395 -0.270665,-0.10036 -0.121648,-0.0608 -0.197677,-0.1551 -0.07299,-0.0973 -0.07299,-0.24634 0,-0.24633 0.188554,-0.40143 0.191594,-0.1551 0.5687,-0.1551 0.267624,0 0.440971,0.0821 0.173348,0.0791 0.258501,0.20984 0.08819,0.13077 0.09732,0.28283 h -0.23417 q -0.01825,-0.15206 -0.152059,-0.25546 -0.133812,-0.10644 -0.41056,-0.10644 -0.170306,0 -0.276747,0.0334 -0.106441,0.0335 -0.164224,0.0882 -0.05474,0.0517 -0.07603,0.10948 -0.01825,0.0578 -0.01825,0.10948 0,0.10036 0.07299,0.16422 0.07603,0.0608 0.197677,0.1034 0.124688,0.0395 0.273706,0.073 0.149018,0.0335 0.294994,0.076 0.149018,0.0395 0.270665,0.1034 0.124689,0.0608 0.197677,0.15814 0.07603,0.0973 0.07603,0.24938 0,0.27979 -0.212882,0.43185 -0.212883,0.14902 -0.583907,0.14902 z"
         style="font-style:normal;font-variant:normal;font-weight:normal;font-stretch:normal;font-family:Questrial;-inkscape-font-specification:Questrial;fill:#f5f5f5;fill-opacity:1;stroke-width:0.0760299"
         id="path1065" />
    </g>
  </g>
  <g
     inkscape:groupmode="layer"
     id="layer2"
     inkscape:label="components"
     style="display:none;opacity:0.794788">
    <circle
       style="fill:#ff0000;fill-opacity:1;stroke:none;stroke-width:0.302023;stroke-miterlimit:4;stroke-dasharray:none;stroke-opacity:1"
       id="path1082"
       cx="10.63625"
       cy="79.066681"
       r="7.2680302"
       inkscape:label="length_knob" />
    <circle
       style="fill:#ff0000;fill-opacity:1;stroke:none;stroke-width:0.318144;stroke-miterlimit:4;stroke-dasharray:none;stroke-opacity:1"
       id="path1082-3"
       cx="30.480001"
       cy="79.066681"
       r="7.2680302"
       inkscape:label="hits_knob" />
    <ellipse
       style="fill:#ff0000;fill-opacity:1;stroke:none;stroke-width:0.256649;stroke-miterlimit:4;stroke-dasharray:none;stroke-opacity:1"
       id="path1082-2"
       cx="13.017497"
       cy="111.08126"
       inkscape:label="reverse_switch"
       rx="5.4667501"
       ry="5.6418333" />
    <ellipse
       style="fill:#ff0000;fill-opacity:1;stroke:none;stroke-width:0.209244;stroke-miterlimit:4;stroke-dasharray:none;stroke-opacity:1"
       id="path1082-7"
       cx="70.149101"
       cy="111.61043"
       inkscape:label="invert_switch"
       rx="5.3100858"
       ry="5.3285041" />
    <circle
       style="fill:#00ff00;fill-opacity:1;stroke:none;stroke-width:0.212039;stroke-miterlimit:4;stroke-dasharray:none;stroke-opacity:1"
       id="path1082-1"
       cx="13.282083"
       cy="96.529175"
       r="4.8440595"
       inkscape:label="length_cv_port" />
    <circle
       style="fill:#00ff00;fill-opacity:1;stroke:none;stroke-width:0.206667;stroke-miterlimit:4;stroke-dasharray:none;stroke-opacity:1"
       id="path1082-3-0"
       cx="30.480001"
       cy="96.529175"
       r="4.8440614"
       inkscape:label="hits_cv_port" />
    <circle
       style="fill:#00ff00;fill-opacity:1;stroke:none;stroke-width:0.201295;stroke-miterlimit:4;stroke-dasharray:none;stroke-opacity:1"
       id="path1082-2-0"
       cx="29.686258"
       cy="111.61043"
       r="4.8440623"
       inkscape:label="reverse_cv_port" />
    <circle
       style="fill:#00ff00;fill-opacity:1;stroke:none;stroke-width:0.206667;stroke-miterlimit:4;stroke-dasharray:none;stroke-opacity:1"
       id="path1082-7-9"
       cx="49.472683"
       cy="111.12727"
       r="4.8440623"
       inkscape:label="invert_cv_port" />
    <circle
       style="fill:#0000ff;fill-opacity:1;stroke:none;stroke-width:0.212039;stroke-miterlimit:4;stroke-dasharray:none;stroke-opacity:1"
       id="path1082-1-4"
       cx="72.284187"
       cy="23.239584"
       r="4.8440628"
       inkscape:label="beat_port" />
    <circle
       style="display:inline;opacity:0.94;fill:#00ff00;fill-opacity:1;stroke:none;stroke-width:0.212039;stroke-miterlimit:4;stroke-dasharray:none;stroke-opacity:1"
       id="path1082-1-6"
       cx="6.6675005"
       cy="23.239584"
       r="4.8440604"
       inkscape:label="clock_port" />
    <circle
       style="display:inline;opacity:0.94;fill:#00ff00;fill-opacity:1;stroke:none;stroke-width:0.212039;stroke-miterlimit:4;stroke-dasharray:none;stroke-opacity:1"
       id="path1082-1-6-7"
       cx="6.6675005"
       cy="40.4375"
       r="4.8440619"
       inkscape:label="sync_port" />
    <circle
       style="display:inline;opacity:0.94;fill:#ff0000;fill-opacity:1;stroke:none;stroke-width:0.302023;stroke-miterlimit:4;stroke-dasharray:none;stroke-opacity:1"
       id="path1082-6"
       cx="50.323753"
       cy="79.066681"
       r="7.2680302"
       inkscape:label="shift_knob" />
    <circle
       style="display:inline;opacity:0.94;fill:#00ff00;fill-opacity:1;stroke:none;stroke-width:0.201295;stroke-miterlimit:4;stroke-dasharray:none;stroke-opacity:1"
       id="path1082-2-0-0"
       cx="49.667038"
       cy="96.491356"
       r="4.8440595"
       inkscape:label="shift_cv_port" />
    <rect
       style="display:inline;fill:#ffff00;fill-opacity:1;stroke:none;stroke-width:0.105073;stroke-miterlimit:4;stroke-dasharray:none;stroke-opacity:1"
       id="rect1106"
       width="50"
       height="50"
       x="15.012628"
       y="15.008615"
       inkscape:label="display" />
    <circle
       style="display:inline;opacity:0.94;fill:#ff0000;fill-opacity:1;stroke:none;stroke-width:0.302022;stroke-miterlimit:4;stroke-dasharray:none;stroke-opacity:1"
       id="path1082-6-0"
       cx="50.401073"
       cy="79.061661"
       r="7.2680302"
       inkscape:label="shift_knob" />
    <circle
       style="display:inline;opacity:0.94;fill:#ff0000;fill-opacity:1;stroke:none;stroke-width:0.302022;stroke-miterlimit:4;stroke-dasharray:none;stroke-opacity:1"
       id="path1082-6-0-2"
       cx="70.215782"
       cy="79.163956"
       r="7.2680302"
       inkscape:label="oddity_knob" />
    <circle
       style="display:inline;opacity:0.94;fill:#00ff00;fill-opacity:1;stroke:none;stroke-width:0.201295;stroke-miterlimit:4;stroke-dasharray:none;stroke-opacity:1"
       id="path1082-2-0-0-7"
       cx="70.027191"
       cy="96.485916"
       r="4.8440595"
       inkscape:label="oddity_cv_port" />
    <circle
       style="display:inline;opacity:0.94;fill:#ff0000;fill-opacity:1;stroke:none;stroke-width:0.23441;stroke-miterlimit:4;stroke-dasharray:none;stroke-opacity:1"
       id="path1082-6-8-1-6"
       cx="72.241096"
       cy="39.479446"
       r="5.6409659"
       inkscape:label="channel_knob" />
  </g>
</svg>
