<?xml version="1.0" encoding="UTF-8" standalone="no"?>
<svg
   xmlns:dc="http://purl.org/dc/elements/1.1/"
   xmlns:cc="http://creativecommons.org/ns#"
   xmlns:rdf="http://www.w3.org/1999/02/22-rdf-syntax-ns#"
   xmlns:svg="http://www.w3.org/2000/svg"
   xmlns="http://www.w3.org/2000/svg"
   xmlns:sodipodi="http://sodipodi.sourceforge.net/DTD/sodipodi-0.dtd"
   xmlns:inkscape="http://www.inkscape.org/namespaces/inkscape"
   width="10.651101mm"
   height="10.651101mm"
   viewBox="0 0 10.651101 10.651101"
   version="1.1"
   id="svg295"
   inkscape:version="1.0.1 (3bc2e813f5, 2020-09-07)"
   sodipodi:docname="polygene-light-rnd-switch-on.svg">
  <defs
     id="defs289">
    <mask
       maskUnits="userSpaceOnUse"
       id="mask1345">
      <circle
         style="fill:#666666;fill-opacity:1;stroke-width:0.0850262;stroke-miterlimit:4;stroke-dasharray:none"
         id="circle1347"
         cx="-48.166672"
         cy="-37.583336"
         r="32.085506" />
    </mask>
  </defs>
  <sodipodi:namedview
     id="base"
     pagecolor="#ffffff"
     bordercolor="#666666"
     borderopacity="1.0"
     inkscape:pageopacity="0.0"
     inkscape:pageshadow="2"
     inkscape:zoom="8.9446863"
     inkscape:cx="0.086865736"
     inkscape:cy="14.582667"
     inkscape:document-units="mm"
     inkscape:current-layer="layer1-5"
     inkscape:document-rotation="0"
     showgrid="true"
     inkscape:snap-bbox="true"
     inkscape:snap-nodes="true"
     inkscape:snap-object-midpoints="true"
     inkscape:snap-center="true"
     inkscape:snap-text-baseline="true"
     inkscape:snap-page="true"
     inkscape:window-width="1920"
     inkscape:window-height="1001"
     inkscape:window-x="2391"
     inkscape:window-y="287"
     inkscape:window-maximized="1"
     inkscape:snap-grids="true"
     inkscape:snap-to-guides="true"
     inkscape:snap-others="false"
     inkscape:snap-bbox-edge-midpoints="true"
     inkscape:bbox-paths="true"
     inkscape:snap-bbox-midpoints="true"
     inkscape:snap-global="true"
     inkscape:bbox-nodes="true"
     inkscape:snap-midpoints="true"
     inkscape:snap-smooth-nodes="true"
     inkscape:snap-intersection-paths="true"
     inkscape:object-paths="true">
    <inkscape:grid
       type="xygrid"
       id="grid309"
       originx="-7.4244491"
       originy="6.1588139"
       units="mm"
       spacingx="0.74999998"
       spacingy="0.74999998" />
  </sodipodi:namedview>
  <metadata
     id="metadata292">
    <rdf:RDF>
      <cc:Work
         rdf:about="">
        <dc:format>image/svg+xml</dc:format>
        <dc:type
           rdf:resource="http://purl.org/dc/dcmitype/StillImage" />
        <dc:title></dc:title>
      </cc:Work>
    </rdf:RDF>
  </metadata>
  <g
     inkscape:label="Layer 1"
     inkscape:groupmode="layer"
     id="layer1"
     transform="translate(-100.76726,-79.2463)">
    <g
       inkscape:label="Layer 1"
       id="layer1-5"
       transform="matrix(-0.03584035,0,0,-0.03584035,91.543423,90.867488)"
       style="display:inline;opacity:1">
      <circle
         style="display:inline;opacity:1;fill:#cf7608;fill-opacity:1;stroke:#1b1b1b;stroke-width:4.58146;stroke-linecap:round;stroke-miterlimit:4;stroke-dasharray:none;stroke-opacity:1"
         id="path856"
         cx="405.95004"
         cy="-175.65782"
         r="146.30019"
         transform="scale(-1)" />
      <circle
         style="display:inline;opacity:1;fill:#55452a;fill-opacity:1;stroke:#ff8f00;stroke-width:6.51175;stroke-linecap:round;stroke-miterlimit:4;stroke-dasharray:none;stroke-opacity:1"
         id="path856-7"
         cx="405.95004"
         cy="-175.65782"
         r="123.23363"
         transform="scale(-1)" />
      <path
         id="path856-7-9"
         style="display:inline;opacity:1;fill:#2b200b;fill-opacity:1;stroke:none;stroke-width:11.4728;stroke-linecap:round;stroke-miterlimit:4;stroke-dasharray:none;stroke-opacity:1"
         d="m -523.44102,187.80095 a 284.54377,283.66502 0 0 0 156.36499,25.29235 284.54377,283.66502 0 0 0 77.51498,-20.78702 117.95373,117.58945 0 0 0 0.44653,-31.6145 A 117.95373,117.58945 0 0 0 -420.47139,58.184216 117.95373,117.58945 0 0 0 -523.44102,187.80095 Z" />
      <g
         aria-label="RND"
         transform="matrix(-1.0515263,0,0,-1.0515263,-352.96937,16.733242)"
         id="text844"
         style="font-size:85.7332px;line-height:1.25;font-family:'Script MT Bold';-inkscape-font-specification:'Script MT Bold, ';display:inline;opacity:1;fill:#ff8f00;fill-opacity:1;stroke-width:2.14333">
        <path
           d="m -34.70562,-122.75936 v -56.75538 h 27.1774245 q 8.7447864,0 13.8887784,4.80106 5.2297251,4.80106 5.2297251,12.94571 0,5.48693 -2.1433299,8.74479 -2.0575968,3.25786 -5.2297252,4.97252 -3.1721284,1.62894 -6.3442568,2.40053 l 14.9175769,22.89077 H 5.1603181 l -13.717312,-21.77623 H -28.27563 v 21.77623 z m 6.42999,-27.86329 h 19.6329029 q 3.0863952,0 6.2585236,-0.94307 3.17212838,-0.94306 5.3154584,-3.34359 2.2290632,-2.48626 2.2290632,-6.85866 0,-5.40119 -3.6865276,-8.48758 -3.6865276,-3.17213 -9.7735848,-3.17213 H -28.27563 Z"
           style="font-style:normal;font-variant:normal;font-weight:normal;font-stretch:normal;font-family:Questrial;-inkscape-font-specification:Questrial;fill:#ff8f00;fill-opacity:1;stroke-width:2.14333"
           id="path846" />
        <path
           d="m 22.64978,-122.75936 v -56.75538 h 7.458789 l 35.064878,47.75339 v -47.75339 h 6.42999 v 56.75538 H 64.144649 L 29.07977,-170.68422 v 47.92486 z"
           style="font-style:normal;font-variant:normal;font-weight:normal;font-stretch:normal;font-family:Questrial;-inkscape-font-specification:Questrial;fill:#ff8f00;fill-opacity:1;stroke-width:2.14333"
           id="path848" />
        <path
           d="m 85.492195,-122.75936 v -56.75538 h 23.919565 q 5.05826,0 9.68785,1.97186 4.71533,1.88613 8.40185,5.57266 3.68653,3.68653 5.82986,8.91625 2.14333,5.22973 2.14333,11.91692 0,6.68719 -2.14333,11.91691 -2.14333,5.22973 -5.82986,8.91626 -3.68652,3.68652 -8.40185,5.65839 -4.62959,1.88613 -9.68785,1.88613 z m 6.42999,-6.08706 h 17.232375 q 6.08706,0 10.54518,-3.08639 4.45813,-3.0864 6.85866,-8.14466 2.48626,-5.05826 2.48626,-11.05958 0,-6.08706 -2.48626,-11.14532 -2.40053,-5.05826 -6.85866,-8.05892 -4.45812,-3.08639 -10.54518,-3.08639 H 91.922185 Z"
           style="font-style:normal;font-variant:normal;font-weight:normal;font-stretch:normal;font-family:Questrial;-inkscape-font-specification:Questrial;fill:#ff8f00;fill-opacity:1;stroke-width:2.14333"
           id="path850" />
      </g>
    </g>
  </g>
</svg>
