<?xml version="1.0" encoding="UTF-8" standalone="no"?>
<svg
   xmlns:dc="http://purl.org/dc/elements/1.1/"
   xmlns:cc="http://creativecommons.org/ns#"
   xmlns:rdf="http://www.w3.org/1999/02/22-rdf-syntax-ns#"
   xmlns:svg="http://www.w3.org/2000/svg"
   xmlns="http://www.w3.org/2000/svg"
   xmlns:sodipodi="http://sodipodi.sourceforge.net/DTD/sodipodi-0.dtd"
   xmlns:inkscape="http://www.inkscape.org/namespaces/inkscape"
   width="60.959999mm"
   height="128.5mm"
   viewBox="0 0 60.960001 128.5"
   version="1.1"
   id="svg8"
   inkscape:version="1.0.1 (3bc2e813f5, 2020-09-07)"
   sodipodi:docname="RareBreeds_Orbits_Eugene.svg">
  <defs
     id="defs2" />
  <sodipodi:namedview
     id="base"
     pagecolor="#ffffff"
     bordercolor="#666666"
     borderopacity="1.0"
     inkscape:pageopacity="0.0"
     inkscape:pageshadow="2"
     inkscape:zoom="1.320611"
     inkscape:cx="36.027887"
     inkscape:cy="276.36769"
     inkscape:document-units="mm"
     inkscape:current-layer="layer1"
     showgrid="false"
     inkscape:window-width="1836"
     inkscape:window-height="1009"
     inkscape:window-x="0"
     inkscape:window-y="25"
     inkscape:window-maximized="0"
     inkscape:document-rotation="0"
     inkscape:snap-bbox="true" />
  <metadata
     id="metadata5">
    <rdf:RDF>
      <cc:Work
         rdf:about="">
        <dc:format>image/svg+xml</dc:format>
        <dc:type
           rdf:resource="http://purl.org/dc/dcmitype/StillImage" />
        <dc:title />
      </cc:Work>
    </rdf:RDF>
  </metadata>
  <g
     inkscape:label="Layer 1"
     inkscape:groupmode="layer"
     id="layer1"
     transform="translate(0,-168.5)"
     style="display:inline;opacity:1">
    <rect
       style="opacity:1;fill:#333333;fill-opacity:1;stroke:none;stroke-width:0.471147;stroke-miterlimit:4;stroke-dasharray:none;stroke-opacity:1"
       id="rect910"
       width="60.959999"
       height="128.5"
       x="0"
       y="168.5" />
    <g
       transform="translate(4.4072759,-4.4263115)"
       aria-label="My Module"
       style="font-style:normal;font-variant:normal;font-weight:normal;font-stretch:normal;font-size:4.93888999999999978px;line-height:6.61458000000000013px;font-family:'Gotham Rounded';-inkscape-font-specification:'Gotham Rounded';font-variant-ligatures:normal;font-variant-caps:normal;font-variant-numeric:normal;font-feature-settings:normal;text-align:center;letter-spacing:0px;word-spacing:0px;writing-mode:lr-tb;text-anchor:middle;display:inline;fill:#000000;fill-opacity:1;stroke:none;stroke-width:0.26458300000000001px;stroke-linecap:butt;stroke-linejoin:miter;stroke-opacity:1"
       id="text1229">
      <flowRoot
         xml:space="preserve"
         id="flowRoot909"
         style="font-style:normal;font-weight:normal;font-size:40px;line-height:125%;font-family:sans-serif;letter-spacing:0px;word-spacing:0px;fill:#000000;fill-opacity:1;stroke:none;stroke-width:1px;stroke-linecap:butt;stroke-linejoin:miter;stroke-opacity:1"
         transform="matrix(0.26458333,0,0,0.26458333,-4.4072759,172.92631)"><flowRegion
           id="flowRegion911"><rect
             id="rect913"
             width="173.26733"
             height="52.475246"
             x="32.673267"
             y="6.46136" /></flowRegion><flowPara
           id="flowPara915">ΕὐκλείδηςΕὐκλείδηςstr</flowPara></flowRoot>
    </g>
    <g
       aria-label="Clk"
       style="font-style:normal;font-variant:normal;font-weight:normal;font-stretch:normal;font-size:4.23332999999999959px;line-height:125%;font-family:'Courier New';-inkscape-font-specification:'Courier New, Normal';font-variant-ligatures:normal;font-variant-caps:normal;font-variant-numeric:normal;font-feature-settings:normal;text-align:start;letter-spacing:0px;word-spacing:0px;writing-mode:lr-tb;text-anchor:start;fill:#ffffe3;fill-opacity:1;stroke:none;stroke-width:0.26458300000000001px;stroke-linecap:butt;stroke-linejoin:miter;stroke-opacity:1"
       id="text933"
       transform="translate(1.6326914,1.85998)">
      <path
         d="m 3.7262755,187.89099 v -0.12196 q 0,-0.062 0.022738,-0.0889 0.024805,-0.0269 0.064079,-0.0269 0.039274,0 0.062012,0.0269 0.024805,0.0269 0.024805,0.0889 v 0.48162 q 0,0.0641 -0.024805,0.0909 -0.022738,0.0269 -0.062012,0.0269 -0.03514,0 -0.059945,-0.0248 -0.022738,-0.0248 -0.026872,-0.0806 -0.010335,-0.17364 -0.1881022,-0.30799 -0.2397786,-0.18397 -0.5457031,-0.18397 -0.2005045,0 -0.3782714,0.0889 -0.1322917,0.0641 -0.2108399,0.1571 -0.1364257,0.16123 -0.217041,0.3576 -0.057878,0.14469 -0.057878,0.32659 v 0.30386 q 0,0.38861 0.2811198,0.67593 0.2811198,0.28525 0.6531901,0.28525 0.2232421,0 0.398942,-0.0971 0.1777669,-0.0971 0.3431315,-0.29352 0.03514,-0.0434 0.078548,-0.0434 0.037207,0 0.059945,0.0227 0.022738,0.0227 0.022738,0.0579 0,0.0476 -0.088883,0.1447 -0.1694987,0.19017 -0.3824056,0.28732 -0.2108398,0.0951 -0.4278808,0.0951 -0.1881022,0 -0.3824056,-0.0723 -0.1488281,-0.0558 -0.2459798,-0.13023 -0.097152,-0.0744 -0.2397786,-0.25011 -0.1405599,-0.17777 -0.1922363,-0.3266 -0.051676,-0.15089 -0.051676,-0.33073 v -0.35346 q 0,-0.25632 0.1364258,-0.52297 0.1384928,-0.26871 0.3762044,-0.41134 0.2397786,-0.1447 0.5188314,-0.1447 0.4299479,0 0.7400064,0.29353 z"
         style="font-style:normal;font-variant:normal;font-weight:normal;font-stretch:normal;font-size:4.23332999999999959px;font-family:'Courier New';-inkscape-font-specification:'Courier New, Normal';font-variant-ligatures:normal;font-variant-caps:normal;font-variant-numeric:normal;font-feature-settings:normal;text-align:start;writing-mode:lr-tb;text-anchor:start;fill:#ffffe3;fill-opacity:1;stroke-width:0.26458300000000001px"
         id="path1076"
         inkscape:connector-curvature="0" />
      <path
         d="m 5.5886941,187.47757 v 2.42053 H 6.270823 q 0.064079,0 0.09095,0.0248 0.026872,0.0227 0.026872,0.062 0,0.0372 -0.026872,0.062 -0.026872,0.0248 -0.09095,0.0248 H 4.7329324 q -0.062012,0 -0.088883,-0.0248 -0.026872,-0.0248 -0.026872,-0.062 0,-0.0393 0.026872,-0.062 0.026872,-0.0248 0.088883,-0.0248 h 0.6821289 v -2.24483 H 4.9148335 q -0.062012,0 -0.09095,-0.0248 -0.026872,-0.0248 -0.026872,-0.0641 0,-0.0372 0.026872,-0.062 0.026872,-0.0248 0.09095,-0.0248 z"
         style="font-style:normal;font-variant:normal;font-weight:normal;font-stretch:normal;font-size:4.23332999999999959px;font-family:'Courier New';-inkscape-font-specification:'Courier New, Normal';font-variant-ligatures:normal;font-variant-caps:normal;font-variant-numeric:normal;font-feature-settings:normal;text-align:start;writing-mode:lr-tb;text-anchor:start;fill:#ffffe3;fill-opacity:1;stroke-width:0.26458300000000001px"
         id="path1078"
         inkscape:connector-curvature="0" />
      <path
         d="m 7.6867572,189.29865 v 0.77308 H 7.279547 q -0.062012,0 -0.088883,-0.0248 -0.026872,-0.0248 -0.026872,-0.062 0,-0.0393 0.026872,-0.062 0.026872,-0.0248 0.088883,-0.0248 H 7.5131244 V 187.6533 H 7.279547 q -0.062012,0 -0.088883,-0.0248 -0.026872,-0.0248 -0.026872,-0.0641 0,-0.0372 0.026872,-0.062 0.026872,-0.0248 0.088883,-0.0248 h 0.4072102 v 1.59991 l 0.7379394,-0.62012 h -0.088883 q -0.062012,0 -0.088883,-0.0248 -0.026872,-0.0248 -0.026872,-0.062 0,-0.0393 0.026872,-0.0641 0.026872,-0.0248 0.088883,-0.0248 H 8.891852 q 0.064079,0 0.09095,0.0248 0.026872,0.0248 0.026872,0.0641 0,0.0372 -0.026872,0.062 -0.026872,0.0248 -0.09095,0.0248 H 8.691347 l -0.6779947,0.56637 0.8578287,0.87437 h 0.2005045 q 0.064079,0 0.090951,0.0248 0.026872,0.0227 0.026872,0.062 0,0.0372 -0.026872,0.062 -0.026872,0.0248 -0.090951,0.0248 H 8.509446 q -0.062012,0 -0.088883,-0.0248 -0.026872,-0.0248 -0.026872,-0.062 0,-0.0393 0.026872,-0.062 0.026872,-0.0248 0.088883,-0.0248 h 0.1219564 l -0.7462077,-0.76688 z"
         style="font-style:normal;font-variant:normal;font-weight:normal;font-stretch:normal;font-size:4.23332999999999959px;font-family:'Courier New';-inkscape-font-specification:'Courier New, Normal';font-variant-ligatures:normal;font-variant-caps:normal;font-variant-numeric:normal;font-feature-settings:normal;text-align:start;writing-mode:lr-tb;text-anchor:start;fill:#ffffe3;fill-opacity:1;stroke-width:0.26458300000000001px"
         id="path1080"
         inkscape:connector-curvature="0" />
    </g>
    <g
       aria-label="Sync"
       style="font-style:normal;font-variant:normal;font-weight:normal;font-stretch:normal;font-size:4.23332999999999959px;line-height:125%;font-family:'Courier New';-inkscape-font-specification:'Courier New, Normal';font-variant-ligatures:normal;font-variant-caps:normal;font-variant-numeric:normal;font-feature-settings:normal;text-align:start;letter-spacing:0px;word-spacing:0px;writing-mode:lr-tb;text-anchor:start;fill:#ffffe3;fill-opacity:1;stroke:none;stroke-width:0.26458300000000001px;stroke-linecap:butt;stroke-linejoin:miter;stroke-opacity:1"
       id="text955"
       transform="translate(0.65356327,2.71806)">
      <path
         d="m 3.3845562,201.23937 v -0.0579 q 0,-0.062 0.022738,-0.0889 0.024805,-0.0269 0.064079,-0.0269 0.039274,0 0.062012,0.0269 0.024805,0.0269 0.024805,0.0889 v 0.44235 q 0,0.062 -0.024805,0.0889 -0.022738,0.0269 -0.062012,0.0269 -0.037207,0 -0.062012,-0.0248 -0.022738,-0.0248 -0.024805,-0.0806 -0.010335,-0.17364 -0.179834,-0.31213 -0.1674316,-0.13849 -0.4402832,-0.13849 -0.2873209,0 -0.4568196,0.14883 -0.1694987,0.14676 -0.1694987,0.34726 0,0.10335 0.047542,0.1881 0.047542,0.0847 0.1260905,0.1385 0.078548,0.0517 0.1777669,0.0848 0.099219,0.031 0.3100586,0.0661 0.3534668,0.0579 0.4878255,0.11782 0.179834,0.0806 0.2707845,0.22325 0.093018,0.14262 0.093018,0.33693 0,0.29765 -0.2377116,0.50849 -0.2377116,0.20877 -0.6407877,0.20877 -0.4526856,0 -0.72347,-0.28318 v 0.0992 q 0,0.062 -0.024805,0.0889 -0.022738,0.0269 -0.062012,0.0269 -0.037207,0 -0.062012,-0.0269 -0.024805,-0.0269 -0.024805,-0.0889 v -0.47956 q 0,-0.0641 0.022738,-0.0909 0.024805,-0.0269 0.064079,-0.0269 0.037207,0 0.059945,0.0248 0.024805,0.0248 0.026872,0.0806 0.010335,0.19017 0.2025716,0.34726 0.1943033,0.15503 0.5208984,0.15503 0.326595,0 0.5146972,-0.1633 0.1901693,-0.16329 0.1901693,-0.38654 0,-0.13642 -0.072347,-0.24184 -0.072347,-0.10749 -0.214974,-0.1695 -0.099219,-0.0434 -0.4134114,-0.0971 -0.432015,-0.0724 -0.6221842,-0.22118 -0.1901693,-0.14882 -0.1901693,-0.42374 0,-0.27285 0.217041,-0.46923 0.2191081,-0.19637 0.576709,-0.19637 0.363802,0 0.6263183,0.22945 z"
         style="font-style:normal;font-variant:normal;font-weight:normal;font-stretch:normal;font-size:4.23332999999999959px;font-family:'Courier New';-inkscape-font-specification:'Courier New, Normal';font-variant-ligatures:normal;font-variant-caps:normal;font-variant-numeric:normal;font-feature-settings:normal;text-align:start;writing-mode:lr-tb;text-anchor:start;fill:#ffffe3;fill-opacity:1;stroke-width:0.26458300000000001px"
         id="path1060"
         inkscape:connector-curvature="0" />
      <path
         d="m 5.3131206,203.48419 -0.8061523,-1.61437 h -0.051676 q -0.062012,0 -0.088883,-0.0248 -0.026872,-0.0248 -0.026872,-0.062 0,-0.0269 0.012402,-0.0475 0.014469,-0.0227 0.03514,-0.031 0.022738,-0.0103 0.068213,-0.0103 H 4.930715 q 0.062012,0 0.088883,0.0248 0.026872,0.0248 0.026872,0.0641 0,0.0372 -0.026872,0.062 -0.026872,0.0248 -0.088883,0.0248 H 4.6971376 l 0.7090006,1.4242 0.6986653,-1.4242 H 5.8712261 q -0.062012,0 -0.088884,-0.0248 -0.026872,-0.0248 -0.026872,-0.0641 0,-0.0372 0.026872,-0.062 0.026872,-0.0248 0.088884,-0.0248 h 0.473356 q 0.064079,0 0.090951,0.0248 0.026872,0.0248 0.026872,0.0641 0,0.0269 -0.016536,0.0496 -0.016536,0.0227 -0.037207,0.031 -0.020671,0.006 -0.1157552,0.006 l -1.0996744,2.23862 H 5.464017 q 0.062012,0 0.088883,0.0227 0.026872,0.0248 0.026872,0.0641 0,0.0372 -0.026872,0.062 -0.026872,0.0248 -0.088883,0.0248 H 4.4635601 q -0.062012,0 -0.088883,-0.0248 -0.026872,-0.0227 -0.026872,-0.062 0,-0.0393 0.026872,-0.0641 0.026872,-0.0227 0.088883,-0.0227 h 0.5436361 z"
         style="font-style:normal;font-variant:normal;font-weight:normal;font-stretch:normal;font-size:4.23332999999999959px;font-family:'Courier New';-inkscape-font-specification:'Courier New, Normal';font-variant-ligatures:normal;font-variant-caps:normal;font-variant-numeric:normal;font-feature-settings:normal;text-align:start;writing-mode:lr-tb;text-anchor:start;fill:#ffffe3;fill-opacity:1;stroke-width:0.26458300000000001px"
         id="path1062"
         inkscape:connector-curvature="0" />
      <path
         d="m 7.2788921,201.69412 v 0.26252 q 0.181901,-0.18397 0.3286621,-0.25425 0.146761,-0.0703 0.3307291,-0.0703 0.1984375,0 0.361735,0.0847 0.1157552,0.062 0.2087728,0.2067 0.095085,0.14263 0.095085,0.29353 v 1.09347 h 0.1467611 q 0.062012,0 0.088883,0.0248 0.026872,0.0227 0.026872,0.062 0,0.0372 -0.026872,0.062 -0.026872,0.0248 -0.088883,0.0248 H 8.2855489 q -0.064079,0 -0.09095,-0.0248 -0.026872,-0.0248 -0.026872,-0.062 0,-0.0393 0.026872,-0.062 0.026872,-0.0248 0.09095,-0.0248 h 0.144694 v -1.06454 q 0,-0.18396 -0.1343587,-0.31005 -0.1343587,-0.12816 -0.3596679,-0.12816 -0.1715658,0 -0.2976563,0.0703 -0.1260905,0.0682 -0.3596679,0.34313 v 1.08934 h 0.1963704 q 0.062012,0 0.088883,0.0248 0.026872,0.0227 0.026872,0.062 0,0.0372 -0.026872,0.062 -0.026872,0.0248 -0.088883,0.0248 H 6.9088888 q -0.062012,0 -0.088883,-0.0248 -0.026872,-0.0248 -0.026872,-0.062 0,-0.0393 0.026872,-0.062 0.026872,-0.0248 0.088883,-0.0248 h 0.1963705 v -1.44074 H 6.9584982 q -0.062012,0 -0.088884,-0.0248 -0.026872,-0.0248 -0.026872,-0.0641 0,-0.0372 0.026872,-0.062 0.026872,-0.0248 0.088884,-0.0248 z"
         style="font-style:normal;font-variant:normal;font-weight:normal;font-stretch:normal;font-size:4.23332999999999959px;font-family:'Courier New';-inkscape-font-specification:'Courier New, Normal';font-variant-ligatures:normal;font-variant-caps:normal;font-variant-numeric:normal;font-feature-settings:normal;text-align:start;writing-mode:lr-tb;text-anchor:start;fill:#ffffe3;fill-opacity:1;stroke-width:0.26458300000000001px"
         id="path1064"
         inkscape:connector-curvature="0" />
      <path
         d="m 11.102948,201.86982 v -0.0579 q 0,-0.0641 0.02481,-0.0909 0.0248,-0.0269 0.06201,-0.0269 0.03927,0 0.06408,0.0269 0.02481,0.0269 0.02481,0.0909 v 0.39274 q -0.0021,0.0641 -0.02687,0.0909 -0.02274,0.0269 -0.06201,0.0269 -0.03514,0 -0.05994,-0.0227 -0.02274,-0.0248 -0.02687,-0.0806 -0.0124,-0.14676 -0.194303,-0.27905 -0.179834,-0.13229 -0.485759,-0.13229 -0.38654,0 -0.5870441,0.24184 -0.2005046,0.24185 -0.2005046,0.55398 0,0.33693 0.2211751,0.55603 0.2211756,0.21911 0.5725746,0.21911 0.202572,0 0.411345,-0.0744 0.210839,-0.0744 0.380338,-0.23978 0.04341,-0.0413 0.07648,-0.0413 0.03514,0 0.05788,0.0248 0.02481,0.0227 0.02481,0.0579 0,0.0889 -0.208773,0.22531 -0.336931,0.22117 -0.750342,0.22117 -0.419613,0 -0.690397,-0.26665 -0.2687175,-0.26871 -0.2687175,-0.68006 0,-0.41961 0.2749186,-0.6966 0.2769859,-0.27698 0.6965979,-0.27698 0.398942,0 0.669727,0.23771 z"
         style="font-style:normal;font-variant:normal;font-weight:normal;font-stretch:normal;font-size:4.23332999999999959px;font-family:'Courier New';-inkscape-font-specification:'Courier New, Normal';font-variant-ligatures:normal;font-variant-caps:normal;font-variant-numeric:normal;font-feature-settings:normal;text-align:start;writing-mode:lr-tb;text-anchor:start;fill:#ffffe3;fill-opacity:1;stroke-width:0.26458300000000001px"
         id="path1066"
         inkscape:connector-curvature="0" />
    </g>
    <g
       aria-label="Len"
       style="font-style:normal;font-variant:normal;font-weight:normal;font-stretch:normal;font-size:4.23332999999999959px;line-height:125%;font-family:'Courier New';-inkscape-font-specification:'Courier New, Normal';font-variant-ligatures:normal;font-variant-caps:normal;font-variant-numeric:normal;font-feature-settings:normal;text-align:start;letter-spacing:0px;word-spacing:0px;writing-mode:lr-tb;text-anchor:start;fill:#ffffe3;fill-opacity:1;stroke:none;stroke-width:0.26458300000000001px;stroke-linecap:butt;stroke-linejoin:miter;stroke-opacity:1"
       id="text959"
       transform="translate(-1.5205188,-11.91224)">
      <path
         d="m 9.3522881,236.59923 v 2.07119 h 1.1534179 v -0.69039 q 0,-0.062 0.02481,-0.0889 0.0248,-0.0269 0.06408,-0.0269 0.03721,0 0.06201,0.0269 0.02481,0.0248 0.02481,0.0889 v 0.86403 H 8.7631768 q -0.062012,0 -0.088883,-0.0248 -0.026872,-0.0248 -0.026872,-0.062 0,-0.0393 0.026872,-0.062 0.026872,-0.0248 0.088883,-0.0248 h 0.4134114 v -2.07119 H 8.7631768 q -0.062012,0 -0.088883,-0.0227 -0.026872,-0.0248 -0.026872,-0.0641 0,-0.0393 0.026872,-0.062 0.026872,-0.0248 0.088883,-0.0248 h 1.0025227 q 0.062012,0 0.088883,0.0248 0.026872,0.0227 0.026872,0.062 0,0.0393 -0.026872,0.0641 -0.026872,0.0227 -0.088883,0.0227 z"
         style="font-style:normal;font-variant:normal;font-weight:normal;font-stretch:normal;font-size:4.23332999999999959px;font-family:'Courier New';-inkscape-font-specification:'Courier New, Normal';font-variant-ligatures:normal;font-variant-caps:normal;font-variant-numeric:normal;font-feature-settings:normal;text-align:start;writing-mode:lr-tb;text-anchor:start;fill:#ffffe3;fill-opacity:1;stroke-width:0.26458300000000001px"
         id="path1053"
         inkscape:connector-curvature="0" />
      <path
         d="m 13.130869,237.99036 h -1.769401 q 0.04547,0.33693 0.281119,0.54364 0.237712,0.20464 0.587045,0.20464 0.194303,0 0.40721,-0.0641 0.212907,-0.0641 0.347266,-0.1695 0.03927,-0.031 0.06821,-0.031 0.03307,0 0.05788,0.0269 0.0248,0.0248 0.0248,0.0599 0,0.0351 -0.03307,0.0682 -0.09922,0.10335 -0.353467,0.1943 -0.252181,0.0889 -0.518831,0.0889 -0.446485,0 -0.746208,-0.29146 -0.297656,-0.29352 -0.297656,-0.709 0,-0.37827 0.279053,-0.64905 0.281119,-0.27079 0.694531,-0.27079 0.425814,0 0.700732,0.27905 0.274919,0.27699 0.270785,0.71934 z m -0.1757,-0.1757 q -0.05168,-0.28732 -0.272852,-0.46715 -0.219108,-0.17984 -0.522965,-0.17984 -0.303858,0 -0.522966,0.17777 -0.219108,0.17777 -0.272851,0.46922 z"
         style="font-style:normal;font-variant:normal;font-weight:normal;font-stretch:normal;font-size:4.23332999999999959px;font-family:'Courier New';-inkscape-font-specification:'Courier New, Normal';font-variant-ligatures:normal;font-variant-caps:normal;font-variant-numeric:normal;font-feature-settings:normal;text-align:start;writing-mode:lr-tb;text-anchor:start;fill:#ffffe3;fill-opacity:1;stroke-width:0.26458300000000001px"
         id="path1055"
         inkscape:connector-curvature="0" />
      <path
         d="m 14.168531,237.05398 v 0.26252 q 0.181901,-0.18397 0.328663,-0.25425 0.146761,-0.0703 0.330729,-0.0703 0.198437,0 0.361735,0.0847 0.115755,0.062 0.208772,0.20671 0.09509,0.14262 0.09509,0.29352 v 1.09347 h 0.146761 q 0.06201,0 0.08888,0.0248 0.02687,0.0227 0.02687,0.062 0,0.0372 -0.02687,0.062 -0.02687,0.0248 -0.08888,0.0248 h -0.465088 q -0.06408,0 -0.09095,-0.0248 -0.02687,-0.0248 -0.02687,-0.062 0,-0.0393 0.02687,-0.062 0.02687,-0.0248 0.09095,-0.0248 h 0.144694 v -1.06453 q 0,-0.18397 -0.134358,-0.31006 -0.134359,-0.12816 -0.359668,-0.12816 -0.171566,0 -0.297657,0.0703 -0.12609,0.0682 -0.359668,0.34313 v 1.08934 h 0.196371 q 0.06201,0 0.08888,0.0248 0.02687,0.0227 0.02687,0.062 0,0.0372 -0.02687,0.062 -0.02687,0.0248 -0.08888,0.0248 h -0.566374 q -0.06201,0 -0.08888,-0.0248 -0.02687,-0.0248 -0.02687,-0.062 0,-0.0393 0.02687,-0.062 0.02687,-0.0248 0.08888,-0.0248 h 0.196371 v -1.44074 h -0.146761 q -0.06201,0 -0.08888,-0.0248 -0.02687,-0.0248 -0.02687,-0.0641 0,-0.0372 0.02687,-0.062 0.02687,-0.0248 0.08888,-0.0248 z"
         style="font-style:normal;font-variant:normal;font-weight:normal;font-stretch:normal;font-size:4.23332999999999959px;font-family:'Courier New';-inkscape-font-specification:'Courier New, Normal';font-variant-ligatures:normal;font-variant-caps:normal;font-variant-numeric:normal;font-feature-settings:normal;text-align:start;writing-mode:lr-tb;text-anchor:start;fill:#ffffe3;fill-opacity:1;stroke-width:0.26458300000000001px"
         id="path1057"
         inkscape:connector-curvature="0" />
    </g>
    <g
       aria-label="Hit"
       style="font-style:normal;font-variant:normal;font-weight:normal;font-stretch:normal;font-size:4.23332999999999959px;line-height:125%;font-family:'Courier New';-inkscape-font-specification:'Courier New, Normal';font-variant-ligatures:normal;font-variant-caps:normal;font-variant-numeric:normal;font-feature-settings:normal;text-align:start;letter-spacing:0px;word-spacing:0px;writing-mode:lr-tb;text-anchor:start;fill:#ffffe3;fill-opacity:1;stroke:none;stroke-width:0.26458300000000001px;stroke-linecap:butt;stroke-linejoin:miter;stroke-opacity:1"
       id="text963"
       transform="translate(19.101964,-35.2166)">
      <path
         d="M 9.4552326,260.97842 H 8.3038817 v 0.99632 h 0.2335775 q 0.062012,0 0.088883,0.0248 0.026872,0.0227 0.026872,0.062 0,0.0372 -0.026872,0.062 -0.026872,0.0248 -0.088883,0.0248 H 7.9338785 q -0.062012,0 -0.088883,-0.0248 -0.026872,-0.0248 -0.026872,-0.062 0,-0.0393 0.026872,-0.062 0.026872,-0.0248 0.088883,-0.0248 h 0.1963704 v -2.07119 h -0.107487 q -0.064079,0 -0.090951,-0.0227 -0.026872,-0.0248 -0.026872,-0.0641 0,-0.0393 0.026872,-0.062 0.026872,-0.0248 0.090951,-0.0248 h 0.5146973 q 0.062012,0 0.088883,0.0248 0.026872,0.0227 0.026872,0.062 0,0.0393 -0.026872,0.0641 -0.026872,0.0227 -0.088883,0.0227 H 8.3038817 v 0.90124 h 1.1513509 v -0.90124 H 9.2237221 q -0.062012,0 -0.088883,-0.0227 -0.026872,-0.0248 -0.026872,-0.0641 0,-0.0393 0.024805,-0.062 0.026872,-0.0248 0.09095,-0.0248 h 0.5146973 q 0.064079,0 0.09095,0.0248 0.026872,0.0227 0.026872,0.062 0,0.0393 -0.026872,0.0641 -0.026872,0.0227 -0.09095,0.0227 h -0.107487 v 2.07119 h 0.1963704 q 0.062012,0 0.088883,0.0248 0.026872,0.0227 0.026872,0.062 0,0.0372 -0.026872,0.062 -0.026872,0.0248 -0.088883,0.0248 H 9.2237221 q -0.062012,0 -0.088883,-0.0248 -0.026872,-0.0248 -0.026872,-0.062 0,-0.0393 0.024805,-0.062 0.026872,-0.0248 0.09095,-0.0248 h 0.2315105 z"
         style="font-style:normal;font-variant:normal;font-weight:normal;font-stretch:normal;font-size:4.23332999999999959px;font-family:'Courier New';-inkscape-font-specification:'Courier New, Normal';font-variant-ligatures:normal;font-variant-caps:normal;font-variant-numeric:normal;font-feature-settings:normal;text-align:start;writing-mode:lr-tb;text-anchor:start;fill:#ffffe3;fill-opacity:1;stroke-width:0.26458300000000001px"
         id="path1032"
         inkscape:connector-curvature="0" />
      <path
         d="m 11.491284,259.4674 v 0.44855 h -0.256315 v -0.44855 z m 0.0062,0.8909 v 1.61644 h 0.682129 q 0.06408,0 0.09095,0.0248 0.02687,0.0227 0.02687,0.062 0,0.0372 -0.02687,0.062 -0.02687,0.0248 -0.09095,0.0248 h -1.537891 q -0.06201,0 -0.08888,-0.0248 -0.02687,-0.0248 -0.02687,-0.062 0,-0.0393 0.02687,-0.062 0.02687,-0.0248 0.08888,-0.0248 h 0.682129 V 260.534 h -0.506429 q -0.06201,0 -0.09095,-0.0248 -0.02687,-0.0248 -0.02687,-0.062 0,-0.0393 0.02687,-0.0641 0.02687,-0.0248 0.09095,-0.0248 z"
         style="font-style:normal;font-variant:normal;font-weight:normal;font-stretch:normal;font-size:4.23332999999999959px;font-family:'Courier New';-inkscape-font-specification:'Courier New, Normal';font-variant-ligatures:normal;font-variant-caps:normal;font-variant-numeric:normal;font-feature-settings:normal;text-align:start;writing-mode:lr-tb;text-anchor:start;fill:#ffffe3;fill-opacity:1;stroke-width:0.26458300000000001px"
         id="path1034"
         inkscape:connector-curvature="0" />
      <path
         d="m 13.58728,260.3583 h 0.942578 q 0.06201,0 0.08888,0.0248 0.02687,0.0248 0.02687,0.0641 0,0.0372 -0.02687,0.062 -0.02687,0.0248 -0.08888,0.0248 H 13.58728 v 1.15549 q 0,0.15089 0.119889,0.25218 0.121957,0.10129 0.355534,0.10129 0.1757,0 0.380339,-0.0517 0.204638,-0.0537 0.318326,-0.11989 0.04134,-0.0269 0.06821,-0.0269 0.03307,0 0.05788,0.0269 0.02481,0.0248 0.02481,0.0599 0,0.031 -0.02687,0.0579 -0.06615,0.0682 -0.322461,0.14883 -0.254248,0.0786 -0.487826,0.0786 -0.303857,0 -0.483691,-0.14263 -0.179834,-0.14262 -0.179834,-0.38447 v -1.1555 h -0.320394 q -0.06201,0 -0.08888,-0.0248 -0.02687,-0.0248 -0.02687,-0.0641 0,-0.0372 0.02687,-0.062 0.02687,-0.0248 0.08888,-0.0248 h 0.320394 v -0.51263 q 0,-0.062 0.0248,-0.0889 0.02481,-0.0269 0.06201,-0.0269 0.03927,0 0.06408,0.0269 0.02481,0.0269 0.02481,0.0889 z"
         style="font-style:normal;font-variant:normal;font-weight:normal;font-stretch:normal;font-size:4.23332999999999959px;font-family:'Courier New';-inkscape-font-specification:'Courier New, Normal';font-variant-ligatures:normal;font-variant-caps:normal;font-variant-numeric:normal;font-feature-settings:normal;text-align:start;writing-mode:lr-tb;text-anchor:start;fill:#ffffe3;fill-opacity:1;stroke-width:0.26458300000000001px"
         id="path1036"
         inkscape:connector-curvature="0" />
    </g>
    <g
       aria-label="Rev"
       style="font-style:normal;font-variant:normal;font-weight:normal;font-stretch:normal;font-size:4.23332999999999959px;line-height:125%;font-family:'Courier New';-inkscape-font-specification:'Courier New, Normal';font-variant-ligatures:normal;font-variant-caps:normal;font-variant-numeric:normal;font-feature-settings:normal;text-align:start;letter-spacing:0px;word-spacing:0px;writing-mode:lr-tb;text-anchor:start;fill:#ffffe3;fill-opacity:1;stroke:none;stroke-width:0.26458300000000001px;stroke-linecap:butt;stroke-linejoin:miter;stroke-opacity:1"
       id="text967"
       transform="translate(-36.65915,28.044661)">
      <path
         d="m 43.928877,259.72269 v 0.90537 h 0.320394 q 0.06408,0 0.09095,0.0248 0.02687,0.0227 0.02687,0.062 0,0.0372 -0.02687,0.062 -0.02687,0.0248 -0.09095,0.0248 h -0.727604 q -0.06201,0 -0.08888,-0.0248 -0.02687,-0.0248 -0.02687,-0.062 0,-0.0393 0.02687,-0.062 0.02687,-0.0248 0.08888,-0.0248 h 0.233577 v -2.07119 h -0.233577 q -0.06201,0 -0.08888,-0.0227 -0.02687,-0.0248 -0.02687,-0.0641 0,-0.0393 0.02687,-0.062 0.02687,-0.0248 0.08888,-0.0248 h 1.050065 q 0.324528,0 0.545703,0.20671 0.223242,0.20463 0.223242,0.46302 0,0.18603 -0.138493,0.3514 -0.136426,0.16329 -0.458887,0.27285 0.186036,0.12816 0.318327,0.28939 0.132292,0.16123 0.423747,0.66145 h 0.132292 q 0.06201,0 0.08888,0.0248 0.02687,0.0227 0.02687,0.062 0,0.0372 -0.02687,0.062 -0.02687,0.0248 -0.08888,0.0248 h -0.231511 q -0.322461,-0.57671 -0.500228,-0.77308 -0.175699,-0.19637 -0.405143,-0.30593 z m 0,-0.17363 h 0.473356 q 0.227376,0 0.411344,-0.0827 0.186036,-0.0827 0.268718,-0.19431 0.08475,-0.11162 0.08475,-0.22737 0,-0.17363 -0.1757,-0.33073 -0.173632,-0.1571 -0.423746,-0.1571 h -0.638721 z"
         style="fill:#ffffe3;fill-opacity:1;stroke-width:0.26458300000000001px"
         id="path1039"
         inkscape:connector-curvature="0" />
      <path
         d="M 47.972041,259.948 H 46.20264 q 0.04547,0.33693 0.28112,0.54364 0.237711,0.20464 0.587044,0.20464 0.194303,0 0.40721,-0.0641 0.212907,-0.0641 0.347266,-0.1695 0.03927,-0.031 0.06821,-0.031 0.03307,0 0.05788,0.0269 0.02481,0.0248 0.02481,0.0599 0,0.0351 -0.03307,0.0682 -0.09922,0.10336 -0.353467,0.19431 -0.252181,0.0889 -0.518831,0.0889 -0.446484,0 -0.746208,-0.29146 -0.297656,-0.29352 -0.297656,-0.709 0,-0.37827 0.279053,-0.64905 0.28112,-0.27079 0.694531,-0.27079 0.425814,0 0.700732,0.27906 0.274919,0.27698 0.270785,0.71933 z m -0.1757,-0.1757 q -0.05168,-0.28732 -0.272852,-0.46715 -0.219108,-0.17984 -0.522965,-0.17984 -0.303857,0 -0.522965,0.17777 -0.219109,0.17777 -0.272852,0.46922 z"
         style="fill:#ffffe3;fill-opacity:1;stroke-width:0.26458300000000001px"
         id="path1041"
         inkscape:connector-curvature="0" />
      <path
         d="m 49.722838,260.8017 h -0.293522 l -0.713134,-1.61437 h -0.177767 q -0.06201,0 -0.08888,-0.0248 -0.02687,-0.0248 -0.02687,-0.0641 0,-0.0372 0.02687,-0.062 0.02687,-0.0248 0.08888,-0.0248 h 0.651123 q 0.06201,0 0.08888,0.0248 0.02687,0.0248 0.02687,0.0641 0,0.0372 -0.02687,0.062 -0.02687,0.0248 -0.08888,0.0248 h -0.287321 l 0.636653,1.44073 h 0.07648 l 0.624252,-1.44073 h -0.289388 q -0.06201,0 -0.08888,-0.0248 -0.02687,-0.0248 -0.02687,-0.0641 0,-0.0372 0.02687,-0.062 0.02687,-0.0248 0.08888,-0.0248 h 0.65319 q 0.06408,0 0.08888,0.0248 0.02687,0.0248 0.02687,0.0641 0,0.0372 -0.02687,0.062 -0.0248,0.0248 -0.08888,0.0248 h -0.1757 z"
         style="fill:#ffffe3;fill-opacity:1;stroke-width:0.26458300000000001px"
         id="path1043"
         inkscape:connector-curvature="0" />
    </g>
    <g
       aria-label="Inv"
       style="font-style:normal;font-variant:normal;font-weight:normal;font-stretch:normal;font-size:4.23332999999999959px;line-height:125%;font-family:'Courier New';-inkscape-font-specification:'Courier New, Normal';font-variant-ligatures:normal;font-variant-caps:normal;font-variant-numeric:normal;font-feature-settings:normal;text-align:start;letter-spacing:0px;word-spacing:0px;writing-mode:lr-tb;text-anchor:start;fill:#ffffe3;fill-opacity:1;stroke:none;stroke-width:0.26458300000000001px;stroke-linecap:butt;stroke-linejoin:miter;stroke-opacity:1"
       id="text971"
       transform="translate(2.4828691,9.6523521)">
      <path
         d="m 45.105993,276.82662 v 2.07119 h 0.595312 q 0.06201,0 0.08888,0.0248 0.02687,0.0227 0.02687,0.062 0,0.0372 -0.02687,0.062 -0.02687,0.0248 -0.08888,0.0248 h -1.364257 q -0.06201,0 -0.08888,-0.0248 -0.02687,-0.0248 -0.02687,-0.062 0,-0.0393 0.02687,-0.062 0.02687,-0.0248 0.08888,-0.0248 h 0.595312 v -2.07119 h -0.595312 q -0.06201,0 -0.08888,-0.0227 -0.02687,-0.0248 -0.02687,-0.0641 0,-0.0393 0.02687,-0.062 0.02687,-0.0248 0.08888,-0.0248 h 1.364257 q 0.06201,0 0.08888,0.0248 0.02687,0.0227 0.02687,0.062 0,0.0393 -0.02687,0.0641 -0.02687,0.0227 -0.08888,0.0227 z"
         style="fill:#ffffe3;fill-opacity:1;stroke-width:0.26458300000000001px"
         id="path1025"
         inkscape:connector-curvature="0" />
      <path
         d="m 46.995283,277.28137 v 0.26252 q 0.181901,-0.18397 0.328662,-0.25425 0.146761,-0.0703 0.330729,-0.0703 0.198438,0 0.361735,0.0847 0.115756,0.062 0.208773,0.2067 0.09509,0.14263 0.09509,0.29353 v 1.09347 h 0.146761 q 0.06201,0 0.08888,0.0248 0.02687,0.0227 0.02687,0.062 0,0.0372 -0.02687,0.062 -0.02687,0.0248 -0.08888,0.0248 H 48.00194 q -0.06408,0 -0.09095,-0.0248 -0.02687,-0.0248 -0.02687,-0.062 0,-0.0393 0.02687,-0.062 0.02687,-0.0248 0.09095,-0.0248 h 0.144694 v -1.06454 q 0,-0.18396 -0.134359,-0.31005 -0.134358,-0.12816 -0.359668,-0.12816 -0.171565,0 -0.297656,0.0703 -0.12609,0.0682 -0.359668,0.34313 v 1.08934 h 0.196371 q 0.06201,0 0.08888,0.0248 0.02687,0.0227 0.02687,0.062 0,0.0372 -0.02687,0.062 -0.02687,0.0248 -0.08888,0.0248 H 46.62528 q -0.06201,0 -0.08888,-0.0248 -0.02687,-0.0248 -0.02687,-0.062 0,-0.0393 0.02687,-0.062 0.02687,-0.0248 0.08888,-0.0248 h 0.19637 v -1.44074 h -0.146761 q -0.06201,0 -0.08888,-0.0248 -0.02687,-0.0248 -0.02687,-0.0641 0,-0.0372 0.02687,-0.062 0.02687,-0.0248 0.08888,-0.0248 z"
         style="fill:#ffffe3;fill-opacity:1;stroke-width:0.26458300000000001px"
         id="path1027"
         inkscape:connector-curvature="0" />
      <path
         d="m 50.246764,279.07144 h -0.293522 l -0.713135,-1.61437 H 49.06234 q -0.06201,0 -0.08888,-0.0248 -0.02687,-0.0248 -0.02687,-0.0641 0,-0.0372 0.02687,-0.062 0.02687,-0.0248 0.08888,-0.0248 h 0.651123 q 0.06201,0 0.08888,0.0248 0.02687,0.0248 0.02687,0.0641 0,0.0372 -0.02687,0.062 -0.02687,0.0248 -0.08888,0.0248 h -0.287321 l 0.636654,1.44074 h 0.07648 l 0.624251,-1.44074 H 50.47414 q -0.06201,0 -0.08888,-0.0248 -0.02687,-0.0248 -0.02687,-0.0641 0,-0.0372 0.02687,-0.062 0.02687,-0.0248 0.08888,-0.0248 h 0.653191 q 0.06408,0 0.08888,0.0248 0.02687,0.0248 0.02687,0.0641 0,0.0372 -0.02687,0.062 -0.02481,0.0248 -0.08888,0.0248 h -0.1757 z"
         style="fill:#ffffe3;fill-opacity:1;stroke-width:0.26458300000000001px"
         id="path1029"
         inkscape:connector-curvature="0" />
    </g>
    <g
       aria-label="Out"
       style="font-style:normal;font-variant:normal;font-weight:normal;font-stretch:normal;font-size:4.23332999999999959px;line-height:125%;font-family:'Courier New';-inkscape-font-specification:'Courier New, Normal';font-variant-ligatures:normal;font-variant-caps:normal;font-variant-numeric:normal;font-feature-settings:normal;text-align:start;letter-spacing:0px;word-spacing:0px;writing-mode:lr-tb;text-anchor:start;fill:#ffffe3;fill-opacity:1;stroke:none;stroke-width:0.26458300000000001px;stroke-linecap:butt;stroke-linejoin:miter;stroke-opacity:1"
       id="text975"
       transform="translate(0.53584603,3.38474)">
      <path
         d="m 51.58082,187.34402 q 0,0.34726 -0.14056,0.64492 -0.140559,0.29559 -0.388606,0.46095 -0.24598,0.16537 -0.529167,0.16537 -0.419613,0 -0.740006,-0.35554 -0.318327,-0.3576 -0.318327,-0.9157 0,-0.56018 0.318327,-0.91571 0.320393,-0.35553 0.740006,-0.35553 0.283187,0 0.529167,0.16536 0.24598,0.16536 0.386539,0.46095 0.142627,0.29559 0.142627,0.64493 z m -0.1757,0 q 0,-0.42375 -0.245979,-0.76068 -0.24598,-0.33693 -0.636654,-0.33693 -0.365869,0 -0.626318,0.32246 -0.258382,0.32039 -0.258382,0.77515 0,0.48369 0.270784,0.79168 0.272852,0.30592 0.613916,0.30592 0.390674,0 0.636654,-0.33486 0.245979,-0.33693 0.245979,-0.76274 z"
         style="fill:#ffffe3;fill-opacity:1;stroke-width:0.26458300000000001px"
         id="path1069"
         inkscape:connector-curvature="0" />
      <path
         d="m 53.652012,188.54704 v -0.25425 q -0.355534,0.32247 -0.768946,0.32247 -0.254248,0 -0.386539,-0.1385 -0.171566,-0.1819 -0.171566,-0.42374 v -1.12035 h -0.233577 q -0.06201,0 -0.08888,-0.0248 -0.02687,-0.0248 -0.02687,-0.0641 0,-0.0372 0.02687,-0.062 0.02687,-0.0248 0.08888,-0.0248 h 0.40721 v 1.29605 q 0,0.16949 0.107487,0.27905 0.107487,0.10955 0.268717,0.10955 0.423747,0 0.777214,-0.3886 v -1.12035 h -0.320394 q -0.06201,0 -0.08888,-0.0248 -0.02687,-0.0248 -0.02687,-0.0641 0,-0.0372 0.02687,-0.062 0.02687,-0.0248 0.08888,-0.0248 h 0.494027 v 1.61644 h 0.146761 q 0.06201,0 0.08888,0.0248 0.02687,0.0227 0.02687,0.062 0,0.0372 -0.02687,0.062 -0.02687,0.0248 -0.08888,0.0248 z"
         style="fill:#ffffe3;fill-opacity:1;stroke-width:0.26458300000000001px"
         id="path1071"
         inkscape:connector-curvature="0" />
      <path
         d="m 55.239512,186.75697 h 0.942578 q 0.06201,0 0.08888,0.0248 0.02687,0.0248 0.02687,0.0641 0,0.0372 -0.02687,0.062 -0.02687,0.0248 -0.08888,0.0248 h -0.942578 v 1.15549 q 0,0.15089 0.119889,0.25218 0.121956,0.10128 0.355534,0.10128 0.1757,0 0.380338,-0.0517 0.204639,-0.0538 0.318327,-0.11989 0.04134,-0.0269 0.06821,-0.0269 0.03307,0 0.05788,0.0269 0.0248,0.0248 0.0248,0.0599 0,0.031 -0.02687,0.0579 -0.06615,0.0682 -0.322461,0.14883 -0.254248,0.0786 -0.487826,0.0786 -0.303857,0 -0.483691,-0.14263 -0.179834,-0.14263 -0.179834,-0.38447 v -1.15549 h -0.320394 q -0.06201,0 -0.08888,-0.0248 -0.02687,-0.0248 -0.02687,-0.0641 0,-0.0372 0.02687,-0.062 0.02687,-0.0248 0.08888,-0.0248 h 0.320394 v -0.51263 q 0,-0.062 0.02481,-0.0889 0.0248,-0.0269 0.06201,-0.0269 0.03927,0 0.06408,0.0269 0.02481,0.0269 0.02481,0.0889 z"
         style="fill:#ffffe3;fill-opacity:1;stroke-width:0.26458300000000001px"
         id="path1073"
         inkscape:connector-curvature="0" />
    </g>
    <g
       aria-label="Shift"
       style="font-style:normal;font-variant:normal;font-weight:normal;font-stretch:normal;font-size:4.23332999999999959px;line-height:125%;font-family:'Courier New';-inkscape-font-specification:'Courier New, Normal';font-variant-ligatures:normal;font-variant-caps:normal;font-variant-numeric:normal;font-feature-settings:normal;text-align:start;letter-spacing:0px;word-spacing:0px;writing-mode:lr-tb;text-anchor:start;fill:#ffffe3;fill-opacity:1;stroke:none;stroke-width:0.26458300000000001px;stroke-linecap:butt;stroke-linejoin:miter;stroke-opacity:1"
       id="text878"
       transform="translate(1.5603985,-2.00006)">
      <path
         d="m 44.508953,226.68697 v -0.0579 q 0,-0.062 0.02274,-0.0889 0.0248,-0.0269 0.06408,-0.0269 0.03927,0 0.06201,0.0269 0.02481,0.0269 0.02481,0.0889 v 0.44235 q 0,0.062 -0.02481,0.0889 -0.02274,0.0269 -0.06201,0.0269 -0.03721,0 -0.06201,-0.0248 -0.02274,-0.0248 -0.02481,-0.0806 -0.01033,-0.17364 -0.179834,-0.31213 -0.167432,-0.13849 -0.440283,-0.13849 -0.287321,0 -0.45682,0.14883 -0.169498,0.14676 -0.169498,0.34726 0,0.10336 0.04754,0.1881 0.04754,0.0848 0.12609,0.1385 0.07855,0.0517 0.177767,0.0848 0.09922,0.031 0.310059,0.0661 0.353467,0.0579 0.487825,0.11782 0.179834,0.0806 0.270785,0.22325 0.09302,0.14262 0.09302,0.33693 0,0.29765 -0.237711,0.50849 -0.237712,0.20878 -0.640788,0.20878 -0.452685,0 -0.72347,-0.28319 v 0.0992 q 0,0.062 -0.02481,0.0889 -0.02274,0.0269 -0.06201,0.0269 -0.03721,0 -0.06201,-0.0269 -0.02481,-0.0269 -0.02481,-0.0889 v -0.47956 q 0,-0.0641 0.02274,-0.0909 0.02481,-0.0269 0.06408,-0.0269 0.03721,0 0.05994,0.0248 0.02481,0.0248 0.02687,0.0806 0.01033,0.19017 0.202572,0.34726 0.194303,0.15503 0.520898,0.15503 0.326595,0 0.514697,-0.16329 0.19017,-0.1633 0.19017,-0.38654 0,-0.13643 -0.07235,-0.24185 -0.07235,-0.10749 -0.214974,-0.1695 -0.09922,-0.0434 -0.413412,-0.0971 -0.432015,-0.0724 -0.622184,-0.22118 -0.190169,-0.14882 -0.190169,-0.42374 0,-0.27285 0.217041,-0.46922 0.219108,-0.19637 0.576709,-0.19637 0.363802,0 0.626318,0.22944 z"
         style="font-style:normal;font-variant:normal;font-weight:normal;font-stretch:normal;font-size:4.23332999999999959px;font-family:'Courier New';-inkscape-font-specification:'Courier New, Normal';font-variant-ligatures:normal;font-variant-caps:normal;font-variant-numeric:normal;font-feature-settings:normal;text-align:start;writing-mode:lr-tb;text-anchor:start;fill:#ffffe3;fill-opacity:1;stroke-width:0.26458300000000001px"
         id="path880"
         inkscape:connector-curvature="0" />
      <path
         d="m 45.854607,226.33764 v 1.06867 q 0.165365,-0.17984 0.31626,-0.25219 0.152962,-0.0744 0.341064,-0.0744 0.202572,0 0.343132,0.0724 0.142627,0.0703 0.237712,0.21911 0.09508,0.14676 0.09508,0.31005 v 1.07694 h 0.194304 q 0.06408,0 0.08888,0.0248 0.02687,0.0227 0.02687,0.062 0,0.0372 -0.02687,0.062 -0.02481,0.0248 -0.08888,0.0248 h -0.564307 q -0.06408,0 -0.09095,-0.0248 -0.02687,-0.0248 -0.02687,-0.062 0,-0.0393 0.02687,-0.062 0.02687,-0.0248 0.09095,-0.0248 h 0.194303 v -1.06453 q 0,-0.18811 -0.136425,-0.3142 -0.134359,-0.12609 -0.376205,-0.12609 -0.190169,0 -0.324528,0.093 -0.09715,0.0661 -0.320394,0.31213 v 1.09967 h 0.196371 q 0.06201,0 0.08888,0.0248 0.02687,0.0227 0.02687,0.062 0,0.0372 -0.02687,0.062 -0.02687,0.0248 -0.08888,0.0248 H 45.4846 q -0.06201,0 -0.08888,-0.0248 -0.02687,-0.0248 -0.02687,-0.062 0,-0.0393 0.02687,-0.062 0.02687,-0.0248 0.08888,-0.0248 h 0.19637 v -2.24482 h -0.233577 q -0.06201,0 -0.08888,-0.0248 -0.02687,-0.0248 -0.02687,-0.0641 0,-0.0372 0.02687,-0.062 0.02687,-0.0248 0.08888,-0.0248 z"
         style="font-style:normal;font-variant:normal;font-weight:normal;font-stretch:normal;font-size:4.23332999999999959px;font-family:'Courier New';-inkscape-font-specification:'Courier New, Normal';font-variant-ligatures:normal;font-variant-caps:normal;font-variant-numeric:normal;font-feature-settings:normal;text-align:start;writing-mode:lr-tb;text-anchor:start;fill:#ffffe3;fill-opacity:1;stroke-width:0.26458300000000001px"
         id="path882"
         inkscape:connector-curvature="0" />
      <path
         d="m 49.050278,226.25082 v 0.44855 h -0.256315 v -0.44855 z m 0.0062,0.8909 v 1.61644 h 0.682129 q 0.06408,0 0.09095,0.0248 0.02687,0.0227 0.02687,0.062 0,0.0372 -0.02687,0.062 -0.02687,0.0248 -0.09095,0.0248 h -1.537891 q -0.06201,0 -0.08888,-0.0248 -0.02687,-0.0248 -0.02687,-0.062 0,-0.0393 0.02687,-0.062 0.02687,-0.0248 0.08888,-0.0248 h 0.682129 v -1.44074 h -0.506429 q -0.06201,0 -0.09095,-0.0248 -0.02687,-0.0248 -0.02687,-0.062 0,-0.0393 0.02687,-0.0641 0.02687,-0.0248 0.09095,-0.0248 z"
         style="font-style:normal;font-variant:normal;font-weight:normal;font-stretch:normal;font-size:4.23332999999999959px;font-family:'Courier New';-inkscape-font-specification:'Courier New, Normal';font-variant-ligatures:normal;font-variant-caps:normal;font-variant-numeric:normal;font-feature-settings:normal;text-align:start;writing-mode:lr-tb;text-anchor:start;fill:#ffffe3;fill-opacity:1;stroke-width:0.26458300000000001px"
         id="path884"
         inkscape:connector-curvature="0" />
      <path
         d="m 51.38812,227.31742 v 1.44074 h 0.762744 q 0.06201,0 0.08888,0.0248 0.02687,0.0227 0.02687,0.062 0,0.0372 -0.02687,0.062 -0.02687,0.0248 -0.08888,0.0248 h -1.358057 q -0.06201,0 -0.08888,-0.0248 -0.02687,-0.0248 -0.02687,-0.062 0,-0.0393 0.02687,-0.062 0.02687,-0.0248 0.08888,-0.0248 h 0.419613 v -1.44074 h -0.376205 q -0.06201,0 -0.08888,-0.0248 -0.02687,-0.0248 -0.02687,-0.0641 0,-0.0372 0.02687,-0.062 0.02687,-0.0248 0.08888,-0.0248 h 0.376205 v -0.26251 q 0,-0.21911 0.177767,-0.38034 0.177766,-0.16123 0.471289,-0.16123 0.245979,0 0.525032,0.0455 0.10542,0.0165 0.126091,0.0393 0.02274,0.0227 0.02274,0.0599 0,0.0372 -0.0248,0.062 -0.02481,0.0227 -0.06615,0.0227 -0.01654,0 -0.05581,-0.006 -0.312125,-0.0475 -0.527099,-0.0475 -0.227377,0 -0.3514,0.11162 -0.121956,0.11162 -0.121956,0.25425 v 0.26251 h 0.812353 q 0.06201,0 0.08888,0.0248 0.02687,0.0248 0.02687,0.0641 0,0.0372 -0.02687,0.062 -0.02687,0.0248 -0.08888,0.0248 z"
         style="font-style:normal;font-variant:normal;font-weight:normal;font-stretch:normal;font-size:4.23332999999999959px;font-family:'Courier New';-inkscape-font-specification:'Courier New, Normal';font-variant-ligatures:normal;font-variant-caps:normal;font-variant-numeric:normal;font-feature-settings:normal;text-align:start;writing-mode:lr-tb;text-anchor:start;fill:#ffffe3;fill-opacity:1;stroke-width:0.26458300000000001px"
         id="path886"
         inkscape:connector-curvature="0" />
      <path
         d="m 53.68462,227.14172 h 0.942578 q 0.06201,0 0.08888,0.0248 0.02687,0.0248 0.02687,0.0641 0,0.0372 -0.02687,0.062 -0.02687,0.0248 -0.08888,0.0248 H 53.68462 v 1.15549 q 0,0.15089 0.119889,0.25218 0.121957,0.10128 0.355534,0.10128 0.1757,0 0.380339,-0.0517 0.204638,-0.0538 0.318327,-0.11989 0.04134,-0.0269 0.06821,-0.0269 0.03307,0 0.05788,0.0269 0.02481,0.0248 0.02481,0.0599 0,0.031 -0.02687,0.0579 -0.06615,0.0682 -0.322461,0.14883 -0.254248,0.0786 -0.487825,0.0786 -0.303858,0 -0.483692,-0.14263 -0.179834,-0.14263 -0.179834,-0.38447 v -1.15549 h -0.320394 q -0.06201,0 -0.08888,-0.0248 -0.02687,-0.0248 -0.02687,-0.0641 0,-0.0372 0.02687,-0.062 0.02687,-0.0248 0.08888,-0.0248 h 0.320394 v -0.51263 q 0,-0.062 0.0248,-0.0889 0.02481,-0.0269 0.06201,-0.0269 0.03927,0 0.06408,0.0269 0.02481,0.0269 0.02481,0.0889 z"
         style="font-style:normal;font-variant:normal;font-weight:normal;font-stretch:normal;font-size:4.23332999999999959px;font-family:'Courier New';-inkscape-font-specification:'Courier New, Normal';font-variant-ligatures:normal;font-variant-caps:normal;font-variant-numeric:normal;font-feature-settings:normal;text-align:start;writing-mode:lr-tb;text-anchor:start;fill:#ffffe3;fill-opacity:1;stroke-width:0.26458300000000001px"
         id="path888"
         inkscape:connector-curvature="0" />
    </g>
    <g
       aria-label="CV"
       style="font-style:normal;font-variant:normal;font-weight:normal;font-stretch:normal;font-size:4.23332999999999959px;line-height:125%;font-family:'Courier New';-inkscape-font-specification:'Courier New, Normal';font-variant-ligatures:normal;font-variant-caps:normal;font-variant-numeric:normal;font-feature-settings:normal;text-align:start;letter-spacing:0px;word-spacing:0px;writing-mode:lr-tb;text-anchor:start;fill:#ffffe3;fill-opacity:1;stroke:none;stroke-width:0.26458300000000001px;stroke-linecap:butt;stroke-linejoin:miter;stroke-opacity:1"
       id="text925"
       transform="translate(26.303555,-8.0617699)">
      <path
         d="m 3.4362479,252.40014 v -0.12195 q 0,-0.062 0.022738,-0.0889 0.024805,-0.0269 0.064079,-0.0269 0.039274,0 0.062012,0.0269 0.024805,0.0269 0.024805,0.0889 v 0.48162 q 0,0.0641 -0.024805,0.091 -0.022738,0.0269 -0.062012,0.0269 -0.03514,0 -0.059945,-0.0248 -0.022738,-0.0248 -0.026872,-0.0806 -0.010335,-0.17363 -0.1881022,-0.30799 -0.2397786,-0.18397 -0.5457031,-0.18397 -0.2005045,0 -0.3782715,0.0889 -0.1322916,0.0641 -0.2108398,0.15709 -0.1364258,0.16123 -0.217041,0.3576 -0.057878,0.1447 -0.057878,0.3266 v 0.30386 q 0,0.3886 0.2811198,0.67592 0.2811198,0.28526 0.6531901,0.28526 0.2232421,0 0.398942,-0.0971 0.1777669,-0.0972 0.3431315,-0.29353 0.03514,-0.0434 0.078548,-0.0434 0.037207,0 0.059945,0.0227 0.022738,0.0227 0.022738,0.0579 0,0.0475 -0.088883,0.14469 -0.1694987,0.19017 -0.3824056,0.28733 -0.2108398,0.0951 -0.4278808,0.0951 -0.1881022,0 -0.3824056,-0.0724 -0.1488281,-0.0558 -0.2459798,-0.13022 -0.097152,-0.0744 -0.2397786,-0.25012 -0.1405599,-0.17776 -0.1922364,-0.32659 -0.051676,-0.1509 -0.051676,-0.33073 v -0.35347 q 0,-0.25631 0.1364258,-0.52296 0.1384928,-0.26872 0.3762044,-0.41135 0.2397786,-0.14469 0.5188313,-0.14469 0.4299479,0 0.7400065,0.29352 z"
         style="font-style:normal;font-variant:normal;font-weight:normal;font-stretch:normal;font-size:4.23332999999999959px;font-family:'Courier New';-inkscape-font-specification:'Courier New, Normal';font-variant-ligatures:normal;font-variant-caps:normal;font-variant-numeric:normal;font-feature-settings:normal;text-align:start;writing-mode:lr-tb;text-anchor:start;fill:#ffffe3;fill-opacity:1;stroke-width:0.26458300000000001px"
         id="path927"
         inkscape:connector-curvature="0" />
      <path
         d="M 5.3400076,254.58089 H 5.098162 L 4.2237968,252.33606 H 4.089438 q -0.047542,0 -0.068213,-0.008 -0.020671,-0.0103 -0.03514,-0.031 -0.012402,-0.0227 -0.012402,-0.0475 0,-0.0248 0.012402,-0.0455 0.014469,-0.0227 0.03514,-0.031 0.020671,-0.0103 0.068213,-0.0103 h 0.6469889 q 0.049609,0 0.068213,0.0103 0.020671,0.008 0.033073,0.031 0.014469,0.0207 0.014469,0.0455 0,0.0248 -0.014469,0.0475 -0.014469,0.0207 -0.03514,0.031 -0.018604,0.008 -0.066146,0.008 H 4.4036307 l 0.8061523,2.07119 h 0.012402 l 0.795817,-2.07119 H 5.6872733 q -0.049609,0 -0.07028,-0.008 -0.020671,-0.0103 -0.03514,-0.031 -0.012402,-0.0227 -0.012402,-0.0475 0,-0.0248 0.014469,-0.0455 0.014469,-0.0227 0.033073,-0.031 0.020671,-0.0103 0.07028,-0.0103 h 0.6449218 q 0.049609,0 0.07028,0.0103 0.020671,0.008 0.033073,0.031 0.014469,0.0207 0.014469,0.0455 0,0.0248 -0.014469,0.0475 -0.014469,0.0207 -0.03514,0.031 -0.018603,0.008 -0.068213,0.008 H 6.1999034 Z"
         style="font-style:normal;font-variant:normal;font-weight:normal;font-stretch:normal;font-size:4.23332999999999959px;font-family:'Courier New';-inkscape-font-specification:'Courier New, Normal';font-variant-ligatures:normal;font-variant-caps:normal;font-variant-numeric:normal;font-feature-settings:normal;text-align:start;writing-mode:lr-tb;text-anchor:start;fill:#ffffe3;fill-opacity:1;stroke-width:0.26458300000000001px"
         id="path929"
         inkscape:connector-curvature="0" />
    </g>
    <rect
       style="display:inline;opacity:1;fill:#000000;fill-opacity:1;stroke:none;stroke-width:0.134493;stroke-miterlimit:4;stroke-dasharray:none;stroke-opacity:1"
       id="rect1106-7"
       width="32.000004"
       height="32.000004"
       x="14.5"
       y="183.41252"
       inkscape:label="display" />
    <flowRoot
       xml:space="preserve"
       id="flowRoot889"
       style="font-style:normal;font-weight:normal;font-size:40px;line-height:125%;font-family:sans-serif;letter-spacing:0px;word-spacing:0px;fill:#000000;fill-opacity:1;stroke:none;stroke-width:1px;stroke-linecap:butt;stroke-linejoin:miter;stroke-opacity:1"><flowRegion
         id="flowRegion891"><rect
           id="rect893"
           width="7.1731195"
           height="265.22571"
           x="154.5513"
           y="35.615662" /></flowRegion><flowPara
         id="flowPara895" /></flowRoot>
    <g
       aria-label="Eugene"
       style="font-style:normal;font-variant:normal;font-weight:normal;font-stretch:normal;font-size:10.5833px;line-height:125%;font-family:'Courier New';-inkscape-font-specification:'Courier New, Normal';font-variant-ligatures:normal;font-variant-caps:normal;font-variant-numeric:normal;font-feature-settings:normal;text-align:start;letter-spacing:0px;word-spacing:0px;writing-mode:lr-tb;text-anchor:start;fill:#ffffe3;fill-opacity:1;stroke:none;stroke-width:0.264583px;stroke-linecap:butt;stroke-linejoin:miter;stroke-opacity:1"
       id="text890"
       transform="translate(0,-1.5875)">
      <path
         d="m 13.382414,177.95431 v 2.48563 h 3.338298 v -1.28157 q 0,-0.15503 0.05684,-0.22221 0.06201,-0.0672 0.160197,-0.0672 0.09819,0 0.155029,0.0672 0.06201,0.0672 0.06201,0.22221 v 1.71565 h -4.790406 q -0.155029,0 -0.222208,-0.062 -0.06718,-0.062 -0.06718,-0.15503 0,-0.0982 0.06718,-0.15503 0.06718,-0.062 0.222208,-0.062 h 0.583944 v -5.17798 h -0.583944 q -0.155029,0 -0.222208,-0.0568 -0.06718,-0.062 -0.06718,-0.1602 0,-0.0982 0.06718,-0.15503 0.06718,-0.062 0.222208,-0.062 h 4.563029 v 1.49345 q 0,0.15503 -0.06201,0.22221 -0.05684,0.0672 -0.15503,0.0672 -0.09819,0 -0.160197,-0.0672 -0.05684,-0.0672 -0.05684,-0.22221 v -1.05937 h -3.110921 v 2.25826 h 1.555461 v -0.49092 q 0,-0.15503 0.06201,-0.22221 0.06201,-0.0672 0.160197,-0.0672 0.09302,0 0.15503,0.0672 0.06201,0.0672 0.06201,0.22221 v 1.41593 q 0,0.15503 -0.06201,0.22221 -0.06201,0.0672 -0.15503,0.0672 -0.09819,0 -0.160197,-0.0672 -0.06201,-0.0672 -0.06201,-0.22221 v -0.49092 z"
         style="font-style:normal;font-variant:normal;font-weight:normal;font-stretch:normal;font-size:10.5833px;font-family:'Courier New';-inkscape-font-specification:'Courier New, Normal';font-variant-ligatures:normal;font-variant-caps:normal;font-variant-numeric:normal;font-feature-settings:normal;text-align:start;writing-mode:lr-tb;text-anchor:start;fill:#ffffe3;fill-opacity:1;stroke-width:0.264583px"
         id="path892" />
      <path
         d="m 22.627328,180.87402 v -0.63562 q -0.888835,0.80616 -1.922364,0.80616 -0.63562,0 -0.966349,-0.34624 -0.428914,-0.45475 -0.428914,-1.05936 v -2.80087 h -0.583944 q -0.155029,0 -0.222209,-0.062 -0.06718,-0.062 -0.06718,-0.16019 0,-0.093 0.06718,-0.15503 0.06718,-0.062 0.222209,-0.062 h 1.018026 v 3.24012 q 0,0.42374 0.268717,0.69763 0.268718,0.27388 0.671794,0.27388 1.059367,0 1.943034,-0.97151 v -2.80087 h -0.800985 q -0.155029,0 -0.222209,-0.062 -0.06718,-0.062 -0.06718,-0.16019 0,-0.093 0.06718,-0.15503 0.06718,-0.062 0.222209,-0.062 h 1.235067 v 4.0411 h 0.366902 q 0.15503,0 0.222209,0.062 0.06718,0.0568 0.06718,0.15503 0,0.093 -0.06718,0.15503 -0.06718,0.062 -0.222209,0.062 z"
         style="font-style:normal;font-variant:normal;font-weight:normal;font-stretch:normal;font-size:10.5833px;font-family:'Courier New';-inkscape-font-specification:'Courier New, Normal';font-variant-ligatures:normal;font-variant-caps:normal;font-variant-numeric:normal;font-feature-settings:normal;text-align:start;writing-mode:lr-tb;text-anchor:start;fill:#ffffe3;fill-opacity:1;stroke-width:0.264583px"
         id="path894" />
      <path
         d="m 28.947355,177.19466 v -0.79582 h 1.018026 q 0.155029,0 0.222208,0.062 0.06718,0.062 0.06718,0.16019 0,0.093 -0.06718,0.15503 -0.06718,0.062 -0.222208,0.062 h -0.583944 v 4.33566 q 0,0.43408 -0.186035,0.77514 -0.124023,0.22738 -0.413411,0.47026 -0.289388,0.24288 -0.5271,0.34623 -0.237712,0.10335 -0.63562,0.10335 h -1.229899 q -0.155029,0 -0.222209,-0.062 -0.06718,-0.0568 -0.06718,-0.15503 0,-0.0982 0.06718,-0.16019 0.06718,-0.062 0.222209,-0.062 l 1.245402,0.005 q 0.382405,0 0.687296,-0.19637 0.310059,-0.19637 0.511597,-0.57361 0.113688,-0.21704 0.113688,-0.55293 v -1.30225 q -0.697632,0.95601 -1.79834,0.95601 -0.894002,0 -1.545125,-0.66146 -0.645955,-0.66662 -0.645955,-1.60196 0,-0.93535 0.645955,-1.59681 0.651123,-0.66145 1.545125,-0.66145 1.100708,0 1.79834,0.95084 z m 0,1.30742 q 0,-0.76482 -0.527099,-1.29192 -0.521932,-0.5271 -1.25057,-0.5271 -0.728638,0 -1.25057,0.53227 -0.521932,0.5271 -0.521932,1.28675 0,0.76481 0.521932,1.29707 0.521932,0.5271 1.25057,0.5271 0.728638,0 1.25057,-0.5271 0.527099,-0.53226 0.527099,-1.29707 z"
         style="font-style:normal;font-variant:normal;font-weight:normal;font-stretch:normal;font-size:10.5833px;font-family:'Courier New';-inkscape-font-specification:'Courier New, Normal';font-variant-ligatures:normal;font-variant-caps:normal;font-variant-numeric:normal;font-feature-settings:normal;text-align:start;writing-mode:lr-tb;text-anchor:start;fill:#ffffe3;fill-opacity:1;stroke-width:0.264583px"
         id="path896" />
      <path
         d="m 36.182056,178.73979 h -4.423503 q 0.113689,0.84232 0.7028,1.35909 0.594279,0.51159 1.467611,0.51159 0.485758,0 1.018025,-0.16019 0.532267,-0.1602 0.868164,-0.42375 0.09819,-0.0775 0.170533,-0.0775 0.08268,0 0.144694,0.0672 0.06201,0.062 0.06201,0.14987 0,0.0879 -0.08268,0.17053 -0.248047,0.25838 -0.883667,0.48576 -0.630452,0.22221 -1.297078,0.22221 -1.116211,0 -1.86552,-0.72864 -0.74414,-0.73381 -0.74414,-1.7725 0,-0.94568 0.697632,-1.62264 0.702799,-0.67696 1.736328,-0.67696 1.064534,0 1.751831,0.69763 0.687296,0.69246 0.676961,1.79834 z m -0.43925,-0.43925 q -0.129191,-0.71831 -0.682129,-1.16789 -0.54777,-0.44959 -1.307413,-0.44959 -0.759644,0 -1.307414,0.44442 -0.54777,0.44442 -0.682129,1.17306 z"
         style="font-style:normal;font-variant:normal;font-weight:normal;font-stretch:normal;font-size:10.5833px;font-family:'Courier New';-inkscape-font-specification:'Courier New, Normal';font-variant-ligatures:normal;font-variant-caps:normal;font-variant-numeric:normal;font-feature-settings:normal;text-align:start;writing-mode:lr-tb;text-anchor:start;fill:#ffffe3;fill-opacity:1;stroke-width:0.264583px"
         id="path898" />
      <path
         d="m 38.776212,176.39884 v 0.6563 q 0.454753,-0.45993 0.821656,-0.63562 0.366902,-0.1757 0.826822,-0.1757 0.496094,0 0.904338,0.21187 0.289388,0.15503 0.521932,0.51676 0.237712,0.35657 0.237712,0.73381 v 2.73368 h 0.366902 q 0.155029,0 0.222209,0.062 0.06718,0.0568 0.06718,0.15503 0,0.093 -0.06718,0.15503 -0.06718,0.062 -0.222209,0.062 h -1.16272 q -0.160196,0 -0.227376,-0.062 -0.06718,-0.062 -0.06718,-0.15503 0,-0.0982 0.06718,-0.15503 0.06718,-0.062 0.227376,-0.062 h 0.361736 v -2.66133 q 0,-0.45992 -0.335897,-0.77515 -0.335897,-0.3204 -0.89917,-0.3204 -0.428915,0 -0.744141,0.1757 -0.315226,0.17054 -0.89917,0.85783 v 2.72335 h 0.490926 q 0.15503,0 0.222209,0.062 0.06718,0.0568 0.06718,0.15503 0,0.093 -0.06718,0.15503 -0.06718,0.062 -0.222209,0.062 h -1.415934 q -0.155029,0 -0.222208,-0.062 -0.06718,-0.062 -0.06718,-0.15503 0,-0.0982 0.06718,-0.15503 0.06718,-0.062 0.222208,-0.062 h 0.490926 v -3.60185 h -0.366902 q -0.15503,0 -0.222209,-0.062 -0.06718,-0.062 -0.06718,-0.16019 0,-0.093 0.06718,-0.15503 0.06718,-0.062 0.222209,-0.062 z"
         style="font-style:normal;font-variant:normal;font-weight:normal;font-stretch:normal;font-size:10.5833px;font-family:'Courier New';-inkscape-font-specification:'Courier New, Normal';font-variant-ligatures:normal;font-variant-caps:normal;font-variant-numeric:normal;font-feature-settings:normal;text-align:start;writing-mode:lr-tb;text-anchor:start;fill:#ffffe3;fill-opacity:1;stroke-width:0.264583px"
         id="path900" />
      <path
         d="m 48.873786,178.73979 h -4.423502 q 0.113688,0.84232 0.702799,1.35909 0.594279,0.51159 1.467611,0.51159 0.485759,0 1.018026,-0.16019 0.532267,-0.1602 0.868164,-0.42375 0.09819,-0.0775 0.170532,-0.0775 0.08268,0 0.144694,0.0672 0.06201,0.062 0.06201,0.14987 0,0.0879 -0.08268,0.17053 -0.248046,0.25838 -0.883667,0.48576 -0.630452,0.22221 -1.297078,0.22221 -1.116211,0 -1.865519,-0.72864 -0.744141,-0.73381 -0.744141,-1.7725 0,-0.94568 0.697632,-1.62264 0.7028,-0.67696 1.736328,-0.67696 1.064535,0 1.751831,0.69763 0.687297,0.69246 0.676961,1.79834 z m -0.439249,-0.43925 q -0.129191,-0.71831 -0.682129,-1.16789 -0.54777,-0.44959 -1.307414,-0.44959 -0.759643,0 -1.307414,0.44442 -0.54777,0.44442 -0.682128,1.17306 z"
         style="font-style:normal;font-variant:normal;font-weight:normal;font-stretch:normal;font-size:10.5833px;font-family:'Courier New';-inkscape-font-specification:'Courier New, Normal';font-variant-ligatures:normal;font-variant-caps:normal;font-variant-numeric:normal;font-feature-settings:normal;text-align:start;writing-mode:lr-tb;text-anchor:start;fill:#ffffe3;fill-opacity:1;stroke-width:0.264583px"
         id="path902" />
    </g>
  </g>
  <g
     inkscape:groupmode="layer"
     id="layer2"
     inkscape:label="components"
     style="display:none;opacity:1">
    <circle
       style="fill:#ff0000;fill-opacity:1;stroke:none;stroke-width:0.16622;stroke-miterlimit:4;stroke-dasharray:none;stroke-opacity:1"
       id="path1082"
       cx="10.48"
       cy="67"
       r="4"
       inkscape:label="length_knob" />
    <circle
       style="fill:#ff0000;fill-opacity:1;stroke:none;stroke-width:0.175092;stroke-miterlimit:4;stroke-dasharray:none;stroke-opacity:1"
       id="path1082-3"
       cx="30.48"
       cy="67"
       r="4"
       inkscape:label="hits_knob" />
    <circle
       style="fill:#ff0000;fill-opacity:1;stroke:none;stroke-width:0.184852;stroke-miterlimit:4;stroke-dasharray:none;stroke-opacity:1"
       id="path1082-2"
       cx="10.48"
       cy="112"
       r="4"
       inkscape:label="reverse_knob" />
    <circle
       style="fill:#ff0000;fill-opacity:1;stroke:none;stroke-width:0.157348;stroke-miterlimit:4;stroke-dasharray:none;stroke-opacity:1"
       id="path1082-7"
       cx="50.48"
       cy="112"
       r="4"
       inkscape:label="invert_knob" />
    <circle
       style="fill:#00ff00;fill-opacity:1;stroke:none;stroke-width:0.175092;stroke-miterlimit:4;stroke-dasharray:none;stroke-opacity:1"
       id="path1082-1"
       cx="15.48"
       cy="100.0875"
       r="4"
       inkscape:label="length_cv" />
    <circle
       style="fill:#00ff00;fill-opacity:1;stroke:none;stroke-width:0.170656;stroke-miterlimit:4;stroke-dasharray:none;stroke-opacity:1"
       id="path1082-3-0"
       cx="30.48"
       cy="100.0875"
       r="4"
       inkscape:label="hits_cv" />
    <circle
       style="fill:#00ff00;fill-opacity:1;stroke:none;stroke-width:0.16622;stroke-miterlimit:4;stroke-dasharray:none;stroke-opacity:1"
       id="path1082-2-0"
       cx="23.813334"
       cy="112"
       r="4"
       inkscape:label="reverse_cv" />
    <circle
       style="fill:#00ff00;fill-opacity:1;stroke:none;stroke-width:0.170656;stroke-miterlimit:4;stroke-dasharray:none;stroke-opacity:1"
       id="path1082-7-9"
       cx="37.146667"
       cy="112"
       r="4"
       inkscape:label="invert_cv" />
    <circle
       style="fill:#0000ff;fill-opacity:1;stroke:none;stroke-width:0.175092;stroke-miterlimit:4;stroke-dasharray:none;stroke-opacity:1"
       id="path1082-1-4"
       cx="53.720001"
       cy="29.5"
       r="4"
       inkscape:label="beat" />
    <circle
       style="display:inline;opacity:0.94;fill:#00ff00;fill-opacity:1;stroke:none;stroke-width:0.175092;stroke-miterlimit:4;stroke-dasharray:none;stroke-opacity:1"
       id="path1082-1-6"
       cx="7.2399998"
       cy="29.5"
       r="4"
       inkscape:label="clock" />
    <circle
       style="display:inline;opacity:0.94;fill:#00ff00;fill-opacity:1;stroke:none;stroke-width:0.175092;stroke-miterlimit:4;stroke-dasharray:none;stroke-opacity:1"
       id="path1082-1-6-7"
       cx="7.2399998"
       cy="44.5"
       r="4"
       inkscape:label="sync" />
    <circle
       style="display:inline;opacity:0.94;fill:#ff0000;fill-opacity:1;stroke:none;stroke-width:0.16622;stroke-miterlimit:4;stroke-dasharray:none;stroke-opacity:1"
       id="path1082-6"
       cx="50.48"
       cy="67"
       r="4"
       inkscape:label="shift_knob" />
    <circle
       style="display:inline;opacity:0.94;fill:#00ff00;fill-opacity:1;stroke:none;stroke-width:0.16622;stroke-miterlimit:4;stroke-dasharray:none;stroke-opacity:1"
       id="path1082-2-0-0"
       cx="45.48"
       cy="100.0875"
       r="4"
       inkscape:label="shift_cv" />
    <circle
       style="display:inline;opacity:0.94;fill:#ff0000;fill-opacity:1;stroke:none;stroke-width:0.16622;stroke-miterlimit:4;stroke-dasharray:none;stroke-opacity:1"
       id="path1082-79"
       cx="15.48"
       cy="85.470833"
       r="4"
       inkscape:label="length_cv_knob" />
    <circle
       style="display:inline;opacity:0.94;fill:#ff0000;fill-opacity:1;stroke:none;stroke-width:0.175092;stroke-miterlimit:4;stroke-dasharray:none;stroke-opacity:1"
       id="path1082-3-3"
       cx="30.48"
       cy="85.470833"
       r="4"
       inkscape:label="hits_cv_knob" />
    <circle
       style="display:inline;opacity:0.94;fill:#ff0000;fill-opacity:1;stroke:none;stroke-width:0.16622;stroke-miterlimit:4;stroke-dasharray:none;stroke-opacity:1"
       id="path1082-6-8"
       cx="45.48"
       cy="85.470833"
       r="4"
       inkscape:label="shift_cv_knob" />
    <rect
       style="display:inline;fill:#ffff00;fill-opacity:1;stroke:none;stroke-width:0.134493;stroke-miterlimit:4;stroke-dasharray:none;stroke-opacity:1"
       id="rect1106"
       width="32"
       height="32"
       x="14.48"
       y="14.912501"
       inkscape:label="display" />
  </g>
</svg>
