<svg xmlns="http://www.w3.org/2000/svg" width="10.651mm" height="10.651mm" viewBox="0 0 10.651 10.651"><g style="display:inline;opacity:1" transform="rotate(180 -4.204 6.548)scale(.03584)"><circle cx="383.169" cy="-216.795" r="146.3" style="fill:#aaa;fill-opacity:1;stroke:#1b1b1b;stroke-width:4.58146;stroke-linecap:round;stroke-miterlimit:4;stroke-dasharray:none;stroke-opacity:1" transform="scale(-1)"/><circle cx="383.169" cy="-216.795" r="123.234" style="display:inline;opacity:1;fill:#2e2e2e;fill-opacity:1;stroke:#f0f0f0;stroke-width:6.51175;stroke-linecap:round;stroke-miterlimit:4;stroke-dasharray:none;stroke-opacity:1" transform="scale(-1)"/><path d="M-500.66 228.938a284.544 283.665 0 0 0 156.365 25.292 284.544 283.665 0 0 0 77.515-20.787 117.954 117.59 0 0 0 .447-31.614A117.954 117.59 0 0 0-397.69 99.32a117.954 117.59 0 0 0-102.97 129.617" style="display:inline;opacity:1;fill:#181818;fill-opacity:1;stroke:none;stroke-width:11.4728;stroke-linecap:round;stroke-miterlimit:4;stroke-dasharray:none;stroke-opacity:1"/><g style="font-size:85.7332px;line-height:1.25;font-family:&quot;Script MT Bold&quot;;-inkscape-font-specification:&quot;Script MT Bold, &quot;;fill:#fff;fill-opacity:1;stroke-width:2.14333"><path d="M-34.706-122.76v-56.755h27.178q8.745 0 13.889 4.801 5.23 4.801 5.23 12.946 0 5.487-2.144 8.745-2.058 3.258-5.23 4.972-3.172 1.63-6.344 2.4l14.918 22.892H5.16l-13.718-21.777h-19.719v21.777zm6.43-27.863h19.633q3.087 0 6.259-.943t5.315-3.343q2.23-2.487 2.23-6.859 0-5.401-3.687-8.488-3.687-3.172-9.774-3.172h-19.976ZM22.65-122.76v-56.755h7.459l35.064 47.754v-47.754h6.43v56.756h-7.458L29.08-170.684v47.925zm62.842 0v-56.755h23.92q5.058 0 9.688 1.972 4.715 1.886 8.401 5.573 3.687 3.686 5.83 8.916 2.144 5.23 2.144 11.917 0 6.687-2.144 11.917-2.143 5.23-5.83 8.916-3.686 3.687-8.401 5.659-4.63 1.886-9.688 1.886zm6.43-6.086h17.233q6.087 0 10.545-3.087 4.458-3.086 6.858-8.144 2.487-5.059 2.487-11.06 0-6.087-2.487-11.145-2.4-5.059-6.858-8.06-4.458-3.086-10.545-3.086H91.922Z" aria-label="RND" style="font-style:normal;font-variant:normal;font-weight:400;font-stretch:normal;font-family:Questrial;-inkscape-font-specification:Questrial;fill:#fff;fill-opacity:1;stroke-width:2.14333" transform="rotate(180 -165.094 28.935)scale(1.05153)"/></g></g></svg>